G75*
%MOIN*%
%OFA0B0*%
%FSLAX24Y24*%
%IPPOS*%
%LPD*%
%AMOC8*
5,1,8,0,0,1.08239X$1,22.5*
%
%ADD10C,0.0847*%
%ADD11C,0.0370*%
%ADD12C,0.0460*%
%ADD13R,0.0532X0.0611*%
%ADD14R,0.0375X0.0729*%
%ADD15C,0.0303*%
%ADD16C,0.0338*%
%ADD17R,0.0808X0.0995*%
%ADD18R,0.0808X0.0523*%
%ADD19R,0.0887X0.0641*%
%ADD20R,0.0603X0.0237*%
%ADD21R,0.0847X0.0847*%
D10*
X001456Y000927D03*
X001456Y009786D03*
X007361Y009786D03*
X007361Y000927D03*
D11*
X005188Y012483D03*
X005188Y012983D03*
X004688Y012983D03*
X004688Y012483D03*
X004188Y012483D03*
X004188Y012983D03*
D12*
X003688Y013133D03*
X003688Y012333D03*
X005688Y012733D03*
D13*
X005117Y019313D03*
X004310Y019313D03*
X003129Y019313D03*
X002322Y019313D03*
X001141Y019313D03*
X006298Y019313D03*
D14*
X002931Y011473D03*
X001592Y011473D03*
D15*
X006926Y012008D03*
X007241Y012008D03*
D16*
X007223Y007679D03*
X007223Y007286D03*
X007223Y006892D03*
X007223Y006498D03*
X006830Y006892D03*
X006830Y007286D03*
X006830Y007679D03*
X006436Y007679D03*
X006436Y007286D03*
X006042Y007679D03*
X007223Y003231D03*
X007223Y002837D03*
X007223Y002443D03*
X007223Y002049D03*
X006830Y002049D03*
X006830Y002443D03*
X006830Y002837D03*
X006436Y002443D03*
X006436Y002049D03*
X006042Y002049D03*
X002775Y002049D03*
X002381Y002049D03*
X002381Y002443D03*
X001987Y002443D03*
X001987Y002049D03*
X001987Y002837D03*
X001594Y002837D03*
X001594Y003231D03*
X001594Y002443D03*
X001594Y002049D03*
X001594Y006498D03*
X001594Y006892D03*
X001594Y007286D03*
X001594Y007679D03*
X001987Y007679D03*
X001987Y007286D03*
X001987Y006892D03*
X002381Y007286D03*
X002381Y007679D03*
X002775Y007679D03*
D17*
X007401Y013167D03*
X007401Y015460D03*
D18*
X007401Y014643D03*
X007401Y013984D03*
D19*
X006495Y013344D03*
X006495Y015283D03*
D20*
X006353Y014825D03*
X006353Y014569D03*
X006353Y014313D03*
X006353Y014057D03*
X006353Y013801D03*
D21*
X006023Y011341D03*
X004842Y011341D03*
M02*
