%
M48
M72
T01C0.0080
T02C0.0083
T03C0.0118
T04C0.0400
T05C0.0787
%
T01
X1810Y8408
X2676Y8408
X3149Y8408
X3621Y8408
X3857Y8959
X3739Y9471
X3424Y10140
X3739Y10455
X3621Y11282
X3346Y11597
X2912Y11990
X2912Y12817
X2401Y12463
X2125Y12266
X1869Y12817
X1259Y12502
X1259Y12187
X1259Y11872
X1251Y11557
X1251Y11242
X1259Y10927
X905Y13565
X1220Y14786
X1259Y15101
X1338Y16282
X1259Y17896
X1101Y18762
X1613Y19077
X1692Y19471
X1653Y18762
X1849Y17935
X2164Y16242
X2479Y15770
X2755Y15416
X2479Y14746
X3503Y13959
X3739Y13644
X4054Y14077
X4448Y14825
X4763Y14825
X4802Y14195
X4723Y13742
X4684Y13368
X4487Y12738
X5471Y14510
X5629Y14234
X5632Y14794
X5632Y15246
X5885Y13585
X5629Y13388
X6119Y11282
X6456Y12423
X6830Y13841
X6633Y15790
X5550Y17463
X5196Y18742
X5668Y19077
X5668Y19471
X4943Y16956
X4943Y16556
X4943Y16156
X4943Y15756
X4543Y15756
X4543Y16156
X4543Y16556
X4543Y16956
X4143Y16956
X4143Y16556
X4143Y16156
X4143Y15756
X3743Y15756
X3743Y16156
X3743Y16556
X3743Y16956
X2991Y17581
X2794Y18408
X2479Y17935
X3660Y19471
X4527Y18171
X6849Y10770
X6534Y9392
X7597Y11360
X4487Y9825
X2873Y10573
X2676Y9904
T02
X6926Y12008
X7241Y12008
T03
X7223Y7679
X7223Y7286
X7223Y6892
X7223Y6498
X6830Y6892
X6830Y7286
X6830Y7679
X6436Y7679
X6436Y7286
X6042Y7679
X7223Y3231
X7223Y2837
X7223Y2443
X7223Y2049
X6830Y2049
X6830Y2443
X6830Y2837
X6436Y2443
X6436Y2049
X6042Y2049
X2775Y2049
X2381Y2049
X2381Y2443
X1987Y2443
X1987Y2049
X1987Y2837
X1594Y2837
X1594Y3231
X1594Y2443
X1594Y2049
X1594Y6498
X1594Y6892
X1594Y7286
X1594Y7679
X1987Y7679
X1987Y7286
X1987Y6892
X2381Y7286
X2381Y7679
X2775Y7679
T04
X3688Y12333
X3688Y13133
X5688Y12733
T05
X1456Y927
X1456Y9786
X7361Y9786
X7361Y927
M30
