G75*
%MOIN*%
%OFA0B0*%
%FSLAX24Y24*%
%IPPOS*%
%LPD*%
%AMOC8*
5,1,8,0,0,1.08239X$1,22.5*
%
%ADD10R,0.0211X0.0215*%
%ADD11R,0.0215X0.0211*%
%ADD12C,0.0080*%
%ADD13R,0.1811X0.1811*%
%ADD14C,0.0087*%
%ADD15R,0.0315X0.0354*%
%ADD16R,0.1024X0.0591*%
%ADD17R,0.0394X0.0276*%
%ADD18R,0.0394X0.0197*%
%ADD19R,0.1024X0.1181*%
%ADD20R,0.0236X0.0098*%
%ADD21R,0.0126X0.0217*%
%ADD22R,0.0217X0.0126*%
%ADD23R,0.0236X0.0492*%
%ADD24R,0.0098X0.0157*%
%ADD25R,0.0276X0.0157*%
%ADD26R,0.0266X0.0098*%
%ADD27R,0.0240X0.0559*%
%ADD28R,0.0118X0.0276*%
%ADD29C,0.0243*%
%ADD30R,0.0630X0.0394*%
%ADD31C,0.0060*%
%ADD32C,0.0278*%
%ADD33C,0.0177*%
%ADD34R,0.0630X0.0984*%
%ADD35C,0.0240*%
%ADD36C,0.0120*%
%ADD37C,0.0100*%
%ADD38C,0.0500*%
%ADD39C,0.0300*%
%ADD40C,0.0240*%
%ADD41C,0.0160*%
D10*
X001876Y010809D03*
X002217Y010809D03*
X003451Y014274D03*
X003451Y014589D03*
X003207Y014873D03*
X002866Y014873D03*
X002571Y015101D03*
X002230Y015101D03*
X001902Y014786D03*
X001561Y014786D03*
X001233Y015494D03*
X001233Y015849D03*
X000892Y015849D03*
X000892Y015494D03*
X001010Y019471D03*
X001351Y019471D03*
X002460Y018749D03*
X002801Y018749D03*
X002899Y019471D03*
X003240Y019471D03*
X003182Y017934D03*
X003523Y017934D03*
X004008Y017873D03*
X004349Y017873D03*
X004947Y019471D03*
X005288Y019471D03*
X006137Y016099D03*
X006478Y016099D03*
X006355Y014836D03*
X006696Y014836D03*
X007023Y014837D03*
X007309Y015396D03*
X007364Y014837D03*
X007650Y015396D03*
X007285Y013308D03*
X007177Y012738D03*
X006944Y013308D03*
X006836Y012738D03*
X006836Y011282D03*
X007177Y011282D03*
X007151Y008801D03*
X007492Y008801D03*
X004818Y014500D03*
X004477Y014500D03*
X003792Y014589D03*
X003792Y014274D03*
X003647Y011597D03*
X003988Y011597D03*
D11*
X005903Y015455D03*
X005903Y015796D03*
X006277Y015791D03*
X006277Y015450D03*
X006447Y016950D03*
X006447Y017291D03*
X006363Y018080D03*
X006363Y018421D03*
X005966Y017569D03*
X005966Y017228D03*
X004833Y017865D03*
X004833Y018206D03*
X004853Y018513D03*
X004853Y018854D03*
X004566Y018854D03*
X004566Y018513D03*
X003103Y018404D03*
X003103Y018745D03*
X001180Y014326D03*
X001180Y013985D03*
X007676Y014714D03*
X007676Y015055D03*
X007696Y014228D03*
X007696Y013887D03*
D12*
X000711Y008897D02*
X000711Y000380D01*
X001121Y000380D01*
X001097Y000390D01*
X000919Y000568D01*
X000822Y000801D01*
X000822Y001053D01*
X000919Y001286D01*
X001097Y001465D01*
X001330Y001561D01*
X001582Y001561D01*
X001815Y001465D01*
X001993Y001286D01*
X002089Y001053D01*
X002089Y000801D01*
X001993Y000568D01*
X001815Y000390D01*
X001790Y000380D01*
X007027Y000380D01*
X007002Y000390D01*
X006824Y000568D01*
X006728Y000801D01*
X006728Y001053D01*
X006824Y001286D01*
X007002Y001465D01*
X007235Y001561D01*
X007487Y001561D01*
X007720Y001465D01*
X007898Y001286D01*
X007995Y001053D01*
X007995Y000801D01*
X007898Y000568D01*
X007720Y000390D01*
X007696Y000380D01*
X008115Y000380D01*
X008107Y016006D01*
X006737Y016006D01*
X006769Y015993D01*
X006836Y015926D01*
X006873Y015837D01*
X006873Y015821D01*
X006881Y015812D01*
X006881Y015786D01*
X006893Y015762D01*
X006881Y015726D01*
X006881Y015616D01*
X007083Y015413D01*
X007083Y015553D01*
X007154Y015623D01*
X007199Y015623D01*
X007251Y015675D01*
X007338Y015762D01*
X006893Y015762D01*
X006881Y015683D02*
X007259Y015683D01*
X007338Y015762D02*
X007856Y015762D01*
X007975Y015644D01*
X008062Y015556D01*
X008062Y011170D01*
X008072Y011156D01*
X008062Y011109D01*
X008062Y011062D01*
X008051Y011050D01*
X008047Y011034D01*
X008008Y011008D01*
X007975Y010974D01*
X007958Y010974D01*
X007890Y010929D01*
X007856Y010896D01*
X007840Y010896D01*
X007826Y010886D01*
X007779Y010896D01*
X006787Y010896D01*
X006699Y010983D01*
X006677Y011006D01*
X006677Y011058D01*
X006611Y011125D01*
X006611Y011132D01*
X006308Y011132D01*
X006255Y011078D01*
X006167Y011042D01*
X006071Y011042D01*
X005983Y011078D01*
X005916Y011146D01*
X005879Y011234D01*
X005879Y011312D01*
X005798Y011392D01*
X005797Y011392D01*
X005755Y011436D01*
X005711Y011479D01*
X005711Y011481D01*
X005089Y012121D01*
X005046Y012164D01*
X005046Y012166D01*
X005045Y012167D01*
X005046Y012228D01*
X005046Y012972D01*
X004917Y013100D01*
X004836Y013181D01*
X004820Y013165D01*
X004732Y013128D01*
X004636Y013128D01*
X004548Y013165D01*
X004481Y013232D01*
X004469Y013261D01*
X004401Y013190D01*
X004401Y011574D01*
X004313Y011486D01*
X004274Y011447D01*
X004214Y011447D01*
X004214Y011439D01*
X004144Y011369D01*
X003845Y011369D01*
X003861Y011329D01*
X003861Y011234D01*
X003825Y011146D01*
X003757Y011078D01*
X003669Y011042D01*
X003573Y011042D01*
X003485Y011078D01*
X003418Y011146D01*
X003381Y011234D01*
X003381Y011329D01*
X003392Y011357D01*
X003332Y011357D01*
X003309Y011334D01*
X003309Y010352D01*
X003377Y010380D01*
X003472Y010380D01*
X003518Y010361D01*
X003499Y010407D01*
X003499Y010503D01*
X003536Y010591D01*
X003603Y010658D01*
X003691Y010695D01*
X003787Y010695D01*
X003875Y010658D01*
X003943Y010591D01*
X003979Y010503D01*
X003979Y010441D01*
X004081Y010339D01*
X006089Y010339D01*
X006183Y010246D01*
X006320Y010108D01*
X006320Y009994D01*
X006326Y009994D01*
X006448Y009872D01*
X006448Y009699D01*
X006337Y009589D01*
X006365Y009562D01*
X006399Y009595D01*
X006487Y009632D01*
X006582Y009632D01*
X006670Y009595D01*
X006738Y009528D01*
X006774Y009440D01*
X006774Y009378D01*
X006921Y009232D01*
X007141Y009029D01*
X007307Y009029D01*
X007377Y008959D01*
X007377Y008644D01*
X007307Y008574D01*
X006996Y008574D01*
X006926Y008644D01*
X006926Y008792D01*
X006748Y008956D01*
X006744Y008956D01*
X006699Y009001D01*
X006653Y009044D01*
X006653Y009047D01*
X006548Y009152D01*
X006487Y009152D01*
X006399Y009189D01*
X006365Y009222D01*
X006337Y009195D01*
X006448Y009085D01*
X006448Y008912D01*
X006326Y008790D01*
X005995Y008790D01*
X005980Y008805D01*
X005954Y008780D01*
X005225Y008780D01*
X005199Y008805D01*
X005184Y008790D01*
X004854Y008790D01*
X004731Y008912D01*
X004731Y009085D01*
X004854Y009207D01*
X005155Y009207D01*
X005155Y009577D01*
X004854Y009577D01*
X004766Y009665D01*
X004667Y009665D01*
X004623Y009622D01*
X004535Y009585D01*
X004474Y009585D01*
X003924Y009035D01*
X003566Y009035D01*
X003543Y009012D01*
X003318Y009012D01*
X003332Y008999D01*
X003332Y008683D01*
X003309Y008660D01*
X003309Y008587D01*
X003352Y008544D01*
X003389Y008455D01*
X003389Y008360D01*
X003352Y008272D01*
X003285Y008204D01*
X003196Y008168D01*
X003101Y008168D01*
X003013Y008204D01*
X002945Y008272D01*
X002909Y008360D01*
X002909Y008455D01*
X002945Y008544D01*
X002989Y008587D01*
X002989Y008613D01*
X002800Y008613D01*
X002729Y008683D01*
X002729Y008776D01*
X002518Y008776D01*
X002495Y008799D01*
X002413Y008799D01*
X002334Y008878D01*
X002334Y008878D01*
X002305Y008907D01*
X002305Y008026D01*
X003325Y008026D01*
X003387Y008027D01*
X003388Y008026D01*
X003388Y008026D01*
X003432Y007983D01*
X003476Y007939D01*
X003476Y007939D01*
X003476Y007938D01*
X003476Y007877D01*
X003476Y007815D01*
X003476Y007815D01*
X003476Y007814D01*
X003432Y007770D01*
X003310Y007647D01*
X003612Y007767D01*
X003612Y007767D01*
X003696Y007781D01*
X003696Y007928D01*
X003736Y008023D01*
X003809Y008096D01*
X003904Y008136D01*
X004913Y008136D01*
X005008Y008096D01*
X005081Y008023D01*
X005121Y007928D01*
X005121Y007782D01*
X005205Y007768D01*
X005205Y007768D01*
X005477Y007660D01*
X005410Y007726D01*
X005409Y007726D01*
X005366Y007770D01*
X005322Y007813D01*
X005322Y007814D01*
X005321Y007814D01*
X005321Y007876D01*
X005321Y007938D01*
X005321Y007938D01*
X005321Y007938D01*
X005365Y007982D01*
X005409Y008026D01*
X005409Y008026D01*
X005409Y008026D01*
X005471Y008026D01*
X005533Y008027D01*
X005533Y008026D01*
X007482Y008026D01*
X007570Y007938D01*
X007570Y006406D01*
X007856Y006120D01*
X007856Y003373D01*
X007751Y003267D01*
X007570Y003087D01*
X007570Y001873D01*
X007571Y001812D01*
X007570Y001811D01*
X007570Y001810D01*
X007527Y001767D01*
X007484Y001723D01*
X007483Y001723D01*
X007482Y001722D01*
X007421Y001722D01*
X005534Y001703D01*
X005534Y001703D01*
X005472Y001703D01*
X005411Y001702D01*
X005410Y001703D01*
X005409Y001703D01*
X005366Y001746D01*
X005322Y001789D01*
X005322Y001790D01*
X005321Y001790D01*
X005321Y001852D01*
X005321Y001913D01*
X005321Y001914D01*
X005321Y001915D01*
X005365Y001958D01*
X005408Y002002D01*
X005409Y002002D01*
X005681Y002274D01*
X005198Y002081D01*
X005198Y002081D01*
X005121Y002068D01*
X005121Y001821D01*
X005081Y001725D01*
X005008Y001652D01*
X004913Y001613D01*
X003904Y001613D01*
X003809Y001652D01*
X003736Y001725D01*
X003696Y001821D01*
X003696Y002068D01*
X003621Y002081D01*
X003621Y002081D01*
X003138Y002272D01*
X003408Y002003D01*
X003496Y001915D01*
X003496Y001790D01*
X003408Y001703D01*
X001335Y001703D01*
X001247Y001790D01*
X001247Y003051D01*
X001204Y003051D01*
X001066Y003188D01*
X000961Y003294D01*
X000961Y008648D01*
X000712Y008897D01*
X000711Y008897D01*
X000711Y008854D02*
X000755Y008854D01*
X000711Y008775D02*
X000834Y008775D01*
X000912Y008697D02*
X000711Y008697D01*
X000711Y008618D02*
X000961Y008618D01*
X000961Y008540D02*
X000711Y008540D01*
X000711Y008461D02*
X000961Y008461D01*
X000961Y008383D02*
X000711Y008383D01*
X000711Y008304D02*
X000961Y008304D01*
X000961Y008226D02*
X000711Y008226D01*
X000711Y008147D02*
X000961Y008147D01*
X000961Y008069D02*
X000711Y008069D01*
X000711Y007990D02*
X000961Y007990D01*
X000961Y007912D02*
X000711Y007912D01*
X000711Y007833D02*
X000961Y007833D01*
X000961Y007755D02*
X000711Y007755D01*
X000711Y007676D02*
X000961Y007676D01*
X000961Y007598D02*
X000711Y007598D01*
X000711Y007519D02*
X000961Y007519D01*
X000961Y007441D02*
X000711Y007441D01*
X000711Y007362D02*
X000961Y007362D01*
X000961Y007284D02*
X000711Y007284D01*
X000711Y007205D02*
X000961Y007205D01*
X000961Y007127D02*
X000711Y007127D01*
X000711Y007048D02*
X000961Y007048D01*
X000961Y006970D02*
X000711Y006970D01*
X000711Y006891D02*
X000961Y006891D01*
X000961Y006813D02*
X000711Y006813D01*
X000711Y006734D02*
X000961Y006734D01*
X000961Y006656D02*
X000711Y006656D01*
X000711Y006577D02*
X000961Y006577D01*
X000961Y006499D02*
X000711Y006499D01*
X000711Y006420D02*
X000961Y006420D01*
X000961Y006342D02*
X000711Y006342D01*
X000711Y006263D02*
X000961Y006263D01*
X000961Y006185D02*
X000711Y006185D01*
X000711Y006106D02*
X000961Y006106D01*
X000961Y006028D02*
X000711Y006028D01*
X000711Y005949D02*
X000961Y005949D01*
X000961Y005871D02*
X000711Y005871D01*
X000711Y005792D02*
X000961Y005792D01*
X000961Y005714D02*
X000711Y005714D01*
X000711Y005635D02*
X000961Y005635D01*
X000961Y005557D02*
X000711Y005557D01*
X000711Y005478D02*
X000961Y005478D01*
X000961Y005400D02*
X000711Y005400D01*
X000711Y005321D02*
X000961Y005321D01*
X000961Y005243D02*
X000711Y005243D01*
X000711Y005164D02*
X000961Y005164D01*
X000961Y005086D02*
X000711Y005086D01*
X000711Y005007D02*
X000961Y005007D01*
X000961Y004929D02*
X000711Y004929D01*
X000711Y004850D02*
X000961Y004850D01*
X000961Y004772D02*
X000711Y004772D01*
X000711Y004693D02*
X000961Y004693D01*
X000961Y004615D02*
X000711Y004615D01*
X000711Y004536D02*
X000961Y004536D01*
X000961Y004458D02*
X000711Y004458D01*
X000711Y004379D02*
X000961Y004379D01*
X000961Y004301D02*
X000711Y004301D01*
X000711Y004222D02*
X000961Y004222D01*
X000961Y004144D02*
X000711Y004144D01*
X000711Y004065D02*
X000961Y004065D01*
X000961Y003987D02*
X000711Y003987D01*
X000711Y003908D02*
X000961Y003908D01*
X000961Y003830D02*
X000711Y003830D01*
X000711Y003751D02*
X000961Y003751D01*
X000961Y003673D02*
X000711Y003673D01*
X000711Y003594D02*
X000961Y003594D01*
X000961Y003516D02*
X000711Y003516D01*
X000711Y003437D02*
X000961Y003437D01*
X000961Y003359D02*
X000711Y003359D01*
X000711Y003280D02*
X000975Y003280D01*
X001053Y003202D02*
X000711Y003202D01*
X000711Y003123D02*
X001132Y003123D01*
X001247Y003045D02*
X000711Y003045D01*
X000711Y002966D02*
X001247Y002966D01*
X001247Y002888D02*
X000711Y002888D01*
X000711Y002809D02*
X001247Y002809D01*
X001247Y002731D02*
X000711Y002731D01*
X000711Y002652D02*
X001247Y002652D01*
X001247Y002574D02*
X000711Y002574D01*
X000711Y002495D02*
X001247Y002495D01*
X001247Y002417D02*
X000711Y002417D01*
X000711Y002338D02*
X001247Y002338D01*
X001247Y002260D02*
X000711Y002260D01*
X000711Y002181D02*
X001247Y002181D01*
X001247Y002103D02*
X000711Y002103D01*
X000711Y002024D02*
X001247Y002024D01*
X001247Y001946D02*
X000711Y001946D01*
X000711Y001867D02*
X001247Y001867D01*
X001249Y001789D02*
X000711Y001789D01*
X000711Y001710D02*
X001327Y001710D01*
X001310Y001553D02*
X000711Y001553D01*
X000711Y001475D02*
X001121Y001475D01*
X001028Y001396D02*
X000711Y001396D01*
X000711Y001318D02*
X000950Y001318D01*
X000899Y001239D02*
X000711Y001239D01*
X000711Y001161D02*
X000866Y001161D01*
X000834Y001082D02*
X000711Y001082D01*
X000711Y001004D02*
X000822Y001004D01*
X000822Y000925D02*
X000711Y000925D01*
X000711Y000847D02*
X000822Y000847D01*
X000836Y000768D02*
X000711Y000768D01*
X000711Y000690D02*
X000868Y000690D01*
X000901Y000611D02*
X000711Y000611D01*
X000711Y000533D02*
X000954Y000533D01*
X001033Y000454D02*
X000711Y000454D01*
X000711Y001632D02*
X003858Y001632D01*
X003751Y001710D02*
X003415Y001710D01*
X003494Y001789D02*
X003709Y001789D01*
X003696Y001867D02*
X003496Y001867D01*
X003465Y001946D02*
X003696Y001946D01*
X003696Y002024D02*
X003386Y002024D01*
X003308Y002103D02*
X003566Y002103D01*
X003368Y002181D02*
X003229Y002181D01*
X003170Y002260D02*
X003151Y002260D01*
X002775Y002049D02*
X002381Y002049D01*
X002381Y002443D01*
X001987Y002443D01*
X001987Y002837D01*
X001594Y002837D01*
X001594Y003231D01*
X001594Y002837D02*
X001594Y002443D01*
X001594Y002049D02*
X001987Y002049D01*
X001987Y002443D01*
X001791Y001475D02*
X007026Y001475D01*
X006934Y001396D02*
X001883Y001396D01*
X001962Y001318D02*
X006855Y001318D01*
X006804Y001239D02*
X002013Y001239D01*
X002045Y001161D02*
X006772Y001161D01*
X006739Y001082D02*
X002078Y001082D01*
X002089Y001004D02*
X006728Y001004D01*
X006728Y000925D02*
X002089Y000925D01*
X002089Y000847D02*
X006728Y000847D01*
X006741Y000768D02*
X002076Y000768D01*
X002043Y000690D02*
X006774Y000690D01*
X006806Y000611D02*
X002011Y000611D01*
X001957Y000533D02*
X006860Y000533D01*
X006938Y000454D02*
X001879Y000454D01*
X001601Y001553D02*
X007216Y001553D01*
X007507Y001553D02*
X008115Y001553D01*
X008115Y001475D02*
X007696Y001475D01*
X007789Y001396D02*
X008115Y001396D01*
X008115Y001318D02*
X007867Y001318D01*
X007918Y001239D02*
X008115Y001239D01*
X008115Y001161D02*
X007951Y001161D01*
X007983Y001082D02*
X008115Y001082D01*
X008115Y001004D02*
X007995Y001004D01*
X007995Y000925D02*
X008115Y000925D01*
X008115Y000847D02*
X007995Y000847D01*
X007981Y000768D02*
X008115Y000768D01*
X008115Y000690D02*
X007949Y000690D01*
X007916Y000611D02*
X008115Y000611D01*
X008115Y000533D02*
X007863Y000533D01*
X007784Y000454D02*
X008115Y000454D01*
X008115Y001632D02*
X004959Y001632D01*
X005066Y001710D02*
X005402Y001710D01*
X005323Y001789D02*
X005108Y001789D01*
X005121Y001867D02*
X005321Y001867D01*
X005352Y001946D02*
X005121Y001946D01*
X005121Y002024D02*
X005431Y002024D01*
X005509Y002103D02*
X005251Y002103D01*
X005447Y002181D02*
X005588Y002181D01*
X005644Y002260D02*
X005666Y002260D01*
X006206Y001710D02*
X008115Y001710D01*
X008115Y001789D02*
X007549Y001789D01*
X007570Y001867D02*
X008114Y001867D01*
X008114Y001946D02*
X007570Y001946D01*
X007570Y002024D02*
X008114Y002024D01*
X008114Y002103D02*
X007570Y002103D01*
X007570Y002181D02*
X008114Y002181D01*
X008114Y002260D02*
X007570Y002260D01*
X007570Y002338D02*
X008114Y002338D01*
X008114Y002417D02*
X007570Y002417D01*
X007570Y002495D02*
X008114Y002495D01*
X008114Y002574D02*
X007570Y002574D01*
X007570Y002652D02*
X008114Y002652D01*
X008114Y002731D02*
X007570Y002731D01*
X007570Y002809D02*
X008114Y002809D01*
X008114Y002888D02*
X007570Y002888D01*
X007570Y002966D02*
X008114Y002966D01*
X008114Y003045D02*
X007570Y003045D01*
X007607Y003123D02*
X008114Y003123D01*
X008114Y003202D02*
X007685Y003202D01*
X007764Y003280D02*
X008114Y003280D01*
X008114Y003359D02*
X007842Y003359D01*
X007856Y003437D02*
X008114Y003437D01*
X008114Y003516D02*
X007856Y003516D01*
X007856Y003594D02*
X008114Y003594D01*
X008114Y003673D02*
X007856Y003673D01*
X007856Y003751D02*
X008114Y003751D01*
X008114Y003830D02*
X007856Y003830D01*
X007856Y003908D02*
X008113Y003908D01*
X008113Y003987D02*
X007856Y003987D01*
X007856Y004065D02*
X008113Y004065D01*
X008113Y004144D02*
X007856Y004144D01*
X007856Y004222D02*
X008113Y004222D01*
X008113Y004301D02*
X007856Y004301D01*
X007856Y004379D02*
X008113Y004379D01*
X008113Y004458D02*
X007856Y004458D01*
X007856Y004536D02*
X008113Y004536D01*
X008113Y004615D02*
X007856Y004615D01*
X007856Y004693D02*
X008113Y004693D01*
X008113Y004772D02*
X007856Y004772D01*
X007856Y004850D02*
X008113Y004850D01*
X008113Y004929D02*
X007856Y004929D01*
X007856Y005007D02*
X008113Y005007D01*
X008113Y005086D02*
X007856Y005086D01*
X007856Y005164D02*
X008113Y005164D01*
X008113Y005243D02*
X007856Y005243D01*
X007856Y005321D02*
X008113Y005321D01*
X008113Y005400D02*
X007856Y005400D01*
X007856Y005478D02*
X008113Y005478D01*
X008113Y005557D02*
X007856Y005557D01*
X007856Y005635D02*
X008113Y005635D01*
X008113Y005714D02*
X007856Y005714D01*
X007856Y005792D02*
X008113Y005792D01*
X008112Y005871D02*
X007856Y005871D01*
X007856Y005949D02*
X008112Y005949D01*
X008112Y006028D02*
X007856Y006028D01*
X007856Y006106D02*
X008112Y006106D01*
X008112Y006185D02*
X007792Y006185D01*
X007713Y006263D02*
X008112Y006263D01*
X008112Y006342D02*
X007635Y006342D01*
X007570Y006420D02*
X008112Y006420D01*
X008112Y006499D02*
X007570Y006499D01*
X007570Y006577D02*
X008112Y006577D01*
X008112Y006656D02*
X007570Y006656D01*
X007570Y006734D02*
X008112Y006734D01*
X008112Y006813D02*
X007570Y006813D01*
X007570Y006891D02*
X008112Y006891D01*
X008112Y006970D02*
X007570Y006970D01*
X007570Y007048D02*
X008112Y007048D01*
X008112Y007127D02*
X007570Y007127D01*
X007570Y007205D02*
X008112Y007205D01*
X008112Y007284D02*
X007570Y007284D01*
X007570Y007362D02*
X008112Y007362D01*
X008112Y007441D02*
X007570Y007441D01*
X007570Y007519D02*
X008112Y007519D01*
X008112Y007598D02*
X007570Y007598D01*
X007570Y007676D02*
X008112Y007676D01*
X008112Y007755D02*
X007570Y007755D01*
X007570Y007833D02*
X008112Y007833D01*
X008111Y007912D02*
X007570Y007912D01*
X007519Y007990D02*
X008111Y007990D01*
X008111Y008069D02*
X005036Y008069D01*
X005095Y007990D02*
X005373Y007990D01*
X005321Y007912D02*
X005121Y007912D01*
X005121Y007833D02*
X005321Y007833D01*
X005381Y007755D02*
X005239Y007755D01*
X005436Y007676D02*
X005461Y007676D01*
X004790Y008854D02*
X003332Y008854D01*
X003332Y008932D02*
X004731Y008932D01*
X004731Y009011D02*
X003320Y009011D01*
X003346Y008959D02*
X003385Y008959D01*
X003332Y008775D02*
X006926Y008775D01*
X006926Y008697D02*
X003332Y008697D01*
X003309Y008618D02*
X006952Y008618D01*
X006859Y008854D02*
X006389Y008854D01*
X006448Y008932D02*
X006774Y008932D01*
X006689Y009011D02*
X006448Y009011D01*
X006443Y009089D02*
X006611Y009089D01*
X006810Y009116D02*
X006534Y009392D01*
X006160Y009392D01*
X006365Y009168D02*
X006449Y009168D01*
X006387Y009639D02*
X006736Y009639D01*
X006728Y009660D02*
X006824Y009427D01*
X007002Y009248D01*
X007235Y009152D01*
X007487Y009152D01*
X007720Y009248D01*
X007898Y009427D01*
X007995Y009660D01*
X007995Y009912D01*
X007898Y010145D01*
X007720Y010323D01*
X007487Y010419D01*
X007235Y010419D01*
X007002Y010323D01*
X006824Y010145D01*
X006728Y009912D01*
X006728Y009660D01*
X006728Y009717D02*
X006448Y009717D01*
X006448Y009796D02*
X006728Y009796D01*
X006728Y009874D02*
X006446Y009874D01*
X006367Y009953D02*
X006744Y009953D01*
X006777Y010031D02*
X006320Y010031D01*
X006319Y010110D02*
X006809Y010110D01*
X006867Y010188D02*
X006240Y010188D01*
X006162Y010267D02*
X006946Y010267D01*
X007056Y010345D02*
X004075Y010345D01*
X003997Y010424D02*
X008110Y010424D01*
X008110Y010502D02*
X003979Y010502D01*
X003947Y010581D02*
X008110Y010581D01*
X008110Y010659D02*
X003874Y010659D01*
X003739Y010455D02*
X004015Y010179D01*
X006023Y010179D01*
X006160Y010042D01*
X006160Y009786D01*
X006706Y009560D02*
X006769Y009560D01*
X006757Y009482D02*
X006801Y009482D01*
X006774Y009403D02*
X006848Y009403D01*
X006828Y009325D02*
X006926Y009325D01*
X006907Y009246D02*
X007008Y009246D01*
X006991Y009168D02*
X007198Y009168D01*
X007325Y009011D02*
X008111Y009011D01*
X008111Y009089D02*
X007076Y009089D01*
X006810Y009116D02*
X007151Y008801D01*
X007377Y008775D02*
X008111Y008775D01*
X008111Y008697D02*
X007377Y008697D01*
X007351Y008618D02*
X008111Y008618D01*
X008111Y008540D02*
X003354Y008540D01*
X003386Y008461D02*
X008111Y008461D01*
X008111Y008383D02*
X003389Y008383D01*
X003365Y008304D02*
X008111Y008304D01*
X008111Y008226D02*
X003306Y008226D01*
X003149Y008408D02*
X003149Y008841D01*
X002912Y008959D02*
X003149Y009195D01*
X003149Y009549D01*
X003149Y010061D01*
X003227Y010140D01*
X003424Y010140D01*
X003309Y009928D02*
X003377Y009900D01*
X003472Y009900D01*
X003560Y009937D01*
X003628Y010004D01*
X003664Y010092D01*
X003664Y010188D01*
X003780Y010188D01*
X003753Y010215D02*
X003949Y010019D01*
X004342Y010019D01*
X004284Y009961D01*
X004247Y009873D01*
X004247Y009811D01*
X003791Y009355D01*
X003566Y009355D01*
X003543Y009378D01*
X003318Y009378D01*
X003332Y009391D01*
X003332Y009707D01*
X003309Y009730D01*
X003309Y009928D01*
X003309Y009874D02*
X004248Y009874D01*
X004231Y009796D02*
X003309Y009796D01*
X003322Y009717D02*
X004153Y009717D01*
X004074Y009639D02*
X003332Y009639D01*
X003332Y009560D02*
X003996Y009560D01*
X003917Y009482D02*
X003332Y009482D01*
X003332Y009403D02*
X003839Y009403D01*
X003857Y009195D02*
X004487Y009825D01*
X004979Y009825D01*
X005019Y009786D01*
X005155Y009560D02*
X004449Y009560D01*
X004370Y009482D02*
X005155Y009482D01*
X005155Y009403D02*
X004291Y009403D01*
X004213Y009325D02*
X005155Y009325D01*
X005155Y009246D02*
X004134Y009246D01*
X004056Y009168D02*
X004814Y009168D01*
X004736Y009089D02*
X003977Y009089D01*
X003857Y009195D02*
X003385Y009195D01*
X003149Y009510D02*
X003149Y009549D01*
X002912Y009549D02*
X002912Y010061D01*
X002558Y010416D01*
X002558Y010849D01*
X002125Y011282D01*
X002125Y012266D01*
X001984Y012465D02*
X001163Y012465D01*
X001163Y012543D02*
X002595Y012543D01*
X002595Y012465D02*
X002266Y012465D01*
X002261Y012469D02*
X002173Y012506D01*
X002077Y012506D01*
X001989Y012469D01*
X001922Y012402D01*
X001885Y012314D01*
X001885Y012218D01*
X001922Y012130D01*
X001965Y012087D01*
X001965Y011215D01*
X002144Y011037D01*
X002062Y011037D01*
X001991Y010966D01*
X001991Y010652D01*
X002008Y010635D01*
X001163Y010635D01*
X001163Y012821D01*
X001333Y012991D01*
X001645Y012991D01*
X001656Y013002D01*
X001700Y013002D01*
X001770Y013072D01*
X001770Y014451D01*
X001700Y014522D01*
X001693Y014522D01*
X001693Y014558D01*
X001716Y014558D01*
X001786Y014628D01*
X001786Y014943D01*
X001721Y015008D01*
X001721Y015218D01*
X002239Y015737D01*
X002239Y015722D01*
X002276Y015634D01*
X002343Y015566D01*
X002432Y015530D01*
X002527Y015530D01*
X002546Y015538D01*
X002515Y015463D01*
X002515Y015402D01*
X002441Y015328D01*
X002416Y015328D01*
X002346Y015258D01*
X002346Y014943D01*
X002416Y014873D01*
X002641Y014873D01*
X002641Y014715D01*
X002711Y014645D01*
X002723Y014645D01*
X002723Y014566D01*
X002762Y014527D01*
X002762Y014527D01*
X002850Y014439D01*
X003225Y014439D01*
X003225Y014432D01*
X003225Y014431D01*
X003225Y014325D01*
X003209Y014316D01*
X003205Y014316D01*
X003196Y014325D01*
X002860Y014325D01*
X002790Y014255D01*
X002790Y013466D01*
X002860Y013396D01*
X003136Y013396D01*
X003136Y012903D01*
X003116Y012953D01*
X003048Y013021D01*
X002960Y013057D01*
X002865Y013057D01*
X002776Y013021D01*
X002723Y012967D01*
X002059Y012967D01*
X002005Y013021D01*
X001917Y013057D01*
X001821Y013057D01*
X001733Y013021D01*
X001666Y012953D01*
X001629Y012865D01*
X001629Y012769D01*
X001666Y012681D01*
X001733Y012614D01*
X001821Y012577D01*
X001917Y012577D01*
X002005Y012614D01*
X002059Y012667D01*
X002595Y012667D01*
X002595Y011963D01*
X002689Y011870D01*
X002728Y011830D01*
X002733Y011830D01*
X002776Y011787D01*
X002819Y011769D01*
X002713Y011663D01*
X002713Y010920D01*
X002285Y011348D01*
X002285Y012087D01*
X002328Y012130D01*
X002365Y012218D01*
X002365Y012314D01*
X002328Y012402D01*
X002261Y012469D01*
X002335Y012386D02*
X002595Y012386D01*
X002595Y012308D02*
X002365Y012308D01*
X002365Y012229D02*
X002595Y012229D01*
X002595Y012151D02*
X002337Y012151D01*
X002285Y012072D02*
X002595Y012072D01*
X002595Y011994D02*
X002285Y011994D01*
X002285Y011915D02*
X002643Y011915D01*
X002722Y011837D02*
X002285Y011837D01*
X002285Y011758D02*
X002808Y011758D01*
X002730Y011680D02*
X002285Y011680D01*
X002285Y011601D02*
X002713Y011601D01*
X002713Y011523D02*
X002285Y011523D01*
X002285Y011444D02*
X002713Y011444D01*
X002713Y011366D02*
X002285Y011366D01*
X002346Y011287D02*
X002713Y011287D01*
X002713Y011209D02*
X002425Y011209D01*
X002503Y011130D02*
X002713Y011130D01*
X002713Y011052D02*
X002582Y011052D01*
X002660Y010973D02*
X002713Y010973D01*
X002873Y010573D02*
X002873Y011597D01*
X003109Y011833D01*
X002912Y011990D02*
X002794Y011990D01*
X002755Y012030D01*
X002755Y012660D01*
X002912Y012817D01*
X003055Y013014D02*
X003136Y013014D01*
X003136Y012936D02*
X003123Y012936D01*
X003136Y013093D02*
X001770Y013093D01*
X001770Y013171D02*
X003136Y013171D01*
X003136Y013250D02*
X001770Y013250D01*
X001770Y013328D02*
X003136Y013328D01*
X003028Y013368D02*
X002716Y013368D01*
X002676Y013408D01*
X002555Y013526D01*
X002280Y013762D01*
X002012Y013014D02*
X002770Y013014D01*
X002849Y013407D02*
X001770Y013407D01*
X001770Y013485D02*
X002790Y013485D01*
X002790Y013564D02*
X001770Y013564D01*
X001770Y013642D02*
X002790Y013642D01*
X002790Y013721D02*
X001770Y013721D01*
X001770Y013799D02*
X002790Y013799D01*
X002790Y013878D02*
X001770Y013878D01*
X001770Y013956D02*
X002790Y013956D01*
X002790Y014035D02*
X001770Y014035D01*
X001770Y014113D02*
X002790Y014113D01*
X002790Y014192D02*
X001770Y014192D01*
X001770Y014270D02*
X002805Y014270D01*
X002784Y014506D02*
X001716Y014506D01*
X001742Y014584D02*
X002723Y014584D01*
X002693Y014663D02*
X001786Y014663D01*
X001786Y014741D02*
X002641Y014741D01*
X002641Y014820D02*
X001786Y014820D01*
X001786Y014898D02*
X002391Y014898D01*
X002346Y014977D02*
X001753Y014977D01*
X001721Y015055D02*
X002346Y015055D01*
X002346Y015134D02*
X001721Y015134D01*
X001721Y015212D02*
X002346Y015212D01*
X002378Y015291D02*
X001793Y015291D01*
X001872Y015369D02*
X002482Y015369D01*
X002515Y015448D02*
X001950Y015448D01*
X002029Y015526D02*
X002541Y015526D01*
X002479Y015770D02*
X002479Y015888D01*
X002558Y015967D01*
X003159Y015967D01*
X003161Y015964D01*
X003044Y015964D02*
X003278Y015964D01*
X003439Y015997D02*
X005246Y015997D01*
X005246Y016031D02*
X005246Y015898D01*
X005258Y015886D01*
X005246Y015873D01*
X005246Y015741D01*
X005258Y015728D01*
X005246Y015716D01*
X005246Y015583D01*
X005340Y015490D01*
X005707Y015490D01*
X005788Y015571D01*
X006049Y015571D01*
X006049Y015339D01*
X005882Y015172D01*
X005368Y015172D01*
X005368Y015361D01*
X005275Y015455D01*
X005142Y015455D01*
X005130Y015442D01*
X005117Y015455D01*
X004985Y015455D01*
X004972Y015442D01*
X004960Y015455D01*
X004827Y015455D01*
X004815Y015442D01*
X004802Y015455D01*
X004670Y015455D01*
X004657Y015442D01*
X004645Y015455D01*
X004512Y015455D01*
X004500Y015442D01*
X004487Y015455D01*
X004355Y015455D01*
X004261Y015361D01*
X004261Y014993D01*
X004355Y014900D01*
X004487Y014900D01*
X004500Y014912D01*
X004512Y014900D01*
X004534Y014900D01*
X004523Y014873D01*
X004523Y014777D01*
X004544Y014727D01*
X004456Y014727D01*
X004158Y015011D01*
X004115Y015054D01*
X004113Y015054D01*
X004112Y015055D01*
X004261Y015055D01*
X004261Y015134D02*
X003951Y015134D01*
X003949Y015060D02*
X003949Y015294D01*
X003951Y015291D02*
X004261Y015291D01*
X004269Y015369D02*
X003943Y015369D01*
X003951Y015361D02*
X003857Y015455D01*
X003725Y015455D01*
X003712Y015442D01*
X003700Y015455D01*
X003567Y015455D01*
X003474Y015361D01*
X003474Y014993D01*
X003510Y014957D01*
X003510Y014881D01*
X003575Y014816D01*
X003295Y014816D01*
X003225Y014746D01*
X003225Y014739D01*
X003092Y014739D01*
X003092Y014989D01*
X003211Y015108D01*
X003299Y015196D01*
X003299Y015332D01*
X003345Y015332D01*
X003439Y015426D01*
X003439Y015558D01*
X003426Y015571D01*
X003439Y015583D01*
X003439Y015716D01*
X003426Y015728D01*
X003439Y015741D01*
X003439Y015873D01*
X003426Y015886D01*
X003439Y015898D01*
X003439Y016031D01*
X003426Y016043D01*
X003439Y016056D01*
X003439Y016188D01*
X003426Y016201D01*
X003439Y016213D01*
X003439Y016346D01*
X003426Y016358D01*
X003439Y016371D01*
X003439Y016503D01*
X003426Y016516D01*
X003439Y016528D01*
X003439Y016661D01*
X003426Y016673D01*
X003439Y016686D01*
X003439Y016818D01*
X003426Y016831D01*
X003439Y016843D01*
X003439Y016976D01*
X003426Y016988D01*
X003439Y017001D01*
X003439Y017133D01*
X003426Y017146D01*
X003439Y017158D01*
X003439Y017262D01*
X003542Y017262D01*
X003634Y017353D01*
X003725Y017262D01*
X003857Y017262D01*
X003870Y017274D01*
X003882Y017262D01*
X004015Y017262D01*
X004027Y017274D01*
X004040Y017262D01*
X004172Y017262D01*
X004185Y017274D01*
X004197Y017262D01*
X004330Y017262D01*
X004342Y017274D01*
X004355Y017262D01*
X004487Y017262D01*
X004500Y017274D01*
X004512Y017262D01*
X004645Y017262D01*
X004657Y017274D01*
X004670Y017262D01*
X004802Y017262D01*
X004815Y017274D01*
X004827Y017262D01*
X004960Y017262D01*
X004972Y017274D01*
X004985Y017262D01*
X005117Y017262D01*
X005130Y017274D01*
X005142Y017262D01*
X005246Y017262D01*
X005246Y017158D01*
X005258Y017146D01*
X005246Y017133D01*
X005246Y017001D01*
X005340Y016907D01*
X005772Y016907D01*
X005774Y016909D01*
X005868Y017003D01*
X006123Y017003D01*
X006193Y017073D01*
X006193Y017384D01*
X006123Y017454D01*
X005809Y017454D01*
X005790Y017435D01*
X005790Y017511D01*
X005754Y017599D01*
X005735Y017618D01*
X006010Y017618D01*
X006050Y017657D01*
X006143Y017751D01*
X006143Y017794D01*
X006209Y017794D01*
X006270Y017855D01*
X006520Y017855D01*
X006591Y017925D01*
X006591Y018235D01*
X006520Y018306D01*
X006279Y018306D01*
X006279Y018318D01*
X006231Y018366D01*
X006279Y018415D01*
X006279Y018869D01*
X006209Y018939D01*
X005870Y018939D01*
X005872Y018941D01*
X005908Y019029D01*
X005908Y019125D01*
X005872Y019213D01*
X005811Y019274D01*
X005872Y019335D01*
X005908Y019423D01*
X005908Y019518D01*
X005881Y019585D01*
X006654Y019585D01*
X006667Y017113D01*
X006604Y017175D01*
X006290Y017175D01*
X006220Y017105D01*
X006220Y016795D01*
X006290Y016724D01*
X006297Y016724D01*
X006297Y016686D01*
X006254Y016686D01*
X006154Y016586D01*
X006154Y016581D01*
X006072Y016581D01*
X006065Y016573D01*
X006065Y016682D01*
X005969Y016777D01*
X005834Y016777D01*
X005811Y016754D01*
X005340Y016754D01*
X005246Y016661D01*
X005246Y016528D01*
X005258Y016516D01*
X005246Y016503D01*
X005246Y016371D01*
X005258Y016358D01*
X005246Y016346D01*
X005246Y016213D01*
X005258Y016201D01*
X005246Y016188D01*
X005246Y016056D01*
X005258Y016043D01*
X005246Y016031D01*
X005246Y016076D02*
X003439Y016076D01*
X003439Y016154D02*
X005246Y016154D01*
X005246Y016233D02*
X003439Y016233D01*
X003439Y016311D02*
X005246Y016311D01*
X005246Y016390D02*
X003439Y016390D01*
X003439Y016468D02*
X005246Y016468D01*
X005246Y016547D02*
X003439Y016547D01*
X003439Y016625D02*
X005246Y016625D01*
X005289Y016704D02*
X003439Y016704D01*
X003439Y016782D02*
X006232Y016782D01*
X006220Y016861D02*
X003439Y016861D01*
X003439Y016939D02*
X005308Y016939D01*
X005246Y017018D02*
X003439Y017018D01*
X003439Y017096D02*
X005246Y017096D01*
X005246Y017175D02*
X003439Y017175D01*
X003439Y017253D02*
X005246Y017253D01*
X005208Y017422D02*
X005208Y017656D01*
X005208Y017751D02*
X005208Y017539D01*
X005051Y017422D02*
X005051Y017656D01*
X005208Y017751D02*
X005235Y017778D01*
X005944Y017778D01*
X005983Y017817D01*
X005983Y018031D01*
X006002Y018091D01*
X006145Y018086D01*
X006363Y018080D01*
X006245Y018352D02*
X006660Y018352D01*
X006661Y018274D02*
X006552Y018274D01*
X006591Y018195D02*
X006661Y018195D01*
X006661Y018117D02*
X006591Y018117D01*
X006591Y018038D02*
X006662Y018038D01*
X006662Y017960D02*
X006591Y017960D01*
X006547Y017881D02*
X006663Y017881D01*
X006663Y017803D02*
X006218Y017803D01*
X006116Y017724D02*
X006663Y017724D01*
X006664Y017646D02*
X006038Y017646D01*
X006167Y017410D02*
X006665Y017410D01*
X006665Y017332D02*
X006193Y017332D01*
X006193Y017253D02*
X006666Y017253D01*
X006666Y017175D02*
X006605Y017175D01*
X006665Y017489D02*
X005790Y017489D01*
X005767Y017567D02*
X006664Y017567D01*
X006289Y017175D02*
X006193Y017175D01*
X006193Y017096D02*
X006220Y017096D01*
X006220Y017018D02*
X006138Y017018D01*
X006139Y016909D02*
X006140Y016909D01*
X006140Y016614D01*
X006193Y016625D02*
X006065Y016625D01*
X006043Y016704D02*
X006297Y016704D01*
X006220Y016939D02*
X005804Y016939D01*
X005705Y017067D02*
X005708Y017069D01*
X005708Y017189D01*
X005747Y017228D01*
X005527Y017228D01*
X005523Y017224D01*
X005406Y017224D02*
X005640Y017224D01*
X005550Y017251D02*
X005550Y017463D01*
X005550Y017251D02*
X005523Y017224D01*
X005406Y017067D02*
X005640Y017067D01*
X005705Y017067D02*
X005523Y017067D01*
X005406Y016909D02*
X005640Y016909D01*
X005523Y016909D02*
X005039Y016909D01*
X004943Y016956D01*
X005197Y016752D01*
X005523Y016752D01*
X005406Y016752D02*
X005640Y016752D01*
X005523Y016909D02*
X006139Y016909D01*
X005966Y017228D02*
X005747Y017228D01*
X005901Y016614D02*
X005882Y016594D01*
X005523Y016594D01*
X005406Y016594D02*
X005640Y016594D01*
X005640Y016437D02*
X005406Y016437D01*
X005523Y016437D02*
X005882Y016437D01*
X005901Y016417D01*
X005779Y016279D02*
X005959Y016099D01*
X006137Y016099D01*
X006137Y016414D01*
X006140Y016417D01*
X006297Y016343D02*
X006299Y016346D01*
X006313Y016346D01*
X006330Y016306D01*
X006434Y016202D01*
X006570Y016146D01*
X006672Y016146D01*
X006672Y016030D01*
X006585Y016030D01*
X006497Y015993D01*
X006429Y015926D01*
X006393Y015837D01*
X006393Y015742D01*
X006420Y015676D01*
X006130Y015676D01*
X006130Y015872D01*
X006292Y015872D01*
X006362Y015942D01*
X006362Y016257D01*
X006297Y016322D01*
X006297Y016343D01*
X006308Y016311D02*
X006328Y016311D01*
X006362Y016233D02*
X006403Y016233D01*
X006362Y016154D02*
X006550Y016154D01*
X006478Y016099D02*
X006277Y015819D01*
X006277Y015791D01*
X006393Y015762D02*
X006130Y015762D01*
X006130Y015840D02*
X006394Y015840D01*
X006427Y015919D02*
X006339Y015919D01*
X006362Y015997D02*
X006507Y015997D01*
X006362Y016076D02*
X006672Y016076D01*
X006759Y015997D02*
X008107Y015997D01*
X008107Y015919D02*
X006839Y015919D01*
X006872Y015840D02*
X008107Y015840D01*
X008108Y015762D02*
X007857Y015762D01*
X007936Y015683D02*
X008108Y015683D01*
X008108Y015605D02*
X008014Y015605D01*
X008062Y015526D02*
X008108Y015526D01*
X008108Y015448D02*
X008062Y015448D01*
X008062Y015369D02*
X008108Y015369D01*
X008108Y015291D02*
X008062Y015291D01*
X008062Y015212D02*
X008108Y015212D01*
X008108Y015134D02*
X008062Y015134D01*
X008062Y015055D02*
X008108Y015055D01*
X008108Y014977D02*
X008062Y014977D01*
X008062Y014898D02*
X008108Y014898D01*
X008108Y014820D02*
X008062Y014820D01*
X008062Y014741D02*
X008108Y014741D01*
X008108Y014663D02*
X008062Y014663D01*
X008062Y014584D02*
X008108Y014584D01*
X008108Y014506D02*
X008062Y014506D01*
X008062Y014427D02*
X008108Y014427D01*
X008108Y014349D02*
X008062Y014349D01*
X008062Y014270D02*
X008108Y014270D01*
X008108Y014192D02*
X008062Y014192D01*
X008062Y014113D02*
X008108Y014113D01*
X008108Y014035D02*
X008062Y014035D01*
X008062Y013956D02*
X008108Y013956D01*
X008108Y013878D02*
X008062Y013878D01*
X008062Y013799D02*
X008109Y013799D01*
X008109Y013721D02*
X008062Y013721D01*
X008062Y013642D02*
X008109Y013642D01*
X008109Y013564D02*
X008062Y013564D01*
X008062Y013485D02*
X008109Y013485D01*
X008109Y013407D02*
X008062Y013407D01*
X008062Y013328D02*
X008109Y013328D01*
X008109Y013250D02*
X008062Y013250D01*
X008062Y013171D02*
X008109Y013171D01*
X008109Y013093D02*
X008062Y013093D01*
X008062Y013014D02*
X008109Y013014D01*
X008109Y012936D02*
X008062Y012936D01*
X008062Y012857D02*
X008109Y012857D01*
X008109Y012779D02*
X008062Y012779D01*
X008062Y012700D02*
X008109Y012700D01*
X008109Y012622D02*
X008062Y012622D01*
X008062Y012543D02*
X008109Y012543D01*
X008109Y012465D02*
X008062Y012465D01*
X008062Y012386D02*
X008109Y012386D01*
X008109Y012308D02*
X008062Y012308D01*
X008062Y012229D02*
X008109Y012229D01*
X008109Y012151D02*
X008062Y012151D01*
X008062Y012072D02*
X008109Y012072D01*
X008109Y011994D02*
X008062Y011994D01*
X008062Y011915D02*
X008109Y011915D01*
X008110Y011837D02*
X008062Y011837D01*
X008062Y011758D02*
X008110Y011758D01*
X008110Y011680D02*
X008062Y011680D01*
X008062Y011601D02*
X008110Y011601D01*
X008110Y011523D02*
X008062Y011523D01*
X008062Y011444D02*
X008110Y011444D01*
X008110Y011366D02*
X008062Y011366D01*
X008062Y011287D02*
X008110Y011287D01*
X008110Y011209D02*
X008062Y011209D01*
X008067Y011130D02*
X008110Y011130D01*
X008110Y011052D02*
X008052Y011052D01*
X008110Y010973D02*
X007956Y010973D01*
X007838Y010895D02*
X008110Y010895D01*
X008110Y010816D02*
X003309Y010816D01*
X003309Y010738D02*
X008110Y010738D01*
X008110Y010345D02*
X007667Y010345D01*
X007777Y010267D02*
X008110Y010267D01*
X008110Y010188D02*
X007855Y010188D01*
X007913Y010110D02*
X008110Y010110D01*
X008110Y010031D02*
X007946Y010031D01*
X007978Y009953D02*
X008110Y009953D01*
X008110Y009874D02*
X007995Y009874D01*
X007995Y009796D02*
X008111Y009796D01*
X008111Y009717D02*
X007995Y009717D01*
X007986Y009639D02*
X008111Y009639D01*
X008111Y009560D02*
X007954Y009560D01*
X007921Y009482D02*
X008111Y009482D01*
X008111Y009403D02*
X007875Y009403D01*
X007796Y009325D02*
X008111Y009325D01*
X008111Y009246D02*
X007714Y009246D01*
X007525Y009168D02*
X008111Y009168D01*
X008111Y008932D02*
X007377Y008932D01*
X007377Y008854D02*
X008111Y008854D01*
X008111Y008147D02*
X002305Y008147D01*
X002305Y008069D02*
X003781Y008069D01*
X003722Y007990D02*
X003424Y007990D01*
X003476Y007912D02*
X003696Y007912D01*
X003696Y007833D02*
X003476Y007833D01*
X003416Y007755D02*
X003579Y007755D01*
X003383Y007676D02*
X003339Y007676D01*
X002991Y008226D02*
X002305Y008226D01*
X002305Y008304D02*
X002932Y008304D01*
X002909Y008383D02*
X002305Y008383D01*
X002305Y008461D02*
X002911Y008461D01*
X002943Y008540D02*
X002305Y008540D01*
X002305Y008618D02*
X002794Y008618D01*
X002729Y008697D02*
X002305Y008697D01*
X002305Y008775D02*
X002729Y008775D01*
X002676Y008959D02*
X002479Y008959D01*
X002401Y009038D01*
X002401Y010625D01*
X002217Y010809D01*
X002129Y011052D02*
X001163Y011052D01*
X001163Y011130D02*
X002050Y011130D01*
X001972Y011209D02*
X001163Y011209D01*
X001163Y011287D02*
X001965Y011287D01*
X001965Y011366D02*
X001163Y011366D01*
X001163Y011444D02*
X001965Y011444D01*
X001965Y011523D02*
X001163Y011523D01*
X001163Y011601D02*
X001965Y011601D01*
X001965Y011680D02*
X001163Y011680D01*
X001163Y011758D02*
X001965Y011758D01*
X001965Y011837D02*
X001163Y011837D01*
X001163Y011915D02*
X001965Y011915D01*
X001965Y011994D02*
X001163Y011994D01*
X001163Y012072D02*
X001965Y012072D01*
X001913Y012151D02*
X001163Y012151D01*
X001163Y012229D02*
X001885Y012229D01*
X001885Y012308D02*
X001163Y012308D01*
X001163Y012386D02*
X001915Y012386D01*
X002013Y012622D02*
X002595Y012622D01*
X003028Y013565D02*
X003028Y013565D01*
X003028Y014156D02*
X003254Y014156D01*
X003451Y014274D01*
X003503Y014287D01*
X003503Y013959D01*
X003451Y014274D02*
X003451Y014589D01*
X003572Y014820D02*
X003092Y014820D01*
X003092Y014898D02*
X003510Y014898D01*
X003490Y014977D02*
X003092Y014977D01*
X003158Y015055D02*
X003474Y015055D01*
X003474Y015134D02*
X003236Y015134D01*
X003299Y015212D02*
X003474Y015212D01*
X003476Y015294D02*
X003476Y015060D01*
X003476Y015177D02*
X003476Y015439D01*
X003743Y015756D01*
X003718Y015448D02*
X003707Y015448D01*
X003634Y015294D02*
X003634Y015060D01*
X003560Y015448D02*
X003439Y015448D01*
X003439Y015526D02*
X005303Y015526D01*
X005282Y015448D02*
X006049Y015448D01*
X006049Y015526D02*
X005744Y015526D01*
X005903Y015455D02*
X005694Y015286D01*
X005632Y015246D01*
X005640Y015492D02*
X005406Y015492D01*
X005360Y015369D02*
X006049Y015369D01*
X006000Y015291D02*
X005368Y015291D01*
X005368Y015212D02*
X005922Y015212D01*
X005903Y015455D02*
X005903Y015457D01*
X006130Y015683D02*
X006417Y015683D01*
X006504Y015583D02*
X006504Y015295D01*
X006434Y015225D01*
X006359Y015225D01*
X006094Y014960D01*
X006006Y014872D01*
X005963Y014872D01*
X005968Y014868D01*
X006129Y014868D01*
X006129Y014993D01*
X006200Y015063D01*
X006510Y015063D01*
X006580Y014993D01*
X006580Y014678D01*
X006510Y014608D01*
X006458Y014608D01*
X006458Y014447D01*
X006467Y014448D01*
X006487Y014467D01*
X006852Y014467D01*
X006922Y014397D01*
X006922Y014200D01*
X006922Y014002D01*
X006852Y013932D01*
X006487Y013932D01*
X006483Y013936D01*
X006479Y013936D01*
X006418Y013887D01*
X006380Y013848D01*
X006371Y013848D01*
X006364Y013843D01*
X006310Y013848D01*
X005484Y013848D01*
X005484Y013621D01*
X005396Y013533D01*
X005152Y013290D01*
X005346Y013096D01*
X005346Y013013D01*
X005439Y013106D01*
X005561Y013156D01*
X005493Y013185D01*
X005426Y013252D01*
X005389Y013340D01*
X005389Y013436D01*
X005426Y013524D01*
X005493Y013591D01*
X005581Y013628D01*
X005645Y013628D01*
X005645Y013633D01*
X005681Y013721D01*
X005749Y013788D01*
X005837Y013825D01*
X005933Y013825D01*
X006021Y013788D01*
X006074Y013735D01*
X007294Y013735D01*
X007270Y013759D01*
X007236Y013793D01*
X007236Y013928D01*
X007203Y013928D01*
X007133Y013998D01*
X007133Y014196D01*
X007203Y014267D01*
X007568Y014267D01*
X007639Y014196D01*
X007639Y014112D01*
X007762Y014112D01*
X007762Y014829D01*
X007589Y014829D01*
X007589Y014680D01*
X007571Y014662D01*
X007639Y014594D01*
X007639Y014396D01*
X007568Y014326D01*
X007203Y014326D01*
X007133Y014396D01*
X007133Y014594D01*
X007179Y014640D01*
X007138Y014680D01*
X007138Y014994D01*
X007154Y015010D01*
X007063Y015010D01*
X006975Y015098D01*
X006581Y015491D01*
X006581Y015551D01*
X006504Y015583D01*
X006504Y015526D02*
X006581Y015526D01*
X006625Y015448D02*
X006504Y015448D01*
X006504Y015369D02*
X006704Y015369D01*
X006782Y015291D02*
X006500Y015291D01*
X006518Y015055D02*
X007018Y015055D01*
X006939Y015134D02*
X006268Y015134D01*
X006191Y015055D02*
X006189Y015055D01*
X006129Y014977D02*
X006111Y014977D01*
X006129Y014898D02*
X006032Y014898D01*
X005949Y014872D02*
X005907Y014868D01*
X005853Y014868D01*
X005847Y014861D01*
X005838Y014860D01*
X005804Y014818D01*
X005765Y014780D01*
X005765Y014771D01*
X005676Y014660D01*
X005661Y014660D01*
X005607Y014714D01*
X005519Y014750D01*
X005424Y014750D01*
X005346Y014718D01*
X005346Y014872D01*
X005949Y014872D01*
X005805Y014820D02*
X005346Y014820D01*
X005346Y014741D02*
X005402Y014741D01*
X005541Y014741D02*
X005741Y014741D01*
X005678Y014663D02*
X005658Y014663D01*
X005629Y014234D02*
X006298Y014234D01*
X006298Y014715D01*
X006355Y014836D01*
X006458Y014584D02*
X007133Y014584D01*
X007133Y014506D02*
X006458Y014506D01*
X006564Y014663D02*
X007156Y014663D01*
X007138Y014741D02*
X006580Y014741D01*
X006580Y014820D02*
X007138Y014820D01*
X007138Y014898D02*
X006580Y014898D01*
X006580Y014977D02*
X007138Y014977D01*
X007083Y015448D02*
X007049Y015448D01*
X007083Y015526D02*
X006971Y015526D01*
X006892Y015605D02*
X007135Y015605D01*
X006861Y015212D02*
X006346Y015212D01*
X006696Y014836D02*
X006669Y014685D01*
X006669Y014671D01*
X006669Y014495D01*
X006968Y014490D01*
X006968Y014475D01*
X006949Y014475D01*
X006892Y014427D02*
X007133Y014427D01*
X007181Y014349D02*
X006922Y014349D01*
X006922Y014270D02*
X007762Y014270D01*
X007699Y014278D02*
X007696Y014228D01*
X007676Y014714D01*
X007762Y014741D02*
X007589Y014741D01*
X007589Y014820D02*
X007762Y014820D01*
X007762Y014663D02*
X007572Y014663D01*
X007639Y014584D02*
X007762Y014584D01*
X007762Y014506D02*
X007639Y014506D01*
X007639Y014427D02*
X007762Y014427D01*
X007762Y014349D02*
X007591Y014349D01*
X007639Y014192D02*
X007762Y014192D01*
X007762Y014113D02*
X007639Y014113D01*
X007699Y014278D02*
X007386Y014298D01*
X007386Y014495D02*
X007386Y014697D01*
X007364Y014837D01*
X007676Y015055D02*
X007676Y015271D01*
X007650Y015396D01*
X007133Y014192D02*
X006922Y014192D01*
X006922Y014113D02*
X007133Y014113D01*
X007133Y014035D02*
X006922Y014035D01*
X006876Y013956D02*
X007175Y013956D01*
X007236Y013878D02*
X006409Y013878D01*
X006298Y014234D02*
X006294Y014278D01*
X006669Y014298D01*
X006669Y014671D02*
X006696Y014836D01*
X007236Y013799D02*
X005995Y013799D01*
X005775Y013799D02*
X005484Y013799D01*
X005484Y013721D02*
X005681Y013721D01*
X005649Y013642D02*
X005484Y013642D01*
X005465Y013564D02*
X005426Y013564D01*
X005409Y013485D02*
X005348Y013485D01*
X005389Y013407D02*
X005269Y013407D01*
X005191Y013328D02*
X005394Y013328D01*
X005428Y013250D02*
X005192Y013250D01*
X005271Y013171D02*
X005526Y013171D01*
X005425Y013093D02*
X005346Y013093D01*
X005346Y013014D02*
X005347Y013014D01*
X005046Y012936D02*
X004401Y012936D01*
X004401Y013014D02*
X005003Y013014D01*
X004925Y013093D02*
X004401Y013093D01*
X004401Y013171D02*
X004542Y013171D01*
X004474Y013250D02*
X004457Y013250D01*
X004401Y012857D02*
X005046Y012857D01*
X005046Y012779D02*
X004401Y012779D01*
X004401Y012700D02*
X005046Y012700D01*
X005046Y012622D02*
X004401Y012622D01*
X004401Y012543D02*
X005046Y012543D01*
X005046Y012465D02*
X004401Y012465D01*
X004401Y012386D02*
X005046Y012386D01*
X005046Y012308D02*
X004401Y012308D01*
X004401Y012229D02*
X005046Y012229D01*
X005060Y012151D02*
X004401Y012151D01*
X004401Y012072D02*
X005137Y012072D01*
X005213Y011994D02*
X004401Y011994D01*
X004401Y011915D02*
X005289Y011915D01*
X005366Y011837D02*
X004401Y011837D01*
X004401Y011758D02*
X005442Y011758D01*
X005518Y011680D02*
X004401Y011680D01*
X004401Y011601D02*
X005594Y011601D01*
X005671Y011523D02*
X004350Y011523D01*
X004214Y011444D02*
X005747Y011444D01*
X005825Y011366D02*
X003846Y011366D01*
X003861Y011287D02*
X005879Y011287D01*
X005890Y011209D02*
X003851Y011209D01*
X003809Y011130D02*
X005931Y011130D01*
X006048Y011052D02*
X003692Y011052D01*
X003621Y011282D02*
X003660Y011321D01*
X003660Y011518D01*
X003647Y011597D01*
X003433Y011130D02*
X003309Y011130D01*
X003309Y011052D02*
X003550Y011052D01*
X003392Y011209D02*
X003309Y011209D01*
X003309Y011287D02*
X003381Y011287D01*
X003149Y011400D02*
X003346Y011597D01*
X003149Y011400D02*
X003149Y010061D01*
X003309Y010424D02*
X003499Y010424D01*
X003499Y010502D02*
X003309Y010502D01*
X003309Y010581D02*
X003531Y010581D01*
X003605Y010659D02*
X003309Y010659D01*
X003309Y010895D02*
X007784Y010895D01*
X007749Y011196D02*
X007062Y011196D01*
X007062Y011439D01*
X007006Y011495D01*
X007006Y011782D01*
X006936Y011852D01*
X006718Y011852D01*
X006648Y011782D01*
X006648Y011476D01*
X006611Y011439D01*
X006611Y011432D01*
X006308Y011432D01*
X006255Y011485D01*
X006167Y011522D01*
X006093Y011522D01*
X005968Y011647D01*
X005346Y012287D01*
X005346Y012452D01*
X005439Y012360D01*
X005600Y012293D01*
X005775Y012293D01*
X005937Y012360D01*
X006061Y012484D01*
X006128Y012645D01*
X006128Y012820D01*
X006061Y012982D01*
X005937Y013106D01*
X005836Y013148D01*
X006721Y013148D01*
X006789Y013080D01*
X007099Y013080D01*
X007115Y013095D01*
X007130Y013080D01*
X007440Y013080D01*
X007504Y013144D01*
X007528Y013148D01*
X007583Y013148D01*
X007592Y013157D01*
X007605Y013159D01*
X007638Y013202D01*
X007677Y013241D01*
X007677Y013254D01*
X007762Y013368D01*
X007762Y011205D01*
X007749Y011196D01*
X007762Y011209D02*
X007062Y011209D01*
X007062Y011287D02*
X007762Y011287D01*
X007762Y011366D02*
X007062Y011366D01*
X007057Y011444D02*
X007762Y011444D01*
X007762Y011523D02*
X007006Y011523D01*
X007006Y011601D02*
X007762Y011601D01*
X007762Y011680D02*
X007006Y011680D01*
X007006Y011758D02*
X007762Y011758D01*
X007762Y011837D02*
X006952Y011837D01*
X006936Y012163D02*
X007006Y012234D01*
X007006Y012526D01*
X007062Y012581D01*
X007062Y012896D01*
X006992Y012966D01*
X006681Y012966D01*
X006611Y012896D01*
X006611Y012608D01*
X006592Y012627D01*
X006503Y012663D01*
X006408Y012663D01*
X006320Y012627D01*
X006252Y012559D01*
X006216Y012471D01*
X006216Y012376D01*
X006252Y012288D01*
X006320Y012220D01*
X006408Y012183D01*
X006503Y012183D01*
X006592Y012220D01*
X006635Y012263D01*
X006648Y012263D01*
X006648Y012234D01*
X006718Y012163D01*
X006936Y012163D01*
X007001Y012229D02*
X007762Y012229D01*
X007762Y012151D02*
X005479Y012151D01*
X005403Y012229D02*
X006311Y012229D01*
X006244Y012308D02*
X005811Y012308D01*
X005708Y011915D02*
X007762Y011915D01*
X007762Y011994D02*
X005631Y011994D01*
X005555Y012072D02*
X007762Y012072D01*
X007762Y012308D02*
X007006Y012308D01*
X007006Y012386D02*
X007762Y012386D01*
X007762Y012465D02*
X007006Y012465D01*
X007024Y012543D02*
X007762Y012543D01*
X007762Y012622D02*
X007062Y012622D01*
X007062Y012700D02*
X007762Y012700D01*
X007762Y012779D02*
X007062Y012779D01*
X007062Y012857D02*
X007762Y012857D01*
X007762Y012936D02*
X007022Y012936D01*
X007112Y013093D02*
X007117Y013093D01*
X007285Y013308D02*
X007283Y013463D01*
X007285Y013308D02*
X007517Y013308D01*
X007696Y013546D01*
X007696Y013887D01*
X007733Y013328D02*
X007762Y013328D01*
X007762Y013250D02*
X007677Y013250D01*
X007615Y013171D02*
X007762Y013171D01*
X007762Y013093D02*
X007453Y013093D01*
X007177Y012738D02*
X007339Y012577D01*
X007339Y012421D01*
X006944Y013308D02*
X005729Y013308D01*
X005629Y013388D01*
X005950Y013093D02*
X006776Y013093D01*
X006651Y012936D02*
X006080Y012936D01*
X006113Y012857D02*
X006611Y012857D01*
X006611Y012779D02*
X006128Y012779D01*
X006128Y012700D02*
X006611Y012700D01*
X006611Y012622D02*
X006597Y012622D01*
X006456Y012423D02*
X006825Y012423D01*
X006827Y012421D01*
X006836Y012431D01*
X006836Y012738D01*
X006653Y012229D02*
X006601Y012229D01*
X006703Y011837D02*
X005784Y011837D01*
X005860Y011758D02*
X006648Y011758D01*
X006648Y011680D02*
X005936Y011680D01*
X006014Y011601D02*
X006648Y011601D01*
X006648Y011523D02*
X006092Y011523D01*
X006296Y011444D02*
X006616Y011444D01*
X006827Y011291D02*
X006836Y011282D01*
X006677Y011052D02*
X006190Y011052D01*
X006307Y011130D02*
X006611Y011130D01*
X006710Y010973D02*
X003309Y010973D01*
X003645Y010234D02*
X003691Y010215D01*
X003753Y010215D01*
X003664Y010188D02*
X003645Y010234D01*
X003664Y010110D02*
X003858Y010110D01*
X003937Y010031D02*
X003639Y010031D01*
X003576Y009953D02*
X004280Y009953D01*
X004640Y009639D02*
X004792Y009639D01*
X005346Y012308D02*
X005565Y012308D01*
X005412Y012386D02*
X005346Y012386D01*
X004846Y013171D02*
X004826Y013171D01*
X004802Y014195D02*
X004798Y014506D01*
X004818Y014500D01*
X004763Y014825D02*
X004723Y014864D01*
X004723Y015164D01*
X004736Y015177D01*
X004736Y015060D02*
X004736Y015294D01*
X004663Y015448D02*
X004652Y015448D01*
X004579Y015294D02*
X004579Y015060D01*
X004533Y014898D02*
X004276Y014898D01*
X004264Y014931D02*
X004264Y015177D01*
X004264Y015060D02*
X004264Y015294D01*
X004261Y015212D02*
X003951Y015212D01*
X003951Y015361D02*
X003951Y015061D01*
X003959Y015054D01*
X004051Y015054D01*
X004112Y015055D01*
X004105Y015055D02*
X003958Y015055D01*
X003864Y015448D02*
X004348Y015448D01*
X004421Y015294D02*
X004421Y015060D01*
X004278Y014977D02*
X004194Y014977D01*
X004264Y014931D02*
X004448Y014825D01*
X004523Y014820D02*
X004359Y014820D01*
X004441Y014741D02*
X004538Y014741D01*
X004505Y015448D02*
X004494Y015448D01*
X004809Y015448D02*
X004820Y015448D01*
X004894Y015294D02*
X004894Y015060D01*
X004967Y015448D02*
X004978Y015448D01*
X005124Y015448D02*
X005135Y015448D01*
X005246Y015605D02*
X003439Y015605D01*
X003439Y015683D02*
X005246Y015683D01*
X005246Y015762D02*
X003439Y015762D01*
X003439Y015840D02*
X005246Y015840D01*
X005246Y015919D02*
X003439Y015919D01*
X003482Y015369D02*
X003382Y015369D01*
X003299Y015291D02*
X003474Y015291D01*
X003225Y014741D02*
X003092Y014741D01*
X003225Y014431D02*
X003225Y014431D01*
X003225Y014427D02*
X001770Y014427D01*
X001770Y014349D02*
X003225Y014349D01*
X002571Y015232D02*
X002755Y015416D01*
X002755Y015652D01*
X002952Y015809D01*
X003159Y015809D01*
X003161Y015807D01*
X003044Y015807D02*
X003278Y015807D01*
X003278Y015650D02*
X003044Y015650D01*
X003044Y015492D02*
X003278Y015492D01*
X003278Y016122D02*
X003044Y016122D01*
X003159Y016124D02*
X003161Y016122D01*
X003159Y016124D02*
X002401Y016124D01*
X001561Y015284D01*
X001561Y014786D01*
X001534Y014825D01*
X001534Y014746D01*
X001532Y014352D01*
X001532Y014156D02*
X001416Y014156D01*
X001180Y014326D01*
X001104Y014552D02*
X001104Y015074D01*
X001286Y015256D01*
X001297Y015267D01*
X001388Y015267D01*
X001401Y015280D01*
X001401Y015008D01*
X001335Y014943D01*
X001335Y014628D01*
X001373Y014590D01*
X001373Y014522D01*
X001367Y014522D01*
X001337Y014552D01*
X001104Y014552D01*
X001104Y014584D02*
X001373Y014584D01*
X001335Y014663D02*
X001104Y014663D01*
X001104Y014741D02*
X001335Y014741D01*
X001335Y014820D02*
X001104Y014820D01*
X001104Y014898D02*
X001335Y014898D01*
X001369Y014977D02*
X001104Y014977D01*
X001104Y015055D02*
X001401Y015055D01*
X001401Y015134D02*
X001164Y015134D01*
X001242Y015212D02*
X001401Y015212D01*
X001220Y015416D02*
X001220Y015481D01*
X001233Y015494D01*
X001416Y015494D01*
X001534Y015612D01*
X001534Y016083D01*
X001785Y016333D01*
X001694Y015967D02*
X001953Y015967D01*
X002023Y016038D01*
X002023Y016629D01*
X001953Y016700D01*
X001617Y016700D01*
X001547Y016629D01*
X001547Y016404D01*
X001541Y016418D01*
X001474Y016485D01*
X001385Y016522D01*
X001290Y016522D01*
X001275Y016516D01*
X001275Y016629D01*
X001205Y016700D01*
X000869Y016700D01*
X000799Y016629D01*
X000799Y016504D01*
X000786Y016461D01*
X000799Y016437D01*
X000799Y016038D01*
X000869Y015967D01*
X000925Y015967D01*
X000987Y015905D01*
X001007Y015885D01*
X001007Y015691D01*
X001027Y015671D01*
X001007Y015652D01*
X001007Y015429D01*
X000784Y015206D01*
X000784Y013775D01*
X000769Y013769D01*
X000711Y013712D01*
X000711Y019585D01*
X000784Y019585D01*
X000784Y019314D01*
X000854Y019243D01*
X000860Y019243D01*
X000860Y019185D01*
X000961Y019084D01*
X001373Y019084D01*
X001373Y019029D01*
X001410Y018941D01*
X001451Y018900D01*
X001449Y018898D01*
X001413Y018810D01*
X001413Y018714D01*
X001442Y018643D01*
X001395Y018595D01*
X001395Y018338D01*
X001406Y018327D01*
X001399Y018320D01*
X001399Y018063D01*
X001424Y018038D01*
X001424Y017731D01*
X001173Y017731D01*
X001173Y018048D01*
X001186Y018062D01*
X001186Y018267D01*
X001289Y018267D01*
X001360Y018337D01*
X001360Y018594D01*
X001312Y018642D01*
X001341Y018714D01*
X001341Y018810D01*
X001305Y018898D01*
X001237Y018966D01*
X001149Y019002D01*
X001054Y019002D01*
X000965Y018966D01*
X000898Y018898D01*
X000861Y018810D01*
X000861Y018714D01*
X000891Y018642D01*
X000844Y018594D01*
X000844Y018337D01*
X000855Y018326D01*
X000848Y018319D01*
X000848Y018062D01*
X000873Y018037D01*
X000873Y017558D01*
X000961Y017470D01*
X001000Y017431D01*
X001472Y017431D01*
X002619Y016284D01*
X002334Y016284D01*
X002241Y016191D01*
X001694Y015644D01*
X001694Y015967D01*
X001694Y015919D02*
X001969Y015919D01*
X001982Y015997D02*
X002047Y015997D01*
X002023Y016076D02*
X002126Y016076D01*
X002204Y016154D02*
X002023Y016154D01*
X002023Y016233D02*
X002283Y016233D01*
X002357Y016547D02*
X002023Y016547D01*
X002023Y016625D02*
X002278Y016625D01*
X002200Y016704D02*
X000711Y016704D01*
X000711Y016782D02*
X002121Y016782D01*
X002043Y016861D02*
X000711Y016861D01*
X000711Y016939D02*
X001964Y016939D01*
X001886Y017018D02*
X000711Y017018D01*
X000711Y017096D02*
X001807Y017096D01*
X001729Y017175D02*
X000711Y017175D01*
X000711Y017253D02*
X001650Y017253D01*
X001572Y017332D02*
X000711Y017332D01*
X000711Y017410D02*
X001493Y017410D01*
X001424Y017803D02*
X001173Y017803D01*
X001173Y017881D02*
X001424Y017881D01*
X001424Y017960D02*
X001173Y017960D01*
X001173Y018038D02*
X001423Y018038D01*
X001399Y018117D02*
X001186Y018117D01*
X001186Y018195D02*
X001399Y018195D01*
X001399Y018274D02*
X001296Y018274D01*
X001360Y018352D02*
X001395Y018352D01*
X001395Y018431D02*
X001360Y018431D01*
X001360Y018509D02*
X001395Y018509D01*
X001395Y018588D02*
X001360Y018588D01*
X001321Y018666D02*
X001433Y018666D01*
X001413Y018745D02*
X001341Y018745D01*
X001336Y018823D02*
X001418Y018823D01*
X001449Y018902D02*
X001301Y018902D01*
X001394Y018980D02*
X001202Y018980D01*
X001373Y019059D02*
X000711Y019059D01*
X000711Y019137D02*
X000908Y019137D01*
X000860Y019216D02*
X000711Y019216D01*
X000711Y019294D02*
X000804Y019294D01*
X000784Y019373D02*
X000711Y019373D01*
X000711Y019451D02*
X000784Y019451D01*
X000784Y019530D02*
X000711Y019530D01*
X000711Y018980D02*
X001001Y018980D01*
X000902Y018902D02*
X000711Y018902D01*
X000711Y018823D02*
X000867Y018823D01*
X000861Y018745D02*
X000711Y018745D01*
X000711Y018666D02*
X000881Y018666D01*
X000844Y018588D02*
X000711Y018588D01*
X000711Y018509D02*
X000844Y018509D01*
X000844Y018431D02*
X000711Y018431D01*
X000711Y018352D02*
X000844Y018352D01*
X000848Y018274D02*
X000711Y018274D01*
X000711Y018195D02*
X000848Y018195D01*
X000848Y018117D02*
X000711Y018117D01*
X000711Y018038D02*
X000872Y018038D01*
X000873Y017960D02*
X000711Y017960D01*
X000711Y017881D02*
X000873Y017881D01*
X000873Y017803D02*
X000711Y017803D01*
X000711Y017724D02*
X000873Y017724D01*
X000873Y017646D02*
X000711Y017646D01*
X000711Y017567D02*
X000873Y017567D01*
X000942Y017489D02*
X000711Y017489D01*
X000711Y016625D02*
X000799Y016625D01*
X000799Y016547D02*
X000711Y016547D01*
X000711Y016468D02*
X000788Y016468D01*
X000799Y016390D02*
X000711Y016390D01*
X000711Y016311D02*
X000799Y016311D01*
X000799Y016233D02*
X000711Y016233D01*
X000711Y016154D02*
X000799Y016154D01*
X000799Y016076D02*
X000711Y016076D01*
X000711Y015997D02*
X000839Y015997D01*
X000711Y015919D02*
X000974Y015919D01*
X001007Y015840D02*
X000711Y015840D01*
X000711Y015762D02*
X001007Y015762D01*
X001015Y015683D02*
X000711Y015683D01*
X000711Y015605D02*
X001007Y015605D01*
X001007Y015526D02*
X000711Y015526D01*
X000711Y015448D02*
X001007Y015448D01*
X000947Y015369D02*
X000711Y015369D01*
X000711Y015291D02*
X000868Y015291D01*
X000790Y015212D02*
X000711Y015212D01*
X000711Y015134D02*
X000784Y015134D01*
X000784Y015055D02*
X000711Y015055D01*
X000711Y014977D02*
X000784Y014977D01*
X000784Y014898D02*
X000711Y014898D01*
X000711Y014820D02*
X000784Y014820D01*
X000784Y014741D02*
X000711Y014741D01*
X000711Y014663D02*
X000784Y014663D01*
X000784Y014584D02*
X000711Y014584D01*
X000711Y014506D02*
X000784Y014506D01*
X000784Y014427D02*
X000711Y014427D01*
X000711Y014349D02*
X000784Y014349D01*
X000784Y014270D02*
X000711Y014270D01*
X000711Y014192D02*
X000784Y014192D01*
X000784Y014113D02*
X000711Y014113D01*
X000711Y014035D02*
X000784Y014035D01*
X000784Y013956D02*
X000711Y013956D01*
X000711Y013878D02*
X000784Y013878D01*
X000784Y013799D02*
X000711Y013799D01*
X000711Y013721D02*
X000720Y013721D01*
X000905Y013565D02*
X001062Y013565D01*
X001532Y013565D01*
X001532Y013762D02*
X001023Y013762D01*
X000944Y013841D01*
X000944Y015140D01*
X001220Y015416D01*
X001338Y016282D02*
X001010Y016282D01*
X001037Y016333D01*
X000958Y016479D01*
X001275Y016547D02*
X001547Y016547D01*
X001547Y016625D02*
X001275Y016625D01*
X001491Y016468D02*
X001547Y016468D01*
X001694Y015840D02*
X001890Y015840D01*
X001812Y015762D02*
X001694Y015762D01*
X001694Y015683D02*
X001733Y015683D01*
X002023Y016311D02*
X002592Y016311D01*
X002514Y016390D02*
X002023Y016390D01*
X002023Y016468D02*
X002435Y016468D01*
X002566Y017195D02*
X002275Y017486D01*
X002275Y018049D01*
X002288Y018063D01*
X002288Y018268D01*
X002391Y018268D01*
X002462Y018338D01*
X002462Y018595D01*
X002391Y018666D01*
X002354Y018666D01*
X002575Y018666D01*
X002575Y018592D02*
X002607Y018560D01*
X002591Y018544D01*
X002554Y018455D01*
X002554Y018360D01*
X002591Y018272D01*
X002637Y018226D01*
X002566Y018155D01*
X002566Y017195D01*
X002566Y017253D02*
X002508Y017253D01*
X002566Y017332D02*
X002429Y017332D01*
X002351Y017410D02*
X002566Y017410D01*
X002566Y017489D02*
X002275Y017489D01*
X002275Y017567D02*
X002566Y017567D01*
X002566Y017646D02*
X002275Y017646D01*
X002275Y017724D02*
X002566Y017724D01*
X002566Y017803D02*
X002275Y017803D01*
X002275Y017881D02*
X002566Y017881D01*
X002566Y017960D02*
X002275Y017960D01*
X002275Y018038D02*
X002566Y018038D01*
X002566Y018117D02*
X002288Y018117D01*
X002288Y018195D02*
X002606Y018195D01*
X002590Y018274D02*
X002397Y018274D01*
X002462Y018352D02*
X002558Y018352D01*
X002554Y018431D02*
X002462Y018431D01*
X002462Y018509D02*
X002577Y018509D01*
X002580Y018588D02*
X002462Y018588D01*
X002354Y018666D02*
X002354Y018927D01*
X002596Y018927D01*
X002575Y018906D01*
X002575Y018592D01*
X002575Y018745D02*
X002354Y018745D01*
X002354Y018823D02*
X002575Y018823D01*
X002575Y018902D02*
X002354Y018902D01*
X002054Y018902D02*
X001852Y018902D01*
X001856Y018898D02*
X001815Y018939D01*
X001817Y018941D01*
X001853Y019029D01*
X001853Y019084D01*
X002054Y019084D01*
X002054Y018666D01*
X001873Y018666D01*
X001863Y018643D02*
X001893Y018714D01*
X001893Y018810D01*
X001856Y018898D01*
X001887Y018823D02*
X002054Y018823D01*
X002054Y018745D02*
X001893Y018745D01*
X001863Y018643D02*
X001910Y018595D01*
X001910Y018338D01*
X001840Y018268D01*
X001737Y018268D01*
X001737Y018063D01*
X001724Y018049D01*
X001724Y017801D01*
X001975Y017549D01*
X001975Y018038D01*
X001950Y018063D01*
X001950Y018320D01*
X001957Y018327D01*
X001946Y018338D01*
X001946Y018595D01*
X002016Y018666D01*
X002054Y018666D01*
X002054Y018980D02*
X001833Y018980D01*
X001853Y019059D02*
X002054Y019059D01*
X001946Y018588D02*
X001910Y018588D01*
X001910Y018509D02*
X001946Y018509D01*
X001946Y018431D02*
X001910Y018431D01*
X001910Y018352D02*
X001946Y018352D01*
X001950Y018274D02*
X001846Y018274D01*
X001950Y018195D02*
X001737Y018195D01*
X001737Y018117D02*
X001950Y018117D01*
X001975Y018038D02*
X001724Y018038D01*
X001724Y017960D02*
X001975Y017960D01*
X001975Y017881D02*
X001724Y017881D01*
X001724Y017803D02*
X001975Y017803D01*
X001975Y017724D02*
X001800Y017724D01*
X001879Y017646D02*
X001975Y017646D01*
X001975Y017567D02*
X001957Y017567D01*
X002125Y018185D02*
X002119Y018191D01*
X001653Y018467D02*
X001653Y018762D01*
X001568Y018191D02*
X001574Y018185D01*
X001692Y019471D02*
X001351Y019471D01*
X001101Y018762D02*
X001102Y018604D01*
X001102Y018466D01*
X001017Y018190D02*
X001023Y018185D01*
X002107Y015605D02*
X002305Y015605D01*
X002256Y015683D02*
X002186Y015683D01*
X002571Y015232D02*
X002571Y015101D01*
X003044Y016279D02*
X003278Y016279D01*
X003278Y016437D02*
X003044Y016437D01*
X003044Y016594D02*
X003278Y016594D01*
X003278Y016752D02*
X003044Y016752D01*
X003044Y016909D02*
X003278Y016909D01*
X003278Y017067D02*
X003044Y017067D01*
X003151Y017224D02*
X003151Y017421D01*
X002991Y017581D01*
X003182Y017772D01*
X003182Y017934D01*
X003408Y017960D02*
X003641Y017960D01*
X003641Y018004D02*
X003641Y017733D01*
X003634Y017726D01*
X003542Y017817D01*
X003410Y017817D01*
X003408Y017815D01*
X003408Y018004D01*
X003641Y018004D01*
X003641Y017881D02*
X003408Y017881D01*
X003476Y017656D02*
X003476Y017422D01*
X003612Y017332D02*
X003655Y017332D01*
X003634Y017539D02*
X003634Y017065D01*
X003743Y016956D01*
X003743Y016556D01*
X004143Y016556D02*
X004145Y016556D01*
X004342Y016358D01*
X004106Y015294D02*
X004106Y015060D01*
X004008Y014423D02*
X004121Y014310D01*
X004121Y013962D01*
X003992Y013833D01*
X003992Y013833D01*
X003953Y013794D01*
X003929Y013794D01*
X003875Y013847D01*
X003787Y013884D01*
X003732Y013884D01*
X003743Y013911D01*
X003743Y014007D01*
X003706Y014095D01*
X003676Y014125D01*
X003676Y014361D01*
X003947Y014361D01*
X004008Y014423D01*
X004082Y014349D02*
X003676Y014349D01*
X003676Y014270D02*
X004121Y014270D01*
X004121Y014192D02*
X003676Y014192D01*
X003688Y014113D02*
X004121Y014113D01*
X004121Y014035D02*
X003731Y014035D01*
X003743Y013956D02*
X004115Y013956D01*
X004036Y013878D02*
X003802Y013878D01*
X003923Y013799D02*
X003958Y013799D01*
X003791Y015060D02*
X003791Y015294D01*
X003278Y017224D02*
X003044Y017224D01*
X003151Y017224D02*
X003161Y017224D01*
X003557Y017803D02*
X003641Y017803D01*
X003621Y017817D02*
X003621Y017552D01*
X003634Y017539D01*
X003634Y017422D02*
X003634Y017656D01*
X003621Y017817D02*
X003523Y017915D01*
X003523Y017934D01*
X003412Y018171D02*
X003503Y018262D01*
X003459Y018219D01*
X003503Y018774D02*
X003177Y018774D01*
X003103Y018745D01*
X003139Y018408D02*
X003103Y018404D01*
X003139Y018408D02*
X002794Y018408D01*
X002801Y018414D01*
X002801Y018749D01*
X002899Y019471D02*
X002912Y019536D01*
X003240Y019471D02*
X003660Y019471D01*
X004182Y018397D02*
X004008Y018143D01*
X004008Y017873D01*
X003949Y017814D01*
X003949Y017539D01*
X003949Y017422D02*
X003949Y017656D01*
X004106Y017656D02*
X004106Y017422D01*
X004264Y017422D02*
X004264Y017656D01*
X004233Y017817D02*
X004233Y018030D01*
X004168Y018095D01*
X004226Y018178D01*
X004429Y018178D01*
X004499Y018248D01*
X004499Y018287D01*
X004723Y018287D01*
X004724Y018288D01*
X004901Y018288D01*
X004901Y018091D01*
X004676Y018091D01*
X004606Y018020D01*
X004606Y017817D01*
X004512Y017817D01*
X004500Y017804D01*
X004487Y017817D01*
X004355Y017817D01*
X004342Y017804D01*
X004330Y017817D01*
X004233Y017817D01*
X004233Y017881D02*
X004606Y017881D01*
X004606Y017960D02*
X004233Y017960D01*
X004225Y018038D02*
X004624Y018038D01*
X004446Y018195D02*
X004901Y018195D01*
X004901Y018117D02*
X004184Y018117D01*
X004421Y017656D02*
X004421Y017422D01*
X004579Y017422D02*
X004579Y017656D01*
X004736Y017656D02*
X004736Y017422D01*
X004894Y017539D02*
X004894Y017844D01*
X004833Y017865D01*
X004894Y017656D02*
X004894Y017422D01*
X004901Y018274D02*
X004499Y018274D01*
X004499Y018738D02*
X004499Y018927D01*
X005350Y018927D01*
X005291Y018869D01*
X005291Y018663D01*
X005081Y018663D01*
X005081Y018669D01*
X005011Y018739D01*
X004696Y018739D01*
X004695Y018738D01*
X004499Y018738D01*
X004499Y018745D02*
X005291Y018745D01*
X005291Y018823D02*
X004499Y018823D01*
X004566Y018854D02*
X004853Y018814D01*
X004853Y018854D01*
X004907Y018815D01*
X005081Y018666D02*
X005291Y018666D01*
X005324Y018902D02*
X004499Y018902D01*
X004947Y019418D02*
X004947Y019471D01*
X005288Y019471D02*
X005668Y019471D01*
X005887Y019373D02*
X006655Y019373D01*
X006655Y019451D02*
X005908Y019451D01*
X005904Y019530D02*
X006654Y019530D01*
X006655Y019294D02*
X005831Y019294D01*
X005869Y019216D02*
X006656Y019216D01*
X006656Y019137D02*
X005903Y019137D01*
X005908Y019059D02*
X006657Y019059D01*
X006657Y018980D02*
X005888Y018980D01*
X005569Y018642D02*
X005499Y018513D01*
X006279Y018509D02*
X006659Y018509D01*
X006660Y018431D02*
X006279Y018431D01*
X006279Y018588D02*
X006659Y018588D01*
X006659Y018666D02*
X006279Y018666D01*
X006279Y018745D02*
X006658Y018745D01*
X006658Y018823D02*
X006279Y018823D01*
X006247Y018902D02*
X006657Y018902D01*
X006643Y016516D02*
X006458Y016516D01*
X005903Y015916D02*
X005903Y015796D01*
X005903Y015916D02*
X005697Y016122D01*
X005523Y016122D01*
X005406Y016122D02*
X005640Y016122D01*
X005640Y016279D02*
X005406Y016279D01*
X005523Y016279D02*
X005779Y016279D01*
X005640Y015964D02*
X005406Y015964D01*
X005406Y015807D02*
X005640Y015807D01*
X005640Y015650D02*
X005406Y015650D01*
X005208Y015294D02*
X005208Y015060D01*
X005051Y015060D02*
X005051Y015294D01*
X006029Y013014D02*
X007762Y013014D01*
X006314Y012622D02*
X006118Y012622D01*
X006085Y012543D02*
X006245Y012543D01*
X006216Y012465D02*
X006042Y012465D01*
X005963Y012386D02*
X006216Y012386D01*
X003791Y017422D02*
X003791Y017656D01*
X001727Y013014D02*
X001711Y013014D01*
X001658Y012936D02*
X001277Y012936D01*
X001199Y012857D02*
X001629Y012857D01*
X001629Y012779D02*
X001163Y012779D01*
X001163Y012700D02*
X001658Y012700D01*
X001725Y012622D02*
X001163Y012622D01*
X001180Y013959D02*
X001180Y013985D01*
X001180Y013959D02*
X001532Y013959D01*
X001163Y010973D02*
X001998Y010973D01*
X001991Y010895D02*
X001163Y010895D01*
X001163Y010816D02*
X001991Y010816D01*
X001991Y010738D02*
X001163Y010738D01*
X001163Y010659D02*
X001991Y010659D01*
X002561Y010187D02*
X002752Y009995D01*
X002752Y009730D01*
X002729Y009707D01*
X002729Y009391D01*
X002800Y009321D01*
X002989Y009321D01*
X002989Y009261D01*
X002852Y009124D01*
X002834Y009142D01*
X002561Y009142D01*
X002561Y010187D01*
X002561Y010110D02*
X002638Y010110D01*
X002561Y010031D02*
X002716Y010031D01*
X002752Y009953D02*
X002561Y009953D01*
X002561Y009874D02*
X002752Y009874D01*
X002752Y009796D02*
X002561Y009796D01*
X002561Y009717D02*
X002739Y009717D01*
X002729Y009639D02*
X002561Y009639D01*
X002561Y009560D02*
X002729Y009560D01*
X002729Y009482D02*
X002561Y009482D01*
X002561Y009403D02*
X002729Y009403D01*
X002796Y009325D02*
X002561Y009325D01*
X002561Y009246D02*
X002973Y009246D01*
X002895Y009168D02*
X002561Y009168D01*
X002676Y008959D02*
X002794Y008959D01*
X002912Y008841D01*
X002912Y008959D01*
X002775Y007679D02*
X002381Y007679D01*
X001987Y007679D01*
X002164Y007857D01*
X001987Y007679D02*
X001987Y007286D01*
X001987Y006892D01*
X002381Y007286D02*
X002381Y007679D01*
X001987Y007679D02*
X001594Y007679D01*
X001594Y007286D01*
X001594Y006892D01*
X001594Y006498D01*
X001321Y008012D02*
X001321Y008797D01*
X000966Y009152D01*
X000966Y009379D01*
X001097Y009248D01*
X001330Y009152D01*
X001582Y009152D01*
X001815Y009248D01*
X001945Y009379D01*
X001945Y008026D01*
X001335Y008026D01*
X001321Y008012D01*
X001321Y008069D02*
X001945Y008069D01*
X001945Y008147D02*
X001321Y008147D01*
X001321Y008226D02*
X001945Y008226D01*
X001945Y008304D02*
X001321Y008304D01*
X001321Y008383D02*
X001945Y008383D01*
X001945Y008461D02*
X001321Y008461D01*
X001321Y008540D02*
X001945Y008540D01*
X001945Y008618D02*
X001321Y008618D01*
X001321Y008697D02*
X001945Y008697D01*
X001945Y008775D02*
X001321Y008775D01*
X001264Y008854D02*
X001945Y008854D01*
X001945Y008932D02*
X001186Y008932D01*
X001107Y009011D02*
X001945Y009011D01*
X001945Y009089D02*
X001029Y009089D01*
X000966Y009168D02*
X001292Y009168D01*
X001103Y009246D02*
X000966Y009246D01*
X000966Y009325D02*
X001021Y009325D01*
X001619Y009168D02*
X001945Y009168D01*
X001945Y009246D02*
X001809Y009246D01*
X001891Y009325D02*
X001945Y009325D01*
X002305Y008854D02*
X002358Y008854D01*
X006436Y002443D02*
X006830Y002443D01*
X007223Y002443D01*
X007223Y002049D01*
X007204Y002817D02*
X007086Y002817D01*
X006849Y002817D01*
X006830Y002837D01*
X006830Y002443D02*
X006830Y002049D01*
X006436Y002049D01*
X007086Y002817D02*
X007105Y002837D01*
X007223Y002837D01*
X007223Y003231D01*
D13*
X004342Y016358D03*
D14*
X005901Y016417D03*
X005901Y016614D03*
X006140Y016614D03*
X006140Y016417D03*
X006324Y016516D03*
D15*
X006002Y018091D03*
X006002Y018642D03*
X005569Y018642D03*
X005569Y018091D03*
D16*
X007335Y018520D03*
X007335Y016512D03*
D17*
X003503Y018262D03*
X003503Y018774D03*
D18*
X004182Y018830D03*
X004182Y018397D03*
D19*
X002280Y013762D03*
D20*
X003028Y013762D03*
X003028Y013959D03*
X003028Y014156D03*
X003028Y014352D03*
X003028Y013565D03*
X003028Y013368D03*
X003028Y013171D03*
X001532Y013171D03*
X001532Y013368D03*
X001532Y013565D03*
X001532Y013762D03*
X001532Y013959D03*
X001532Y014156D03*
X001532Y014352D03*
D21*
X002912Y009549D03*
X003149Y009549D03*
X003149Y008841D03*
X002912Y008841D03*
D22*
X002676Y008959D03*
X002676Y009195D03*
X002676Y009431D03*
X003385Y009431D03*
X003385Y009195D03*
X003385Y008959D03*
D23*
X001785Y016333D03*
X001411Y017184D03*
X001037Y016333D03*
D24*
X001017Y018190D03*
X001186Y018190D03*
X001568Y018191D03*
X001737Y018191D03*
X002119Y018191D03*
X002288Y018191D03*
D25*
X002204Y018467D03*
X001653Y018467D03*
X001102Y018466D03*
D26*
X006669Y014495D03*
X006669Y014298D03*
X006669Y014101D03*
X007386Y014097D03*
X007386Y014298D03*
X007386Y014495D03*
D27*
X007028Y014298D03*
D28*
X007083Y012421D03*
X006827Y012421D03*
X006827Y011594D03*
X007083Y011594D03*
X007339Y011594D03*
X007339Y012421D03*
D29*
X007241Y012008D03*
X006926Y012008D03*
D30*
X007083Y012008D03*
D31*
X006827Y011594D02*
X006827Y011291D01*
X006827Y011068D01*
X006849Y011046D01*
X007794Y011046D01*
X007912Y011124D01*
X007912Y015494D01*
X007794Y015612D01*
X007401Y015612D01*
X007309Y015521D01*
X007309Y015396D01*
X007479Y015160D02*
X007125Y015160D01*
X006731Y015553D01*
X006731Y015750D01*
X006712Y015790D01*
X006633Y015790D01*
X006594Y015179D02*
X006338Y015179D01*
X006042Y014884D01*
X005747Y014884D01*
X005676Y014813D01*
X005632Y014794D01*
X005747Y014510D02*
X005471Y014510D01*
X005373Y013998D02*
X006318Y013998D01*
X006421Y014082D01*
X006669Y014101D01*
X006830Y013841D02*
X006790Y013801D01*
X005688Y013801D01*
X005334Y013427D01*
X005334Y013290D01*
X005531Y013152D01*
X006082Y013152D01*
X006259Y013014D01*
X007086Y013014D01*
X007177Y012922D01*
X007177Y012738D01*
X007283Y013463D02*
X007283Y013585D01*
X005885Y013585D01*
X005747Y014510D02*
X005915Y014718D01*
X006237Y014718D01*
X006355Y014836D01*
X005944Y015022D02*
X006277Y015355D01*
X006277Y015450D01*
X006277Y015791D02*
X005903Y015457D01*
X005944Y015022D02*
X005206Y015022D01*
X005208Y015177D01*
X005196Y015105D01*
X005196Y013723D01*
X004842Y013368D01*
X004684Y013368D01*
X004645Y013664D02*
X004723Y013742D01*
X005051Y013755D01*
X005051Y015177D01*
X005373Y013998D02*
X005334Y013939D01*
X005334Y013683D01*
X004979Y013329D01*
X004979Y013250D01*
X005196Y013034D01*
X005196Y012227D01*
X005861Y011541D01*
X006119Y011284D01*
X006119Y011282D01*
X006836Y011282D01*
X007420Y013821D02*
X007689Y013821D01*
X007696Y013887D01*
X007420Y013821D02*
X007386Y013856D01*
X007386Y014097D01*
X007676Y015055D02*
X007663Y015101D01*
X007538Y015101D01*
X007479Y015160D01*
X006696Y015077D02*
X006696Y014836D01*
X006696Y015077D02*
X006594Y015179D01*
X006643Y016516D02*
X006447Y016712D01*
X006447Y016950D01*
X005668Y019077D02*
X002243Y019077D01*
X002204Y019038D01*
X002204Y018467D01*
X002125Y018185D02*
X002125Y017423D01*
X002954Y016594D01*
X003161Y016594D01*
X003161Y016437D02*
X002875Y016437D01*
X001574Y017738D01*
X001574Y018185D01*
X001534Y017581D02*
X001062Y017581D01*
X001023Y017620D01*
X001023Y018185D01*
X001023Y019234D02*
X001613Y019234D01*
X001613Y019077D01*
X001613Y019234D02*
X002912Y019234D01*
X004842Y019234D01*
X004947Y019340D01*
X004947Y019471D01*
X004853Y018513D02*
X005117Y018513D01*
X005051Y018447D01*
X005051Y017539D01*
X005117Y018513D02*
X005499Y018513D01*
X004566Y018513D02*
X004499Y018513D01*
X004182Y018830D01*
X004082Y018830D01*
X003791Y018538D01*
X003791Y017539D01*
X003412Y018171D02*
X002794Y018171D01*
X002716Y018093D01*
X002716Y017148D01*
X002797Y017067D01*
X003161Y017067D01*
X003161Y016279D02*
X002836Y016279D01*
X001534Y017581D01*
X001023Y019234D02*
X001010Y019248D01*
X001010Y019471D01*
X003149Y015258D02*
X002866Y014976D01*
X002866Y014873D01*
X002873Y014866D01*
X002873Y014628D01*
X002912Y014589D01*
X003451Y014589D01*
X003207Y014873D02*
X003476Y014984D01*
X003476Y015177D01*
X003634Y015177D02*
X003660Y015150D01*
X003660Y014943D01*
X003792Y014812D01*
X003792Y014589D01*
X004054Y014589D01*
X004271Y014372D01*
X004271Y013900D01*
X004054Y013683D01*
X004015Y013644D01*
X003739Y013644D01*
X003464Y013644D01*
X003306Y013762D01*
X003028Y013762D01*
X003028Y013565D02*
X003228Y013565D01*
X003286Y013506D01*
X003286Y011872D01*
X004015Y011872D01*
X004094Y011951D01*
X004094Y013368D01*
X004448Y013723D01*
X004448Y014490D01*
X004477Y014500D01*
X004053Y014904D01*
X003897Y014904D01*
X003791Y015009D01*
X003791Y015177D01*
X003149Y015258D02*
X003149Y015479D01*
X003161Y015492D01*
X002912Y012817D02*
X001869Y012817D01*
X001571Y013171D02*
X001532Y013171D01*
X003109Y011833D02*
X003149Y011872D01*
X003286Y011872D01*
X003988Y011597D02*
X004212Y011597D01*
X004251Y011636D01*
X004251Y013250D01*
X004645Y013664D01*
X002912Y019234D02*
X002912Y019536D01*
X003326Y007876D02*
X001397Y007876D01*
X001397Y005927D01*
X003326Y007876D01*
X003312Y007862D02*
X001397Y007862D01*
X001397Y007804D02*
X003254Y007804D01*
X003196Y007745D02*
X001397Y007745D01*
X001397Y007687D02*
X003138Y007687D01*
X003080Y007628D02*
X001397Y007628D01*
X001397Y007570D02*
X003022Y007570D01*
X002964Y007511D02*
X001397Y007511D01*
X001397Y007453D02*
X002906Y007453D01*
X002849Y007394D02*
X001397Y007394D01*
X001397Y007336D02*
X002791Y007336D01*
X002733Y007277D02*
X001397Y007277D01*
X001397Y007219D02*
X002675Y007219D01*
X002617Y007160D02*
X001397Y007160D01*
X001397Y007102D02*
X002559Y007102D01*
X002501Y007043D02*
X001397Y007043D01*
X001397Y006985D02*
X002443Y006985D01*
X002385Y006926D02*
X001397Y006926D01*
X001397Y006868D02*
X002327Y006868D01*
X002269Y006809D02*
X001397Y006809D01*
X001397Y006751D02*
X002211Y006751D01*
X002154Y006692D02*
X001397Y006692D01*
X001397Y006634D02*
X002096Y006634D01*
X002038Y006575D02*
X001397Y006575D01*
X001397Y006517D02*
X001980Y006517D01*
X001922Y006458D02*
X001397Y006458D01*
X001397Y006400D02*
X001864Y006400D01*
X001806Y006341D02*
X001397Y006341D01*
X001397Y006283D02*
X001748Y006283D01*
X001690Y006224D02*
X001397Y006224D01*
X001397Y006166D02*
X001632Y006166D01*
X001574Y006107D02*
X001397Y006107D01*
X001397Y006049D02*
X001517Y006049D01*
X001459Y005990D02*
X001397Y005990D01*
X001397Y005932D02*
X001401Y005932D01*
X001397Y003801D02*
X001397Y001853D01*
X003346Y001853D01*
X001397Y003801D01*
X001397Y003767D02*
X001431Y003767D01*
X001397Y003709D02*
X001490Y003709D01*
X001548Y003650D02*
X001397Y003650D01*
X001397Y003592D02*
X001607Y003592D01*
X001665Y003533D02*
X001397Y003533D01*
X001397Y003475D02*
X001724Y003475D01*
X001782Y003416D02*
X001397Y003416D01*
X001397Y003358D02*
X001841Y003358D01*
X001899Y003299D02*
X001397Y003299D01*
X001397Y003241D02*
X001958Y003241D01*
X002016Y003182D02*
X001397Y003182D01*
X001397Y003124D02*
X002075Y003124D01*
X002133Y003065D02*
X001397Y003065D01*
X001397Y003007D02*
X002192Y003007D01*
X002250Y002948D02*
X001397Y002948D01*
X001397Y002890D02*
X002309Y002890D01*
X002367Y002831D02*
X001397Y002831D01*
X001397Y002773D02*
X002426Y002773D01*
X002484Y002714D02*
X001397Y002714D01*
X001397Y002656D02*
X002543Y002656D01*
X002601Y002597D02*
X001397Y002597D01*
X001397Y002539D02*
X002660Y002539D01*
X002718Y002480D02*
X001397Y002480D01*
X001397Y002422D02*
X002777Y002422D01*
X002835Y002363D02*
X001397Y002363D01*
X001397Y002305D02*
X002894Y002305D01*
X002952Y002246D02*
X001397Y002246D01*
X001397Y002188D02*
X003011Y002188D01*
X003069Y002129D02*
X001397Y002129D01*
X001397Y002071D02*
X003128Y002071D01*
X003186Y002012D02*
X001397Y002012D01*
X001397Y001954D02*
X003245Y001954D01*
X003303Y001895D02*
X001397Y001895D01*
X005471Y001853D02*
X007420Y003801D01*
X007420Y001872D01*
X005471Y001853D01*
X005514Y001895D02*
X007420Y001895D01*
X007420Y001954D02*
X005572Y001954D01*
X005631Y002012D02*
X007420Y002012D01*
X007420Y002071D02*
X005689Y002071D01*
X005748Y002129D02*
X007420Y002129D01*
X007420Y002188D02*
X005806Y002188D01*
X005865Y002246D02*
X007420Y002246D01*
X007420Y002305D02*
X005923Y002305D01*
X005982Y002363D02*
X007420Y002363D01*
X007420Y002422D02*
X006040Y002422D01*
X006099Y002480D02*
X007420Y002480D01*
X007420Y002539D02*
X006157Y002539D01*
X006216Y002597D02*
X007420Y002597D01*
X007420Y002656D02*
X006274Y002656D01*
X006333Y002714D02*
X007420Y002714D01*
X007420Y002773D02*
X006391Y002773D01*
X006450Y002831D02*
X007420Y002831D01*
X007420Y002890D02*
X006508Y002890D01*
X006567Y002948D02*
X007420Y002948D01*
X007420Y003007D02*
X006625Y003007D01*
X006684Y003065D02*
X007420Y003065D01*
X007420Y003124D02*
X006742Y003124D01*
X006801Y003182D02*
X007420Y003182D01*
X007420Y003241D02*
X006859Y003241D01*
X006918Y003299D02*
X007420Y003299D01*
X007420Y003358D02*
X006976Y003358D01*
X007035Y003416D02*
X007420Y003416D01*
X007420Y003475D02*
X007093Y003475D01*
X007152Y003533D02*
X007420Y003533D01*
X007420Y003592D02*
X007210Y003592D01*
X007269Y003650D02*
X007420Y003650D01*
X007420Y003709D02*
X007327Y003709D01*
X007386Y003767D02*
X007420Y003767D01*
X007420Y005947D02*
X007420Y007876D01*
X005471Y007876D01*
X007420Y005947D01*
X007420Y005990D02*
X007377Y005990D01*
X007420Y006049D02*
X007318Y006049D01*
X007259Y006107D02*
X007420Y006107D01*
X007420Y006166D02*
X007200Y006166D01*
X007141Y006224D02*
X007420Y006224D01*
X007420Y006283D02*
X007081Y006283D01*
X007022Y006341D02*
X007420Y006341D01*
X007420Y006400D02*
X006963Y006400D01*
X006904Y006458D02*
X007420Y006458D01*
X007420Y006517D02*
X006845Y006517D01*
X006786Y006575D02*
X007420Y006575D01*
X007420Y006634D02*
X006727Y006634D01*
X006668Y006692D02*
X007420Y006692D01*
X007420Y006751D02*
X006609Y006751D01*
X006550Y006809D02*
X007420Y006809D01*
X007420Y006868D02*
X006490Y006868D01*
X006431Y006926D02*
X007420Y006926D01*
X007420Y006985D02*
X006372Y006985D01*
X006313Y007043D02*
X007420Y007043D01*
X007420Y007102D02*
X006254Y007102D01*
X006195Y007160D02*
X007420Y007160D01*
X007420Y007219D02*
X006136Y007219D01*
X006077Y007277D02*
X007420Y007277D01*
X007420Y007336D02*
X006018Y007336D01*
X005959Y007394D02*
X007420Y007394D01*
X007420Y007453D02*
X005900Y007453D01*
X005840Y007511D02*
X007420Y007511D01*
X007420Y007570D02*
X005781Y007570D01*
X005722Y007628D02*
X007420Y007628D01*
X007420Y007687D02*
X005663Y007687D01*
X005604Y007745D02*
X007420Y007745D01*
X007420Y007804D02*
X005545Y007804D01*
X005486Y007862D02*
X007420Y007862D01*
D32*
X007223Y007679D03*
X007223Y007286D03*
X007223Y006892D03*
X007223Y006498D03*
X006830Y006892D03*
X006830Y007286D03*
X006830Y007679D03*
X006436Y007679D03*
X006436Y007286D03*
X006042Y007679D03*
X007223Y003231D03*
X007223Y002837D03*
X007223Y002443D03*
X007223Y002049D03*
X006830Y002049D03*
X006830Y002443D03*
X006830Y002837D03*
X006436Y002443D03*
X006436Y002049D03*
X006042Y002049D03*
X002775Y002049D03*
X002381Y002049D03*
X002381Y002443D03*
X001987Y002443D03*
X001987Y002049D03*
X001987Y002837D03*
X001594Y002837D03*
X001594Y003231D03*
X001594Y002443D03*
X001594Y002049D03*
X001594Y006498D03*
X001594Y006892D03*
X001594Y007286D03*
X001594Y007679D03*
X001987Y007679D03*
X001987Y007286D03*
X001987Y006892D03*
X002381Y007286D03*
X002381Y007679D03*
X002775Y007679D03*
D33*
X004940Y008998D02*
X005098Y008998D01*
X004940Y008998D02*
X004940Y008998D01*
X005098Y008998D01*
X005098Y008998D01*
X005098Y009392D02*
X004940Y009392D01*
X004940Y009392D01*
X005098Y009392D01*
X005098Y009392D01*
X005098Y009786D02*
X004940Y009786D01*
X004940Y009786D01*
X005098Y009786D01*
X005098Y009786D01*
X006081Y009786D02*
X006239Y009786D01*
X006081Y009786D02*
X006081Y009786D01*
X006239Y009786D01*
X006239Y009786D01*
X006239Y009392D02*
X006081Y009392D01*
X006081Y009392D01*
X006239Y009392D01*
X006239Y009392D01*
X006239Y008998D02*
X006081Y008998D01*
X006081Y008998D01*
X006239Y008998D01*
X006239Y008998D01*
D34*
X005590Y009392D03*
D35*
X006119Y011282D03*
X006456Y012423D03*
X006830Y013841D03*
X006633Y015790D03*
X005885Y013585D03*
X005629Y013388D03*
X005629Y014234D03*
X005471Y014510D03*
X005632Y014794D03*
X005632Y015246D03*
X004943Y015756D03*
X004943Y016156D03*
X004943Y016556D03*
X004943Y016956D03*
X004543Y016956D03*
X004543Y016556D03*
X004543Y016156D03*
X004543Y015756D03*
X004448Y014825D03*
X004763Y014825D03*
X004802Y014195D03*
X004723Y013742D03*
X004684Y013368D03*
X004487Y012738D03*
X004054Y014077D03*
X003739Y013644D03*
X003503Y013959D03*
X002912Y012817D03*
X002912Y011990D03*
X003346Y011597D03*
X003621Y011282D03*
X003739Y010455D03*
X003424Y010140D03*
X003739Y009471D03*
X003857Y008959D03*
X003621Y008408D03*
X003149Y008408D03*
X002676Y008408D03*
X002676Y009904D03*
X002873Y010573D03*
X002401Y012463D03*
X002125Y012266D03*
X001869Y012817D03*
X001259Y012502D03*
X001259Y012187D03*
X001259Y011872D03*
X001251Y011557D03*
X001251Y011242D03*
X001259Y010927D03*
X001810Y008408D03*
X000905Y013565D03*
X001220Y014786D03*
X001259Y015101D03*
X001338Y016282D03*
X001259Y017896D03*
X001101Y018762D03*
X001613Y019077D03*
X001692Y019471D03*
X001653Y018762D03*
X001849Y017935D03*
X002164Y016242D03*
X002479Y015770D03*
X002755Y015416D03*
X002479Y014746D03*
X002991Y017581D03*
X002794Y018408D03*
X002479Y017935D03*
X003660Y019471D03*
X004527Y018171D03*
X004143Y016956D03*
X004143Y016556D03*
X004143Y016156D03*
X004143Y015756D03*
X003743Y015756D03*
X003743Y016156D03*
X003743Y016556D03*
X003743Y016956D03*
X005196Y018742D03*
X005668Y019077D03*
X005668Y019471D03*
X005550Y017463D03*
X007597Y011360D03*
X006849Y010770D03*
X006534Y009392D03*
X004487Y009825D03*
D36*
X002125Y010337D02*
X002125Y007699D01*
X001987Y007679D01*
X001141Y008723D02*
X000786Y009077D01*
X000786Y012975D01*
X001180Y013368D01*
X001532Y013368D01*
X001532Y013368D01*
X001571Y013171D02*
X001259Y013171D01*
X000983Y012896D01*
X000983Y010534D01*
X001062Y010455D01*
X002007Y010455D01*
X002125Y010337D01*
X001141Y008723D02*
X001141Y003368D01*
X001279Y003231D01*
X001594Y003231D01*
X001233Y015849D02*
X001233Y015914D01*
X001062Y016085D01*
X001062Y016308D01*
X001037Y016333D01*
X007223Y006498D02*
X007676Y006046D01*
X007676Y003447D01*
X007460Y003231D01*
X007223Y003231D01*
D37*
X006458Y016516D02*
X006324Y016516D01*
D38*
X006643Y016516D02*
X007489Y016516D01*
D39*
X007335Y016512D01*
D40*
X007223Y007679D02*
X006830Y007679D01*
X006436Y007679D01*
X006042Y007679D01*
X006436Y007286D02*
X006830Y007286D01*
X006830Y007679D01*
X006830Y007286D02*
X006830Y006892D01*
X007223Y006892D02*
X007223Y006498D01*
X007223Y006892D02*
X007223Y007286D01*
X007223Y007679D01*
D41*
X007223Y002817D02*
X006849Y002817D01*
X007223Y002817D02*
X007223Y002443D01*
X007223Y002030D01*
X006220Y002030D01*
X006220Y002049D01*
X006042Y002049D01*
M02*
