G75*
%MOIN*%
%OFA0B0*%
%FSLAX24Y24*%
%IPPOS*%
%LPD*%
%AMOC8*
5,1,8,0,0,1.08239X$1,22.5*
%
%ADD10C,0.0000*%
%ADD11C,0.0039*%
D10*
X000471Y000140D02*
X000471Y019825D01*
X008346Y019825D01*
X008355Y000140D01*
X000471Y000140D01*
X001062Y000927D02*
X001064Y000966D01*
X001070Y001005D01*
X001080Y001043D01*
X001093Y001080D01*
X001110Y001115D01*
X001130Y001149D01*
X001154Y001180D01*
X001181Y001209D01*
X001210Y001235D01*
X001242Y001258D01*
X001276Y001278D01*
X001312Y001294D01*
X001349Y001306D01*
X001388Y001315D01*
X001427Y001320D01*
X001466Y001321D01*
X001505Y001318D01*
X001544Y001311D01*
X001581Y001300D01*
X001618Y001286D01*
X001653Y001268D01*
X001686Y001247D01*
X001717Y001222D01*
X001745Y001195D01*
X001770Y001165D01*
X001792Y001132D01*
X001811Y001098D01*
X001826Y001062D01*
X001838Y001024D01*
X001846Y000986D01*
X001850Y000947D01*
X001850Y000907D01*
X001846Y000868D01*
X001838Y000830D01*
X001826Y000792D01*
X001811Y000756D01*
X001792Y000722D01*
X001770Y000689D01*
X001745Y000659D01*
X001717Y000632D01*
X001686Y000607D01*
X001653Y000586D01*
X001618Y000568D01*
X001581Y000554D01*
X001544Y000543D01*
X001505Y000536D01*
X001466Y000533D01*
X001427Y000534D01*
X001388Y000539D01*
X001349Y000548D01*
X001312Y000560D01*
X001276Y000576D01*
X001242Y000596D01*
X001210Y000619D01*
X001181Y000645D01*
X001154Y000674D01*
X001130Y000705D01*
X001110Y000739D01*
X001093Y000774D01*
X001080Y000811D01*
X001070Y000849D01*
X001064Y000888D01*
X001062Y000927D01*
X001062Y009786D02*
X001064Y009825D01*
X001070Y009864D01*
X001080Y009902D01*
X001093Y009939D01*
X001110Y009974D01*
X001130Y010008D01*
X001154Y010039D01*
X001181Y010068D01*
X001210Y010094D01*
X001242Y010117D01*
X001276Y010137D01*
X001312Y010153D01*
X001349Y010165D01*
X001388Y010174D01*
X001427Y010179D01*
X001466Y010180D01*
X001505Y010177D01*
X001544Y010170D01*
X001581Y010159D01*
X001618Y010145D01*
X001653Y010127D01*
X001686Y010106D01*
X001717Y010081D01*
X001745Y010054D01*
X001770Y010024D01*
X001792Y009991D01*
X001811Y009957D01*
X001826Y009921D01*
X001838Y009883D01*
X001846Y009845D01*
X001850Y009806D01*
X001850Y009766D01*
X001846Y009727D01*
X001838Y009689D01*
X001826Y009651D01*
X001811Y009615D01*
X001792Y009581D01*
X001770Y009548D01*
X001745Y009518D01*
X001717Y009491D01*
X001686Y009466D01*
X001653Y009445D01*
X001618Y009427D01*
X001581Y009413D01*
X001544Y009402D01*
X001505Y009395D01*
X001466Y009392D01*
X001427Y009393D01*
X001388Y009398D01*
X001349Y009407D01*
X001312Y009419D01*
X001276Y009435D01*
X001242Y009455D01*
X001210Y009478D01*
X001181Y009504D01*
X001154Y009533D01*
X001130Y009564D01*
X001110Y009598D01*
X001093Y009633D01*
X001080Y009670D01*
X001070Y009708D01*
X001064Y009747D01*
X001062Y009786D01*
X003488Y012333D02*
X003490Y012361D01*
X003496Y012388D01*
X003505Y012414D01*
X003518Y012439D01*
X003535Y012462D01*
X003554Y012482D01*
X003576Y012499D01*
X003600Y012513D01*
X003626Y012523D01*
X003653Y012530D01*
X003681Y012533D01*
X003709Y012532D01*
X003736Y012527D01*
X003763Y012518D01*
X003788Y012506D01*
X003811Y012491D01*
X003832Y012472D01*
X003850Y012451D01*
X003865Y012427D01*
X003876Y012401D01*
X003884Y012375D01*
X003888Y012347D01*
X003888Y012319D01*
X003884Y012291D01*
X003876Y012265D01*
X003865Y012239D01*
X003850Y012215D01*
X003832Y012194D01*
X003811Y012175D01*
X003788Y012160D01*
X003763Y012148D01*
X003736Y012139D01*
X003709Y012134D01*
X003681Y012133D01*
X003653Y012136D01*
X003626Y012143D01*
X003600Y012153D01*
X003576Y012167D01*
X003554Y012184D01*
X003535Y012204D01*
X003518Y012227D01*
X003505Y012252D01*
X003496Y012278D01*
X003490Y012305D01*
X003488Y012333D01*
X003488Y013133D02*
X003490Y013161D01*
X003496Y013188D01*
X003505Y013214D01*
X003518Y013239D01*
X003535Y013262D01*
X003554Y013282D01*
X003576Y013299D01*
X003600Y013313D01*
X003626Y013323D01*
X003653Y013330D01*
X003681Y013333D01*
X003709Y013332D01*
X003736Y013327D01*
X003763Y013318D01*
X003788Y013306D01*
X003811Y013291D01*
X003832Y013272D01*
X003850Y013251D01*
X003865Y013227D01*
X003876Y013201D01*
X003884Y013175D01*
X003888Y013147D01*
X003888Y013119D01*
X003884Y013091D01*
X003876Y013065D01*
X003865Y013039D01*
X003850Y013015D01*
X003832Y012994D01*
X003811Y012975D01*
X003788Y012960D01*
X003763Y012948D01*
X003736Y012939D01*
X003709Y012934D01*
X003681Y012933D01*
X003653Y012936D01*
X003626Y012943D01*
X003600Y012953D01*
X003576Y012967D01*
X003554Y012984D01*
X003535Y013004D01*
X003518Y013027D01*
X003505Y013052D01*
X003496Y013078D01*
X003490Y013105D01*
X003488Y013133D01*
X005488Y012733D02*
X005490Y012761D01*
X005496Y012788D01*
X005505Y012814D01*
X005518Y012839D01*
X005535Y012862D01*
X005554Y012882D01*
X005576Y012899D01*
X005600Y012913D01*
X005626Y012923D01*
X005653Y012930D01*
X005681Y012933D01*
X005709Y012932D01*
X005736Y012927D01*
X005763Y012918D01*
X005788Y012906D01*
X005811Y012891D01*
X005832Y012872D01*
X005850Y012851D01*
X005865Y012827D01*
X005876Y012801D01*
X005884Y012775D01*
X005888Y012747D01*
X005888Y012719D01*
X005884Y012691D01*
X005876Y012665D01*
X005865Y012639D01*
X005850Y012615D01*
X005832Y012594D01*
X005811Y012575D01*
X005788Y012560D01*
X005763Y012548D01*
X005736Y012539D01*
X005709Y012534D01*
X005681Y012533D01*
X005653Y012536D01*
X005626Y012543D01*
X005600Y012553D01*
X005576Y012567D01*
X005554Y012584D01*
X005535Y012604D01*
X005518Y012627D01*
X005505Y012652D01*
X005496Y012678D01*
X005490Y012705D01*
X005488Y012733D01*
X006967Y009786D02*
X006969Y009825D01*
X006975Y009864D01*
X006985Y009902D01*
X006998Y009939D01*
X007015Y009974D01*
X007035Y010008D01*
X007059Y010039D01*
X007086Y010068D01*
X007115Y010094D01*
X007147Y010117D01*
X007181Y010137D01*
X007217Y010153D01*
X007254Y010165D01*
X007293Y010174D01*
X007332Y010179D01*
X007371Y010180D01*
X007410Y010177D01*
X007449Y010170D01*
X007486Y010159D01*
X007523Y010145D01*
X007558Y010127D01*
X007591Y010106D01*
X007622Y010081D01*
X007650Y010054D01*
X007675Y010024D01*
X007697Y009991D01*
X007716Y009957D01*
X007731Y009921D01*
X007743Y009883D01*
X007751Y009845D01*
X007755Y009806D01*
X007755Y009766D01*
X007751Y009727D01*
X007743Y009689D01*
X007731Y009651D01*
X007716Y009615D01*
X007697Y009581D01*
X007675Y009548D01*
X007650Y009518D01*
X007622Y009491D01*
X007591Y009466D01*
X007558Y009445D01*
X007523Y009427D01*
X007486Y009413D01*
X007449Y009402D01*
X007410Y009395D01*
X007371Y009392D01*
X007332Y009393D01*
X007293Y009398D01*
X007254Y009407D01*
X007217Y009419D01*
X007181Y009435D01*
X007147Y009455D01*
X007115Y009478D01*
X007086Y009504D01*
X007059Y009533D01*
X007035Y009564D01*
X007015Y009598D01*
X006998Y009633D01*
X006985Y009670D01*
X006975Y009708D01*
X006969Y009747D01*
X006967Y009786D01*
X006967Y000927D02*
X006969Y000966D01*
X006975Y001005D01*
X006985Y001043D01*
X006998Y001080D01*
X007015Y001115D01*
X007035Y001149D01*
X007059Y001180D01*
X007086Y001209D01*
X007115Y001235D01*
X007147Y001258D01*
X007181Y001278D01*
X007217Y001294D01*
X007254Y001306D01*
X007293Y001315D01*
X007332Y001320D01*
X007371Y001321D01*
X007410Y001318D01*
X007449Y001311D01*
X007486Y001300D01*
X007523Y001286D01*
X007558Y001268D01*
X007591Y001247D01*
X007622Y001222D01*
X007650Y001195D01*
X007675Y001165D01*
X007697Y001132D01*
X007716Y001098D01*
X007731Y001062D01*
X007743Y001024D01*
X007751Y000986D01*
X007755Y000947D01*
X007755Y000907D01*
X007751Y000868D01*
X007743Y000830D01*
X007731Y000792D01*
X007716Y000756D01*
X007697Y000722D01*
X007675Y000689D01*
X007650Y000659D01*
X007622Y000632D01*
X007591Y000607D01*
X007558Y000586D01*
X007523Y000568D01*
X007486Y000554D01*
X007449Y000543D01*
X007410Y000536D01*
X007371Y000533D01*
X007332Y000534D01*
X007293Y000539D01*
X007254Y000548D01*
X007217Y000560D01*
X007181Y000576D01*
X007147Y000596D01*
X007115Y000619D01*
X007086Y000645D01*
X007059Y000674D01*
X007035Y000705D01*
X007015Y000739D01*
X006998Y000774D01*
X006985Y000811D01*
X006975Y000849D01*
X006969Y000888D01*
X006967Y000927D01*
D11*
X006987Y004431D02*
X007420Y004431D01*
X007420Y005317D01*
X006987Y005317D01*
X004861Y007561D02*
X004861Y007876D01*
X003956Y007876D01*
X003956Y007561D01*
X003956Y007562D02*
X003857Y007543D01*
X003759Y007521D01*
X003662Y007495D01*
X003566Y007465D01*
X003471Y007431D01*
X003377Y007394D01*
X003285Y007353D01*
X003195Y007309D01*
X003107Y007260D01*
X003021Y007209D01*
X002936Y007154D01*
X002854Y007096D01*
X002774Y007035D01*
X002697Y006970D01*
X002622Y006903D01*
X002551Y006833D01*
X002481Y006760D01*
X002415Y006684D01*
X002352Y006606D01*
X002292Y006525D01*
X002235Y006442D01*
X002181Y006357D01*
X002131Y006270D01*
X002084Y006181D01*
X002041Y006090D01*
X002002Y005998D01*
X001966Y005904D01*
X001933Y005809D01*
X001905Y005712D01*
X001880Y005615D01*
X001859Y005516D01*
X001843Y005417D01*
X001830Y005317D01*
X001397Y005317D01*
X001397Y004412D01*
X001830Y004412D01*
X003956Y002286D02*
X003956Y001872D01*
X004861Y001872D01*
X004861Y002286D01*
X004861Y002285D02*
X004960Y002304D01*
X005058Y002327D01*
X005155Y002354D01*
X005250Y002385D01*
X005345Y002419D01*
X005438Y002457D01*
X005530Y002499D01*
X005620Y002544D01*
X005708Y002592D01*
X005794Y002644D01*
X005879Y002699D01*
X005961Y002757D01*
X006041Y002818D01*
X006118Y002883D01*
X006193Y002950D01*
X006265Y003020D01*
X006334Y003093D01*
X006401Y003168D01*
X006465Y003246D01*
X006525Y003327D01*
X006583Y003409D01*
X006637Y003494D01*
X006688Y003581D01*
X006736Y003669D01*
X006780Y003760D01*
X006820Y003852D01*
X006857Y003946D01*
X006891Y004040D01*
X006920Y004137D01*
X006946Y004234D01*
X006969Y004332D01*
X006987Y004431D01*
X006987Y005317D02*
X006974Y005417D01*
X006957Y005516D01*
X006937Y005615D01*
X006912Y005712D01*
X006884Y005809D01*
X006852Y005904D01*
X006816Y005998D01*
X006776Y006091D01*
X006733Y006182D01*
X006686Y006271D01*
X006636Y006358D01*
X006583Y006443D01*
X006526Y006526D01*
X006466Y006607D01*
X006403Y006685D01*
X006336Y006761D01*
X006267Y006834D01*
X006195Y006904D01*
X006120Y006971D01*
X006043Y007036D01*
X005963Y007097D01*
X005881Y007155D01*
X005797Y007210D01*
X005710Y007261D01*
X005622Y007309D01*
X005532Y007354D01*
X005440Y007395D01*
X005346Y007432D01*
X005251Y007465D01*
X005155Y007495D01*
X005058Y007521D01*
X004960Y007543D01*
X004861Y007561D01*
X001829Y004411D02*
X001849Y004313D01*
X001872Y004216D01*
X001898Y004119D01*
X001928Y004024D01*
X001962Y003930D01*
X002000Y003837D01*
X002041Y003746D01*
X002085Y003656D01*
X002133Y003568D01*
X002184Y003482D01*
X002239Y003398D01*
X002296Y003316D01*
X002357Y003237D01*
X002421Y003160D01*
X002487Y003085D01*
X002557Y003013D01*
X002629Y002943D01*
X002704Y002877D01*
X002781Y002813D01*
X002860Y002752D01*
X002942Y002695D01*
X003026Y002640D01*
X003112Y002589D01*
X003200Y002541D01*
X003290Y002497D01*
X003381Y002456D01*
X003474Y002418D01*
X003568Y002384D01*
X003663Y002354D01*
X003760Y002328D01*
X003857Y002305D01*
X003955Y002285D01*
M02*
