G75*
%MOIN*%
%OFA0B0*%
%FSLAX24Y24*%
%IPPOS*%
%LPD*%
%AMOC8*
5,1,8,0,0,1.08239X$1,22.5*
%
%ADD10C,0.0370*%
%ADD11C,0.0460*%
%ADD12R,0.0532X0.0611*%
%ADD13R,0.0375X0.0729*%
%ADD14C,0.0303*%
%ADD15C,0.0800*%
%ADD16C,0.0338*%
%ADD17R,0.0808X0.0995*%
%ADD18R,0.0808X0.0523*%
%ADD19R,0.0887X0.0641*%
%ADD20R,0.0603X0.0237*%
%ADD21C,0.0300*%
D10*
X004070Y008546D03*
X004070Y009046D03*
X004570Y009046D03*
X004570Y008546D03*
X005070Y008546D03*
X005070Y009046D03*
D11*
X005570Y008796D03*
X003570Y009196D03*
X003570Y008396D03*
D12*
X003011Y015376D03*
X002204Y015376D03*
X001023Y015376D03*
X004192Y015376D03*
X004999Y015376D03*
X006180Y015376D03*
D13*
X002813Y007536D03*
X001474Y007536D03*
D14*
X006807Y008071D03*
X007122Y008071D03*
D15*
X005763Y007583D03*
X004763Y007583D03*
D16*
X001338Y000708D03*
X001338Y001101D03*
X001338Y001495D03*
X001338Y001889D03*
X001732Y001495D03*
X001732Y001101D03*
X001732Y000708D03*
X002126Y000708D03*
X002126Y001101D03*
X002519Y000708D03*
X001338Y005432D03*
X001338Y005826D03*
X001338Y006220D03*
X001338Y006613D03*
X001732Y006613D03*
X001732Y006220D03*
X001732Y005826D03*
X002126Y006220D03*
X002126Y006613D03*
X002519Y006613D03*
X006063Y006613D03*
X006456Y006613D03*
X006456Y006220D03*
X006850Y006220D03*
X006850Y006613D03*
X007244Y006613D03*
X007244Y006220D03*
X007244Y005826D03*
X007244Y005432D03*
X006850Y005826D03*
X007244Y001889D03*
X007244Y001495D03*
X007244Y001101D03*
X007244Y000708D03*
X006850Y000708D03*
X006850Y001101D03*
X006850Y001495D03*
X006456Y001101D03*
X006456Y000708D03*
X006063Y000708D03*
D17*
X007283Y009230D03*
X007283Y011523D03*
D18*
X007283Y010706D03*
X007283Y010046D03*
D19*
X006377Y009407D03*
X006377Y011346D03*
D20*
X006235Y010888D03*
X006235Y010632D03*
X006235Y010376D03*
X006235Y010120D03*
X006235Y009864D03*
D21*
X005767Y009648D03*
X005511Y009451D03*
X005511Y010297D03*
X005353Y010573D03*
X005513Y010857D03*
X005513Y011309D03*
X004825Y011819D03*
X004825Y012219D03*
X004825Y012619D03*
X004825Y013019D03*
X004425Y013019D03*
X004425Y012619D03*
X004425Y012219D03*
X004425Y011819D03*
X004025Y011819D03*
X004025Y012219D03*
X004025Y012619D03*
X004025Y013019D03*
X003625Y013019D03*
X003625Y012619D03*
X003625Y012219D03*
X003625Y011819D03*
X004330Y010888D03*
X004645Y010888D03*
X004684Y010258D03*
X004605Y009805D03*
X004566Y009431D03*
X003936Y010140D03*
X003621Y009707D03*
X003385Y010022D03*
X002794Y008880D03*
X002952Y008408D03*
X002755Y008132D03*
X003227Y007660D03*
X003503Y007345D03*
X002125Y007975D03*
X001771Y008723D03*
X001200Y008841D03*
X000905Y009589D03*
X000905Y011597D03*
X001220Y011636D03*
X001220Y012345D03*
X001141Y013959D03*
X000983Y014825D03*
X001495Y015140D03*
X001534Y014825D03*
X001574Y015534D03*
X001731Y013998D03*
X002361Y013998D03*
X002676Y014471D03*
X002873Y013644D03*
X002086Y012502D03*
X002361Y011833D03*
X002637Y011479D03*
X002361Y010809D03*
X001200Y007030D03*
X004408Y014234D03*
X005078Y014805D03*
X005550Y015140D03*
X005550Y015534D03*
X005432Y013526D03*
X006515Y011853D03*
X006712Y009904D03*
X006338Y008486D03*
X007479Y007423D03*
X007676Y006833D03*
X003542Y015534D03*
M02*
