G75*
%MOIN*%
%OFA0B0*%
%FSLAX24Y24*%
%IPPOS*%
%LPD*%
%AMOC8*
5,1,8,0,0,1.08239X$1,22.5*
%
%ADD10C,0.0310*%
%ADD11R,0.0472X0.0551*%
%ADD12R,0.0315X0.0669*%
%ADD13C,0.0243*%
%ADD14C,0.0740*%
%ADD15C,0.0278*%
%ADD16R,0.0748X0.0935*%
%ADD17R,0.0748X0.0463*%
%ADD18R,0.0827X0.0581*%
%ADD19R,0.0543X0.0177*%
%ADD20C,0.0080*%
%ADD21C,0.0240*%
%ADD22C,0.0060*%
D10*
X004070Y008546D03*
X004070Y009046D03*
X004570Y009046D03*
X004570Y008546D03*
X005070Y008546D03*
X005070Y009046D03*
D11*
X004999Y015376D03*
X004192Y015376D03*
X003011Y015376D03*
X002204Y015376D03*
X001023Y015376D03*
X006180Y015376D03*
D12*
X002813Y007536D03*
X001474Y007536D03*
D13*
X006807Y008071D03*
X007122Y008071D03*
D14*
X005763Y007583D03*
X004763Y007583D03*
D15*
X006063Y006613D03*
X006456Y006613D03*
X006456Y006220D03*
X006850Y006220D03*
X006850Y006613D03*
X007244Y006613D03*
X007244Y006220D03*
X007244Y005826D03*
X007244Y005432D03*
X006850Y005826D03*
X007244Y001889D03*
X007244Y001495D03*
X007244Y001101D03*
X007244Y000708D03*
X006850Y000708D03*
X006850Y001101D03*
X006850Y001495D03*
X006456Y001101D03*
X006456Y000708D03*
X006063Y000708D03*
X002519Y000708D03*
X002126Y000708D03*
X002126Y001101D03*
X001732Y001101D03*
X001732Y000708D03*
X001338Y000708D03*
X001338Y001101D03*
X001338Y001495D03*
X001338Y001889D03*
X001732Y001495D03*
X001338Y005432D03*
X001338Y005826D03*
X001338Y006220D03*
X001338Y006613D03*
X001732Y006613D03*
X001732Y006220D03*
X001732Y005826D03*
X002126Y006220D03*
X002126Y006613D03*
X002519Y006613D03*
D16*
X007283Y009230D03*
X007283Y011523D03*
D17*
X007283Y010706D03*
X007283Y010046D03*
D18*
X006377Y009407D03*
X006377Y011346D03*
D19*
X006235Y010888D03*
X006235Y010632D03*
X006235Y010376D03*
X006235Y010120D03*
X006235Y009864D03*
D20*
X000790Y007198D02*
X000790Y000380D01*
X003260Y000380D01*
X000917Y002723D01*
X000876Y002820D01*
X000876Y004501D01*
X000917Y004598D01*
X003353Y007035D01*
X003451Y007075D01*
X005131Y007075D01*
X005228Y007035D01*
X007665Y004598D01*
X007706Y004501D01*
X007706Y002820D01*
X007665Y002723D01*
X005322Y000380D01*
X007800Y000380D01*
X007793Y012069D01*
X007747Y012069D01*
X007777Y012040D01*
X007777Y011006D01*
X007767Y010996D01*
X007777Y010987D01*
X007777Y010425D01*
X007728Y010376D01*
X007777Y010328D01*
X007777Y009765D01*
X007767Y009756D01*
X007777Y009747D01*
X007777Y008712D01*
X007706Y008642D01*
X006859Y008642D01*
X006788Y008712D01*
X006788Y008996D01*
X005963Y008996D01*
X006010Y008883D01*
X006010Y008708D01*
X005943Y008547D01*
X005855Y008459D01*
X006098Y008459D01*
X006098Y008534D01*
X006134Y008622D01*
X006202Y008690D01*
X006290Y008726D01*
X006385Y008726D01*
X006474Y008690D01*
X006541Y008622D01*
X006578Y008534D01*
X006578Y008439D01*
X006541Y008351D01*
X006474Y008283D01*
X006385Y008246D01*
X006310Y008246D01*
X006223Y008159D01*
X005435Y008159D01*
X005425Y008149D01*
X005425Y008149D01*
X005337Y008061D01*
X004313Y008061D01*
X004047Y007794D01*
X004047Y007598D01*
X003959Y007510D01*
X003677Y007510D01*
X003706Y007481D01*
X003743Y007392D01*
X003743Y007297D01*
X003706Y007209D01*
X003639Y007141D01*
X003551Y007105D01*
X003455Y007105D01*
X003367Y007141D01*
X003314Y007195D01*
X003090Y007195D01*
X003090Y007152D01*
X003020Y007081D01*
X002605Y007081D01*
X002535Y007152D01*
X002535Y007920D01*
X002581Y007966D01*
X002551Y007996D01*
X002515Y008084D01*
X002515Y008180D01*
X002517Y008184D01*
X002516Y008184D01*
X002516Y008451D01*
X002509Y008460D01*
X002516Y008516D01*
X002516Y008572D01*
X002524Y008580D01*
X002526Y008592D01*
X002570Y008626D01*
X002610Y008666D01*
X002621Y008666D01*
X002648Y008687D01*
X002591Y008744D01*
X002554Y008832D01*
X002554Y008928D01*
X002591Y009016D01*
X002644Y009070D01*
X002644Y010045D01*
X002684Y010084D01*
X002772Y010172D01*
X003195Y010172D01*
X003249Y010225D01*
X003337Y010262D01*
X003433Y010262D01*
X003521Y010225D01*
X003588Y010158D01*
X003623Y010073D01*
X004327Y010073D01*
X004450Y010197D01*
X004444Y010210D01*
X004444Y010306D01*
X004481Y010394D01*
X004548Y010462D01*
X004619Y010491D01*
X004603Y010507D01*
X004603Y010520D01*
X004524Y010625D01*
X004485Y010664D01*
X004485Y010677D01*
X004477Y010688D01*
X004481Y010713D01*
X004441Y010752D01*
X004405Y010840D01*
X004405Y010936D01*
X004441Y011024D01*
X004460Y011043D01*
X002702Y011043D01*
X002477Y011268D01*
X002477Y011299D01*
X002433Y011343D01*
X002404Y011413D01*
X001931Y010940D01*
X001931Y008902D01*
X001974Y008859D01*
X002011Y008770D01*
X002011Y008675D01*
X001974Y008587D01*
X001907Y008519D01*
X001818Y008483D01*
X001723Y008483D01*
X001635Y008519D01*
X001567Y008587D01*
X001531Y008675D01*
X001531Y008770D01*
X001567Y008859D01*
X001611Y008902D01*
X001611Y011072D01*
X002197Y011658D01*
X002158Y011697D01*
X002121Y011785D01*
X002121Y011881D01*
X002158Y011969D01*
X002225Y012036D01*
X002314Y012073D01*
X002409Y012073D01*
X002497Y012036D01*
X002565Y011969D01*
X002601Y011881D01*
X002601Y011785D01*
X002570Y011711D01*
X002589Y011719D01*
X002685Y011719D01*
X002773Y011682D01*
X002840Y011615D01*
X002877Y011526D01*
X002877Y011431D01*
X002849Y011363D01*
X004947Y011363D01*
X004947Y011639D01*
X005223Y011915D01*
X005311Y012003D01*
X006325Y012003D01*
X006379Y012056D01*
X006467Y012093D01*
X006554Y012093D01*
X006536Y015522D01*
X006536Y015051D01*
X006466Y014981D01*
X005894Y014981D01*
X005824Y015051D01*
X005824Y015374D01*
X005730Y015374D01*
X005693Y015337D01*
X005754Y015276D01*
X005790Y015188D01*
X005790Y015092D01*
X005754Y015004D01*
X005686Y014937D01*
X005598Y014900D01*
X005502Y014900D01*
X005414Y014937D01*
X005371Y014980D01*
X005090Y014980D01*
X005090Y014981D01*
X004713Y014981D01*
X004643Y015051D01*
X004643Y015648D01*
X004548Y015648D01*
X004548Y015051D01*
X004478Y014981D01*
X003906Y014981D01*
X003836Y015051D01*
X003836Y015374D01*
X003722Y015374D01*
X003678Y015330D01*
X003590Y015294D01*
X003495Y015294D01*
X003406Y015330D01*
X003367Y015370D01*
X003367Y015051D01*
X003297Y014981D01*
X003153Y014981D01*
X003151Y014940D01*
X003151Y014877D01*
X003148Y014874D01*
X003148Y014870D01*
X003102Y014827D01*
X003018Y014744D01*
X001761Y014744D01*
X001738Y014689D01*
X001680Y014631D01*
X002349Y014631D01*
X002443Y014537D01*
X002443Y014536D01*
X002473Y014607D01*
X002540Y014674D01*
X002628Y014711D01*
X002724Y014711D01*
X002812Y014674D01*
X002856Y014631D01*
X005420Y014631D01*
X005513Y014537D01*
X005592Y014458D01*
X005592Y013705D01*
X005636Y013662D01*
X005672Y013574D01*
X005672Y013478D01*
X005636Y013390D01*
X005568Y013322D01*
X005480Y013286D01*
X005384Y013286D01*
X005296Y013322D01*
X005229Y013390D01*
X005192Y013478D01*
X005192Y013574D01*
X005229Y013662D01*
X005272Y013705D01*
X005272Y014311D01*
X002856Y014311D01*
X002812Y014267D01*
X002742Y014238D01*
X003033Y013946D01*
X003033Y013823D01*
X003077Y013780D01*
X003113Y013692D01*
X003113Y013596D01*
X003077Y013508D01*
X003009Y013440D01*
X002921Y013404D01*
X002825Y013404D01*
X002737Y013440D01*
X002670Y013508D01*
X002633Y013596D01*
X002633Y013692D01*
X002670Y013780D01*
X002708Y013819D01*
X002216Y014311D01*
X000986Y014311D01*
X000986Y012505D01*
X001040Y012505D01*
X001084Y012548D01*
X001172Y012585D01*
X001267Y012585D01*
X001355Y012548D01*
X001423Y012481D01*
X001460Y012392D01*
X001460Y012297D01*
X001423Y012209D01*
X001355Y012141D01*
X001267Y012105D01*
X001172Y012105D01*
X001084Y012141D01*
X001040Y012185D01*
X000799Y012185D01*
X000790Y012193D01*
X000790Y011809D01*
X000857Y011837D01*
X000952Y011837D01*
X001041Y011800D01*
X001108Y011733D01*
X001145Y011644D01*
X001145Y011549D01*
X001139Y011535D01*
X001313Y011302D01*
X001350Y011265D01*
X001350Y011253D01*
X001357Y011243D01*
X001350Y011192D01*
X001350Y009030D01*
X001403Y008977D01*
X001440Y008889D01*
X001440Y008793D01*
X001403Y008705D01*
X001336Y008637D01*
X001248Y008601D01*
X001152Y008601D01*
X001064Y008637D01*
X000996Y008705D01*
X000966Y008778D01*
X000966Y007472D01*
X001180Y007270D01*
X001248Y007270D01*
X001336Y007233D01*
X001403Y007166D01*
X001440Y007078D01*
X001440Y006982D01*
X001403Y006894D01*
X001382Y006872D01*
X001390Y006872D01*
X001485Y006833D01*
X001535Y006783D01*
X001585Y006833D01*
X001680Y006872D01*
X001783Y006872D01*
X001879Y006833D01*
X001929Y006783D01*
X001979Y006833D01*
X002074Y006872D01*
X002177Y006872D01*
X002272Y006833D01*
X002322Y006783D01*
X002373Y006833D01*
X002468Y006872D01*
X002571Y006872D01*
X002666Y006833D01*
X002739Y006760D01*
X002778Y006665D01*
X002778Y006562D01*
X002739Y006467D01*
X002666Y006394D01*
X002571Y006354D01*
X002468Y006354D01*
X002373Y006394D01*
X002322Y006444D01*
X002295Y006416D01*
X002345Y006366D01*
X002385Y006271D01*
X002385Y006168D01*
X002345Y006073D01*
X002272Y006000D01*
X002177Y005961D01*
X002074Y005961D01*
X001979Y006000D01*
X001929Y006050D01*
X001901Y006023D01*
X001951Y005973D01*
X001991Y005877D01*
X001991Y005774D01*
X001951Y005679D01*
X001879Y005606D01*
X001783Y005567D01*
X001680Y005567D01*
X001585Y005606D01*
X001535Y005656D01*
X001508Y005629D01*
X001558Y005579D01*
X001597Y005484D01*
X001597Y005381D01*
X001558Y005285D01*
X001485Y005213D01*
X001390Y005173D01*
X001287Y005173D01*
X001191Y005213D01*
X001119Y005285D01*
X001079Y005381D01*
X001079Y005484D01*
X001119Y005579D01*
X001169Y005629D01*
X001119Y005679D01*
X001079Y005774D01*
X001079Y005877D01*
X001119Y005973D01*
X001169Y006023D01*
X001119Y006073D01*
X001079Y006168D01*
X001079Y006271D01*
X001119Y006366D01*
X001169Y006416D01*
X001119Y006467D01*
X001079Y006562D01*
X001079Y006665D01*
X001119Y006760D01*
X001149Y006791D01*
X001064Y006826D01*
X000996Y006894D01*
X000960Y006982D01*
X000960Y007037D01*
X000790Y007198D01*
X000790Y007127D02*
X000866Y007127D01*
X000790Y007048D02*
X000948Y007048D01*
X000965Y006970D02*
X000790Y006970D01*
X000790Y006891D02*
X000999Y006891D01*
X001097Y006813D02*
X000790Y006813D01*
X000790Y006734D02*
X001108Y006734D01*
X001079Y006656D02*
X000790Y006656D01*
X000790Y006577D02*
X001079Y006577D01*
X001105Y006499D02*
X000790Y006499D01*
X000790Y006420D02*
X001165Y006420D01*
X001108Y006342D02*
X000790Y006342D01*
X000790Y006263D02*
X001079Y006263D01*
X001079Y006185D02*
X000790Y006185D01*
X000790Y006106D02*
X001105Y006106D01*
X001164Y006028D02*
X000790Y006028D01*
X000790Y005949D02*
X001109Y005949D01*
X001079Y005871D02*
X000790Y005871D01*
X000790Y005792D02*
X001079Y005792D01*
X001104Y005714D02*
X000790Y005714D01*
X000790Y005635D02*
X001163Y005635D01*
X001109Y005557D02*
X000790Y005557D01*
X000790Y005478D02*
X001079Y005478D01*
X001079Y005400D02*
X000790Y005400D01*
X000790Y005321D02*
X001104Y005321D01*
X001162Y005243D02*
X000790Y005243D01*
X000790Y005164D02*
X001483Y005164D01*
X001515Y005243D02*
X001561Y005243D01*
X001573Y005321D02*
X001640Y005321D01*
X001597Y005400D02*
X001718Y005400D01*
X001797Y005478D02*
X001597Y005478D01*
X001567Y005557D02*
X001875Y005557D01*
X001907Y005635D02*
X001954Y005635D01*
X001966Y005714D02*
X002032Y005714D01*
X001991Y005792D02*
X002111Y005792D01*
X002189Y005871D02*
X001991Y005871D01*
X001961Y005949D02*
X002268Y005949D01*
X002300Y006028D02*
X002346Y006028D01*
X002359Y006106D02*
X002425Y006106D01*
X002385Y006185D02*
X002503Y006185D01*
X002582Y006263D02*
X002385Y006263D01*
X002355Y006342D02*
X002660Y006342D01*
X002692Y006420D02*
X002739Y006420D01*
X002752Y006499D02*
X002817Y006499D01*
X002778Y006577D02*
X002896Y006577D01*
X002974Y006656D02*
X002778Y006656D01*
X002750Y006734D02*
X003053Y006734D01*
X003131Y006813D02*
X002686Y006813D01*
X002560Y007127D02*
X001420Y007127D01*
X001440Y007048D02*
X003385Y007048D01*
X003403Y007127D02*
X003065Y007127D01*
X003210Y006891D02*
X001401Y006891D01*
X001435Y006970D02*
X003288Y006970D01*
X003603Y007127D02*
X005584Y007127D01*
X005665Y007093D02*
X005485Y007167D01*
X005348Y007305D01*
X005273Y007485D01*
X005273Y007680D01*
X005348Y007860D01*
X005485Y007998D01*
X005665Y008073D01*
X005860Y008073D01*
X006040Y007998D01*
X006178Y007860D01*
X006253Y007680D01*
X006253Y007485D01*
X006178Y007305D01*
X006040Y007167D01*
X005860Y007093D01*
X005665Y007093D01*
X005451Y006813D02*
X005895Y006813D01*
X005916Y006833D02*
X005843Y006760D01*
X005804Y006665D01*
X005804Y006562D01*
X005843Y006467D01*
X005916Y006394D01*
X006011Y006354D01*
X006114Y006354D01*
X006209Y006394D01*
X006259Y006444D01*
X006287Y006416D01*
X006237Y006366D01*
X006197Y006271D01*
X006197Y006168D01*
X006237Y006073D01*
X006310Y006000D01*
X006405Y005961D01*
X006508Y005961D01*
X006603Y006000D01*
X006653Y006050D01*
X006680Y006023D01*
X006630Y005973D01*
X006591Y005877D01*
X006591Y005774D01*
X006630Y005679D01*
X006703Y005606D01*
X006798Y005567D01*
X006902Y005567D01*
X006997Y005606D01*
X007047Y005656D01*
X007074Y005629D01*
X007024Y005579D01*
X006985Y005484D01*
X006985Y005381D01*
X007024Y005285D01*
X007097Y005213D01*
X007192Y005173D01*
X007295Y005173D01*
X007390Y005213D01*
X007463Y005285D01*
X007503Y005381D01*
X007503Y005484D01*
X007463Y005579D01*
X007413Y005629D01*
X007463Y005679D01*
X007503Y005774D01*
X007503Y005877D01*
X007463Y005973D01*
X007413Y006023D01*
X007463Y006073D01*
X007503Y006168D01*
X007503Y006271D01*
X007463Y006366D01*
X007413Y006416D01*
X007463Y006467D01*
X007503Y006562D01*
X007503Y006665D01*
X007463Y006760D01*
X007390Y006833D01*
X007295Y006872D01*
X007192Y006872D01*
X007097Y006833D01*
X007047Y006783D01*
X006997Y006833D01*
X006902Y006872D01*
X006798Y006872D01*
X006703Y006833D01*
X006653Y006783D01*
X006603Y006833D01*
X006508Y006872D01*
X006405Y006872D01*
X006310Y006833D01*
X006259Y006783D01*
X006209Y006833D01*
X006114Y006872D01*
X006011Y006872D01*
X005916Y006833D01*
X005832Y006734D02*
X005529Y006734D01*
X005608Y006656D02*
X005804Y006656D01*
X005804Y006577D02*
X005686Y006577D01*
X005765Y006499D02*
X005830Y006499D01*
X005843Y006420D02*
X005890Y006420D01*
X005922Y006342D02*
X006226Y006342D01*
X006236Y006420D02*
X006283Y006420D01*
X006197Y006263D02*
X006000Y006263D01*
X006079Y006185D02*
X006197Y006185D01*
X006223Y006106D02*
X006157Y006106D01*
X006236Y006028D02*
X006282Y006028D01*
X006314Y005949D02*
X006621Y005949D01*
X006631Y006028D02*
X006676Y006028D01*
X006591Y005871D02*
X006393Y005871D01*
X006471Y005792D02*
X006591Y005792D01*
X006616Y005714D02*
X006550Y005714D01*
X006628Y005635D02*
X006675Y005635D01*
X006707Y005557D02*
X007015Y005557D01*
X007025Y005635D02*
X007068Y005635D01*
X006985Y005478D02*
X006785Y005478D01*
X006864Y005400D02*
X006985Y005400D01*
X007009Y005321D02*
X006942Y005321D01*
X007021Y005243D02*
X007067Y005243D01*
X007099Y005164D02*
X007797Y005164D01*
X007797Y005086D02*
X007178Y005086D01*
X007256Y005007D02*
X007797Y005007D01*
X007797Y004929D02*
X007335Y004929D01*
X007413Y004850D02*
X007797Y004850D01*
X007797Y004772D02*
X007492Y004772D01*
X007570Y004693D02*
X007798Y004693D01*
X007798Y004615D02*
X007649Y004615D01*
X007691Y004536D02*
X007798Y004536D01*
X007798Y004458D02*
X007706Y004458D01*
X007706Y004379D02*
X007798Y004379D01*
X007798Y004301D02*
X007706Y004301D01*
X007706Y004222D02*
X007798Y004222D01*
X007798Y004144D02*
X007706Y004144D01*
X007706Y004065D02*
X007798Y004065D01*
X007798Y003987D02*
X007706Y003987D01*
X007706Y003908D02*
X007798Y003908D01*
X007798Y003830D02*
X007706Y003830D01*
X007706Y003751D02*
X007798Y003751D01*
X007798Y003673D02*
X007706Y003673D01*
X007706Y003594D02*
X007798Y003594D01*
X007798Y003516D02*
X007706Y003516D01*
X007706Y003437D02*
X007798Y003437D01*
X007798Y003359D02*
X007706Y003359D01*
X007706Y003280D02*
X007798Y003280D01*
X007798Y003202D02*
X007706Y003202D01*
X007706Y003123D02*
X007799Y003123D01*
X007799Y003045D02*
X007706Y003045D01*
X007706Y002966D02*
X007799Y002966D01*
X007799Y002888D02*
X007706Y002888D01*
X007701Y002809D02*
X007799Y002809D01*
X007799Y002731D02*
X007668Y002731D01*
X007594Y002652D02*
X007799Y002652D01*
X007799Y002574D02*
X007516Y002574D01*
X007437Y002495D02*
X007799Y002495D01*
X007799Y002417D02*
X007359Y002417D01*
X007280Y002338D02*
X007799Y002338D01*
X007799Y002260D02*
X007202Y002260D01*
X007123Y002181D02*
X007799Y002181D01*
X007799Y002103D02*
X007396Y002103D01*
X007390Y002109D02*
X007295Y002148D01*
X007192Y002148D01*
X007097Y002109D01*
X007024Y002036D01*
X006985Y001940D01*
X006985Y001837D01*
X007024Y001742D01*
X007074Y001692D01*
X007047Y001665D01*
X006997Y001715D01*
X006902Y001754D01*
X006798Y001754D01*
X006703Y001715D01*
X006630Y001642D01*
X006591Y001547D01*
X006591Y001444D01*
X006630Y001348D01*
X006680Y001298D01*
X006653Y001271D01*
X006603Y001321D01*
X006508Y001361D01*
X006405Y001361D01*
X006310Y001321D01*
X006237Y001248D01*
X006197Y001153D01*
X006197Y001050D01*
X006237Y000955D01*
X006287Y000905D01*
X006259Y000877D01*
X006209Y000927D01*
X006114Y000967D01*
X006011Y000967D01*
X005916Y000927D01*
X005843Y000855D01*
X005804Y000759D01*
X005804Y000656D01*
X005843Y000561D01*
X005916Y000488D01*
X006011Y000449D01*
X006114Y000449D01*
X006209Y000488D01*
X006259Y000538D01*
X006310Y000488D01*
X006405Y000449D01*
X006508Y000449D01*
X006603Y000488D01*
X006653Y000538D01*
X006703Y000488D01*
X006798Y000449D01*
X006902Y000449D01*
X006997Y000488D01*
X007047Y000538D01*
X007097Y000488D01*
X007192Y000449D01*
X007295Y000449D01*
X007390Y000488D01*
X007463Y000561D01*
X007503Y000656D01*
X007503Y000759D01*
X007463Y000855D01*
X007413Y000905D01*
X007463Y000955D01*
X007503Y001050D01*
X007503Y001153D01*
X007463Y001248D01*
X007413Y001298D01*
X007463Y001348D01*
X007503Y001444D01*
X007503Y001547D01*
X007463Y001642D01*
X007413Y001692D01*
X007463Y001742D01*
X007503Y001837D01*
X007503Y001940D01*
X007463Y002036D01*
X007390Y002109D01*
X007468Y002024D02*
X007799Y002024D01*
X007799Y001946D02*
X007501Y001946D01*
X007503Y001867D02*
X007799Y001867D01*
X007799Y001789D02*
X007483Y001789D01*
X007431Y001710D02*
X007799Y001710D01*
X007799Y001632D02*
X007468Y001632D01*
X007500Y001553D02*
X007800Y001553D01*
X007800Y001475D02*
X007503Y001475D01*
X007483Y001396D02*
X007800Y001396D01*
X007800Y001318D02*
X007432Y001318D01*
X007467Y001239D02*
X007800Y001239D01*
X007800Y001161D02*
X007500Y001161D01*
X007503Y001082D02*
X007800Y001082D01*
X007800Y001004D02*
X007484Y001004D01*
X007434Y000925D02*
X007800Y000925D01*
X007800Y000847D02*
X007467Y000847D01*
X007499Y000768D02*
X007800Y000768D01*
X007800Y000690D02*
X007503Y000690D01*
X007484Y000611D02*
X007800Y000611D01*
X007800Y000533D02*
X007435Y000533D01*
X007308Y000454D02*
X007800Y000454D01*
X007179Y000454D02*
X006914Y000454D01*
X007041Y000533D02*
X007053Y000533D01*
X006786Y000454D02*
X006521Y000454D01*
X006647Y000533D02*
X006659Y000533D01*
X006392Y000454D02*
X006127Y000454D01*
X005998Y000454D02*
X005396Y000454D01*
X005475Y000533D02*
X005872Y000533D01*
X005822Y000611D02*
X005553Y000611D01*
X005632Y000690D02*
X005804Y000690D01*
X005807Y000768D02*
X005710Y000768D01*
X005789Y000847D02*
X005840Y000847D01*
X005867Y000925D02*
X005913Y000925D01*
X005946Y001004D02*
X006216Y001004D01*
X006212Y000925D02*
X006266Y000925D01*
X006197Y001082D02*
X006024Y001082D01*
X006103Y001161D02*
X006200Y001161D01*
X006181Y001239D02*
X006233Y001239D01*
X006260Y001318D02*
X006306Y001318D01*
X006338Y001396D02*
X006611Y001396D01*
X006607Y001318D02*
X006661Y001318D01*
X006591Y001475D02*
X006417Y001475D01*
X006495Y001553D02*
X006594Y001553D01*
X006574Y001632D02*
X006626Y001632D01*
X006652Y001710D02*
X006698Y001710D01*
X006731Y001789D02*
X007005Y001789D01*
X007002Y001710D02*
X007056Y001710D01*
X006985Y001867D02*
X006809Y001867D01*
X006888Y001946D02*
X006987Y001946D01*
X006966Y002024D02*
X007019Y002024D01*
X007045Y002103D02*
X007091Y002103D01*
X006265Y000533D02*
X006254Y000533D01*
X007420Y005243D02*
X007797Y005243D01*
X007797Y005321D02*
X007478Y005321D01*
X007503Y005400D02*
X007797Y005400D01*
X007797Y005478D02*
X007503Y005478D01*
X007473Y005557D02*
X007797Y005557D01*
X007797Y005635D02*
X007419Y005635D01*
X007478Y005714D02*
X007797Y005714D01*
X007797Y005792D02*
X007503Y005792D01*
X007503Y005871D02*
X007797Y005871D01*
X007797Y005949D02*
X007473Y005949D01*
X007418Y006028D02*
X007797Y006028D01*
X007797Y006106D02*
X007477Y006106D01*
X007503Y006185D02*
X007797Y006185D01*
X007797Y006263D02*
X007503Y006263D01*
X007474Y006342D02*
X007797Y006342D01*
X007796Y006420D02*
X007417Y006420D01*
X007477Y006499D02*
X007796Y006499D01*
X007796Y006577D02*
X007503Y006577D01*
X007503Y006656D02*
X007796Y006656D01*
X007796Y006734D02*
X007474Y006734D01*
X007411Y006813D02*
X007796Y006813D01*
X007796Y006891D02*
X005372Y006891D01*
X005294Y006970D02*
X007796Y006970D01*
X007796Y007048D02*
X005197Y007048D01*
X005369Y007284D02*
X003737Y007284D01*
X003743Y007362D02*
X005324Y007362D01*
X005291Y007441D02*
X003723Y007441D01*
X003703Y007205D02*
X005448Y007205D01*
X005273Y007519D02*
X003968Y007519D01*
X004047Y007598D02*
X005273Y007598D01*
X005273Y007676D02*
X004047Y007676D01*
X004047Y007755D02*
X005304Y007755D01*
X005336Y007833D02*
X004085Y007833D01*
X004164Y007912D02*
X005399Y007912D01*
X005477Y007990D02*
X004242Y007990D01*
X004132Y008304D02*
X004008Y008304D01*
X004010Y008308D02*
X004010Y008483D01*
X003943Y008645D01*
X003819Y008769D01*
X003754Y008796D01*
X003819Y008823D01*
X003861Y008865D01*
X003914Y008813D01*
X004015Y008771D01*
X004124Y008771D01*
X004225Y008813D01*
X004303Y008890D01*
X004320Y008931D01*
X004337Y008890D01*
X004414Y008813D01*
X004455Y008796D01*
X004414Y008779D01*
X004337Y008702D01*
X004295Y008600D01*
X004295Y008491D01*
X004337Y008390D01*
X004366Y008361D01*
X004189Y008361D01*
X004101Y008273D01*
X003747Y007919D01*
X003747Y007810D01*
X003417Y007810D01*
X003363Y007863D01*
X003275Y007900D01*
X003180Y007900D01*
X003091Y007863D01*
X003090Y007862D01*
X003090Y007920D01*
X003020Y007991D01*
X002953Y007991D01*
X002958Y007996D01*
X002995Y008084D01*
X002995Y008180D01*
X002958Y008268D01*
X002891Y008336D01*
X002836Y008358D01*
X002836Y008428D01*
X003085Y008622D01*
X003097Y008622D01*
X003137Y008662D01*
X003181Y008696D01*
X003182Y008707D01*
X003191Y008715D01*
X003191Y008772D01*
X003198Y008828D01*
X003191Y008837D01*
X003191Y008961D01*
X003197Y008947D01*
X003320Y008823D01*
X003386Y008796D01*
X003320Y008769D01*
X003197Y008645D01*
X003130Y008483D01*
X003130Y008308D01*
X003197Y008147D01*
X003196Y008147D02*
X002995Y008147D01*
X002988Y008069D02*
X003275Y008069D01*
X003320Y008023D02*
X003197Y008147D01*
X003164Y008226D02*
X002976Y008226D01*
X002922Y008304D02*
X003131Y008304D01*
X003130Y008383D02*
X002836Y008383D01*
X002879Y008461D02*
X003130Y008461D01*
X003153Y008540D02*
X002980Y008540D01*
X003081Y008618D02*
X003185Y008618D01*
X003181Y008697D02*
X003248Y008697D01*
X003191Y008775D02*
X003336Y008775D01*
X003290Y008854D02*
X003191Y008854D01*
X003191Y008932D02*
X003211Y008932D01*
X003031Y008782D02*
X003031Y009549D01*
X003227Y009707D01*
X003503Y009707D01*
X003621Y009707D01*
X003608Y010110D02*
X004363Y010110D01*
X004441Y010188D02*
X003558Y010188D01*
X003212Y010188D02*
X001931Y010188D01*
X001931Y010110D02*
X002709Y010110D01*
X002644Y010031D02*
X001931Y010031D01*
X001931Y009953D02*
X002644Y009953D01*
X002644Y009874D02*
X001931Y009874D01*
X001931Y009796D02*
X002644Y009796D01*
X002644Y009717D02*
X001931Y009717D01*
X001931Y009639D02*
X002644Y009639D01*
X002644Y009560D02*
X001931Y009560D01*
X001931Y009482D02*
X002644Y009482D01*
X002644Y009403D02*
X001931Y009403D01*
X001931Y009325D02*
X002644Y009325D01*
X002644Y009246D02*
X001931Y009246D01*
X001931Y009168D02*
X002644Y009168D01*
X002644Y009089D02*
X001931Y009089D01*
X001931Y009011D02*
X002589Y009011D01*
X002556Y008932D02*
X001931Y008932D01*
X001976Y008854D02*
X002554Y008854D01*
X002578Y008775D02*
X002009Y008775D01*
X002011Y008697D02*
X002639Y008697D01*
X002559Y008618D02*
X001987Y008618D01*
X001927Y008540D02*
X002516Y008540D01*
X002509Y008461D02*
X000966Y008461D01*
X000966Y008383D02*
X002516Y008383D01*
X002516Y008304D02*
X000966Y008304D01*
X000966Y008226D02*
X002516Y008226D01*
X002515Y008147D02*
X000966Y008147D01*
X000966Y008069D02*
X002522Y008069D01*
X002558Y007990D02*
X000966Y007990D01*
X000966Y007912D02*
X002535Y007912D01*
X002535Y007833D02*
X000966Y007833D01*
X000966Y007755D02*
X002535Y007755D01*
X002535Y007676D02*
X000966Y007676D01*
X000966Y007598D02*
X002535Y007598D01*
X002535Y007519D02*
X000966Y007519D01*
X001000Y007441D02*
X002535Y007441D01*
X002535Y007362D02*
X001082Y007362D01*
X001165Y007284D02*
X002535Y007284D01*
X002535Y007205D02*
X001364Y007205D01*
X001200Y007030D02*
X000806Y007404D01*
X000806Y009471D01*
X000905Y009589D01*
X000966Y008775D02*
X000967Y008775D01*
X000966Y008697D02*
X001005Y008697D01*
X000966Y008618D02*
X001110Y008618D01*
X000966Y008540D02*
X001614Y008540D01*
X001554Y008618D02*
X001289Y008618D01*
X001395Y008697D02*
X001531Y008697D01*
X001533Y008775D02*
X001432Y008775D01*
X001440Y008854D02*
X001565Y008854D01*
X001611Y008932D02*
X001422Y008932D01*
X001370Y009011D02*
X001611Y009011D01*
X001611Y009089D02*
X001350Y009089D01*
X001350Y009168D02*
X001611Y009168D01*
X001611Y009246D02*
X001350Y009246D01*
X001350Y009325D02*
X001611Y009325D01*
X001611Y009403D02*
X001350Y009403D01*
X001350Y009482D02*
X001611Y009482D01*
X001611Y009560D02*
X001350Y009560D01*
X001350Y009639D02*
X001611Y009639D01*
X001611Y009717D02*
X001350Y009717D01*
X001350Y009796D02*
X001611Y009796D01*
X001611Y009874D02*
X001350Y009874D01*
X001350Y009953D02*
X001611Y009953D01*
X001611Y010031D02*
X001350Y010031D01*
X001350Y010110D02*
X001611Y010110D01*
X001611Y010188D02*
X001350Y010188D01*
X001350Y010267D02*
X001611Y010267D01*
X001611Y010345D02*
X001350Y010345D01*
X001350Y010424D02*
X001611Y010424D01*
X001611Y010502D02*
X001350Y010502D01*
X001350Y010581D02*
X001611Y010581D01*
X001611Y010659D02*
X001350Y010659D01*
X001350Y010738D02*
X001611Y010738D01*
X001611Y010816D02*
X001350Y010816D01*
X001350Y010895D02*
X001611Y010895D01*
X001611Y010973D02*
X001350Y010973D01*
X001350Y011052D02*
X001611Y011052D01*
X001668Y011130D02*
X001350Y011130D01*
X001352Y011209D02*
X001747Y011209D01*
X001825Y011287D02*
X001328Y011287D01*
X001265Y011366D02*
X001904Y011366D01*
X001982Y011444D02*
X001207Y011444D01*
X001148Y011523D02*
X002061Y011523D01*
X002139Y011601D02*
X001145Y011601D01*
X001130Y011680D02*
X002175Y011680D01*
X002132Y011758D02*
X001083Y011758D01*
X000953Y011837D02*
X002121Y011837D01*
X002135Y011915D02*
X000790Y011915D01*
X000790Y011837D02*
X000856Y011837D01*
X000790Y011994D02*
X002182Y011994D01*
X002311Y012072D02*
X000790Y012072D01*
X000790Y012151D02*
X001074Y012151D01*
X001220Y012345D02*
X000865Y012345D01*
X000826Y012384D01*
X000826Y014431D01*
X000865Y014471D01*
X001220Y014471D01*
X002283Y014471D01*
X002873Y013880D01*
X002873Y013644D01*
X002819Y013407D02*
X000986Y013407D01*
X000986Y013485D02*
X002693Y013485D01*
X002647Y013564D02*
X000986Y013564D01*
X000986Y013642D02*
X002633Y013642D01*
X002645Y013721D02*
X000986Y013721D01*
X000986Y013799D02*
X002689Y013799D01*
X002649Y013878D02*
X000986Y013878D01*
X000986Y013956D02*
X002571Y013956D01*
X002492Y014035D02*
X000986Y014035D01*
X000986Y014113D02*
X002414Y014113D01*
X002335Y014192D02*
X000986Y014192D01*
X000986Y014270D02*
X002257Y014270D01*
X002395Y014584D02*
X002463Y014584D01*
X002529Y014663D02*
X001711Y014663D01*
X001759Y014741D02*
X006540Y014741D01*
X006541Y014663D02*
X002824Y014663D01*
X002676Y014471D02*
X005353Y014471D01*
X005432Y014392D01*
X005432Y013526D01*
X005644Y013642D02*
X006546Y013642D01*
X006546Y013564D02*
X005672Y013564D01*
X005672Y013485D02*
X006547Y013485D01*
X006547Y013407D02*
X005642Y013407D01*
X005574Y013328D02*
X006548Y013328D01*
X006548Y013250D02*
X000986Y013250D01*
X000986Y013328D02*
X005290Y013328D01*
X005222Y013407D02*
X002927Y013407D01*
X003054Y013485D02*
X005192Y013485D01*
X005192Y013564D02*
X003100Y013564D01*
X003113Y013642D02*
X005220Y013642D01*
X005272Y013721D02*
X003101Y013721D01*
X003057Y013799D02*
X005272Y013799D01*
X005272Y013878D02*
X003033Y013878D01*
X003023Y013956D02*
X005272Y013956D01*
X005272Y014035D02*
X002945Y014035D01*
X002866Y014113D02*
X005272Y014113D01*
X005272Y014192D02*
X002788Y014192D01*
X002815Y014270D02*
X005272Y014270D01*
X005466Y014584D02*
X006541Y014584D01*
X006542Y014506D02*
X005545Y014506D01*
X005592Y014427D02*
X006542Y014427D01*
X006542Y014349D02*
X005592Y014349D01*
X005592Y014270D02*
X006543Y014270D01*
X006543Y014192D02*
X005592Y014192D01*
X005592Y014113D02*
X006544Y014113D01*
X006544Y014035D02*
X005592Y014035D01*
X005592Y013956D02*
X006544Y013956D01*
X006545Y013878D02*
X005592Y013878D01*
X005592Y013799D02*
X006545Y013799D01*
X006546Y013721D02*
X005592Y013721D01*
X005726Y014977D02*
X006539Y014977D01*
X006536Y015055D02*
X006539Y015055D01*
X006536Y015134D02*
X006538Y015134D01*
X006536Y015212D02*
X006538Y015212D01*
X006536Y015291D02*
X006538Y015291D01*
X006536Y015369D02*
X006537Y015369D01*
X006536Y015448D02*
X006537Y015448D01*
X006540Y014898D02*
X003151Y014898D01*
X003153Y014977D02*
X005374Y014977D01*
X005550Y015140D02*
X005157Y015140D01*
X005157Y015297D01*
X005117Y015297D01*
X004999Y015376D01*
X004643Y015369D02*
X004548Y015369D01*
X004548Y015291D02*
X004643Y015291D01*
X004643Y015212D02*
X004548Y015212D01*
X004548Y015134D02*
X004643Y015134D01*
X004643Y015055D02*
X004548Y015055D01*
X004548Y015448D02*
X004643Y015448D01*
X004643Y015526D02*
X004548Y015526D01*
X004548Y015605D02*
X004643Y015605D01*
X004228Y015455D02*
X004192Y015376D01*
X004015Y015534D01*
X003542Y015534D01*
X003717Y015369D02*
X003836Y015369D01*
X003836Y015291D02*
X003367Y015291D01*
X003367Y015369D02*
X003368Y015369D01*
X003367Y015212D02*
X003836Y015212D01*
X003836Y015134D02*
X003367Y015134D01*
X003367Y015055D02*
X003836Y015055D01*
X003094Y014820D02*
X006540Y014820D01*
X006180Y015376D02*
X006023Y015534D01*
X005550Y015534D01*
X005725Y015369D02*
X005824Y015369D01*
X005824Y015291D02*
X005739Y015291D01*
X005780Y015212D02*
X005824Y015212D01*
X005824Y015134D02*
X005790Y015134D01*
X005775Y015055D02*
X005824Y015055D01*
X006180Y015376D02*
X006194Y015455D01*
X006548Y013171D02*
X000986Y013171D01*
X000986Y013093D02*
X006549Y013093D01*
X006549Y013014D02*
X000986Y013014D01*
X000986Y012936D02*
X006550Y012936D01*
X006550Y012857D02*
X000986Y012857D01*
X000986Y012779D02*
X006551Y012779D01*
X006551Y012700D02*
X000986Y012700D01*
X000986Y012622D02*
X006551Y012622D01*
X006552Y012543D02*
X001361Y012543D01*
X001430Y012465D02*
X006552Y012465D01*
X006553Y012386D02*
X001460Y012386D01*
X001460Y012308D02*
X006553Y012308D01*
X006553Y012229D02*
X001431Y012229D01*
X001365Y012151D02*
X006554Y012151D01*
X006417Y012072D02*
X002411Y012072D01*
X002540Y011994D02*
X005302Y011994D01*
X005223Y011915D02*
X002587Y011915D01*
X002601Y011837D02*
X005145Y011837D01*
X005066Y011758D02*
X002590Y011758D01*
X002637Y011479D02*
X002637Y011334D01*
X002768Y011203D01*
X004999Y011203D01*
X005075Y011053D02*
X005120Y011053D01*
X005160Y011092D01*
X005247Y011180D01*
X005247Y011515D01*
X005435Y011703D01*
X005860Y011703D01*
X005844Y011686D01*
X005844Y011042D01*
X005815Y011038D01*
X005764Y011038D01*
X005755Y011029D01*
X005743Y011028D01*
X005712Y010987D01*
X005676Y010950D01*
X005676Y010938D01*
X005653Y010908D01*
X005617Y010871D01*
X005617Y010859D01*
X005609Y010850D01*
X005617Y010799D01*
X005617Y010513D01*
X005593Y010523D01*
X005593Y010525D01*
X005593Y010621D01*
X005557Y010709D01*
X005489Y010777D01*
X005401Y010813D01*
X005306Y010813D01*
X005217Y010777D01*
X005174Y010733D01*
X004843Y010733D01*
X004837Y010741D01*
X004848Y010752D01*
X004885Y010840D01*
X004885Y010936D01*
X004848Y011024D01*
X004829Y011043D01*
X005065Y011043D01*
X005075Y011053D01*
X005074Y011052D02*
X005844Y011052D01*
X005844Y011130D02*
X005197Y011130D01*
X005247Y011209D02*
X005844Y011209D01*
X005844Y011287D02*
X005247Y011287D01*
X005247Y011366D02*
X005844Y011366D01*
X005844Y011444D02*
X005247Y011444D01*
X005255Y011523D02*
X005844Y011523D01*
X005844Y011601D02*
X005334Y011601D01*
X005412Y011680D02*
X005844Y011680D01*
X005699Y010973D02*
X004869Y010973D01*
X004885Y010895D02*
X005640Y010895D01*
X005614Y010816D02*
X004875Y010816D01*
X004839Y010738D02*
X005178Y010738D01*
X005353Y010573D02*
X004763Y010573D01*
X004645Y010731D01*
X004645Y010888D01*
X004557Y010581D02*
X001931Y010581D01*
X001931Y010659D02*
X004490Y010659D01*
X004456Y010738D02*
X001931Y010738D01*
X001931Y010816D02*
X004415Y010816D01*
X004405Y010895D02*
X001931Y010895D01*
X001964Y010973D02*
X004420Y010973D01*
X004608Y010502D02*
X001931Y010502D01*
X001931Y010424D02*
X004510Y010424D01*
X004460Y010345D02*
X001931Y010345D01*
X001931Y010267D02*
X004444Y010267D01*
X004605Y009805D02*
X005038Y009431D01*
X005038Y009097D01*
X005070Y009046D01*
X005117Y008565D02*
X005070Y008546D01*
X005344Y008069D02*
X005655Y008069D01*
X005871Y008069D02*
X007795Y008069D01*
X007795Y008147D02*
X005423Y008147D01*
X005857Y008461D02*
X006098Y008461D01*
X006100Y008540D02*
X005936Y008540D01*
X005972Y008618D02*
X006132Y008618D01*
X006218Y008697D02*
X006005Y008697D01*
X006010Y008775D02*
X006788Y008775D01*
X006788Y008854D02*
X006010Y008854D01*
X005989Y008932D02*
X006788Y008932D01*
X006804Y008697D02*
X006458Y008697D01*
X006543Y008618D02*
X007795Y008618D01*
X007795Y008540D02*
X006575Y008540D01*
X006578Y008461D02*
X007795Y008461D01*
X007795Y008383D02*
X006554Y008383D01*
X006495Y008304D02*
X007795Y008304D01*
X007795Y008226D02*
X006289Y008226D01*
X006127Y007912D02*
X007796Y007912D01*
X007795Y007990D02*
X006049Y007990D01*
X006190Y007833D02*
X007796Y007833D01*
X007796Y007755D02*
X006222Y007755D01*
X006253Y007676D02*
X007796Y007676D01*
X007796Y007598D02*
X006253Y007598D01*
X006253Y007519D02*
X007796Y007519D01*
X007796Y007441D02*
X006234Y007441D01*
X006202Y007362D02*
X007796Y007362D01*
X007796Y007284D02*
X006157Y007284D01*
X006078Y007205D02*
X007796Y007205D01*
X007796Y007127D02*
X005942Y007127D01*
X006230Y006813D02*
X006289Y006813D01*
X006623Y006813D02*
X006683Y006813D01*
X007017Y006813D02*
X007077Y006813D01*
X007761Y008697D02*
X007795Y008697D01*
X007795Y008775D02*
X007777Y008775D01*
X007777Y008854D02*
X007795Y008854D01*
X007795Y008932D02*
X007777Y008932D01*
X007777Y009011D02*
X007795Y009011D01*
X007795Y009089D02*
X007777Y009089D01*
X007777Y009168D02*
X007795Y009168D01*
X007795Y009246D02*
X007777Y009246D01*
X007777Y009325D02*
X007795Y009325D01*
X007795Y009403D02*
X007777Y009403D01*
X007777Y009482D02*
X007795Y009482D01*
X007795Y009560D02*
X007777Y009560D01*
X007777Y009639D02*
X007794Y009639D01*
X007794Y009717D02*
X007777Y009717D01*
X007777Y009796D02*
X007794Y009796D01*
X007794Y009874D02*
X007777Y009874D01*
X007777Y009953D02*
X007794Y009953D01*
X007794Y010031D02*
X007777Y010031D01*
X007777Y010110D02*
X007794Y010110D01*
X007794Y010188D02*
X007777Y010188D01*
X007777Y010267D02*
X007794Y010267D01*
X007794Y010345D02*
X007759Y010345D01*
X007775Y010424D02*
X007794Y010424D01*
X007794Y010502D02*
X007777Y010502D01*
X007777Y010581D02*
X007794Y010581D01*
X007794Y010659D02*
X007777Y010659D01*
X007777Y010738D02*
X007794Y010738D01*
X007794Y010816D02*
X007777Y010816D01*
X007777Y010895D02*
X007794Y010895D01*
X007794Y010973D02*
X007777Y010973D01*
X007777Y011052D02*
X007794Y011052D01*
X007794Y011130D02*
X007777Y011130D01*
X007777Y011209D02*
X007793Y011209D01*
X007793Y011287D02*
X007777Y011287D01*
X007777Y011366D02*
X007793Y011366D01*
X007793Y011444D02*
X007777Y011444D01*
X007777Y011523D02*
X007793Y011523D01*
X007793Y011601D02*
X007777Y011601D01*
X007777Y011680D02*
X007793Y011680D01*
X007793Y011758D02*
X007777Y011758D01*
X007777Y011837D02*
X007793Y011837D01*
X007793Y011915D02*
X007777Y011915D01*
X007777Y011994D02*
X007793Y011994D01*
X006788Y010425D02*
X006837Y010376D01*
X006788Y010328D01*
X006788Y009817D01*
X005937Y009817D01*
X005917Y009837D01*
X005917Y009912D01*
X006557Y009912D01*
X006627Y009982D01*
X006627Y010935D01*
X006788Y010935D01*
X006788Y010425D01*
X006790Y010424D02*
X006627Y010424D01*
X006627Y010502D02*
X006788Y010502D01*
X006788Y010581D02*
X006627Y010581D01*
X006627Y010659D02*
X006788Y010659D01*
X006788Y010738D02*
X006627Y010738D01*
X006627Y010816D02*
X006788Y010816D01*
X006788Y010895D02*
X006627Y010895D01*
X006627Y010345D02*
X006806Y010345D01*
X006788Y010267D02*
X006627Y010267D01*
X006627Y010188D02*
X006788Y010188D01*
X006788Y010110D02*
X006627Y010110D01*
X006627Y010031D02*
X006788Y010031D01*
X006788Y009953D02*
X006597Y009953D01*
X006788Y009874D02*
X005917Y009874D01*
X005617Y010581D02*
X005593Y010581D01*
X005578Y010659D02*
X005617Y010659D01*
X005617Y010738D02*
X005528Y010738D01*
X005511Y010297D02*
X005511Y009451D01*
X004947Y011366D02*
X002850Y011366D01*
X002877Y011444D02*
X004947Y011444D01*
X004947Y011523D02*
X002877Y011523D01*
X002846Y011601D02*
X004947Y011601D01*
X004988Y011680D02*
X002775Y011680D01*
X002477Y011287D02*
X002278Y011287D01*
X002356Y011366D02*
X002424Y011366D01*
X002361Y011597D02*
X002361Y011833D01*
X002361Y011597D02*
X001771Y011006D01*
X001771Y008723D01*
X002676Y008506D02*
X002676Y008250D01*
X002755Y008171D01*
X002755Y008132D01*
X002676Y008506D02*
X003031Y008782D01*
X003020Y007990D02*
X003399Y007990D01*
X003320Y008023D02*
X003482Y007956D01*
X003657Y007956D01*
X003819Y008023D01*
X003943Y008147D01*
X003975Y008147D01*
X003943Y008147D02*
X004010Y008308D01*
X004010Y008383D02*
X004344Y008383D01*
X004307Y008461D02*
X004010Y008461D01*
X003986Y008540D02*
X004295Y008540D01*
X004302Y008618D02*
X003954Y008618D01*
X003891Y008697D02*
X004334Y008697D01*
X004410Y008775D02*
X004135Y008775D01*
X004266Y008854D02*
X004373Y008854D01*
X004570Y009046D02*
X004570Y009310D01*
X004566Y009431D01*
X004054Y008226D02*
X003975Y008226D01*
X003897Y008069D02*
X003865Y008069D01*
X003818Y007990D02*
X003740Y007990D01*
X003747Y007912D02*
X003090Y007912D01*
X002813Y007536D02*
X002852Y007366D01*
X002873Y007345D01*
X003393Y007833D02*
X003747Y007833D01*
X003804Y008775D02*
X004005Y008775D01*
X003873Y008854D02*
X003850Y008854D01*
X002693Y011052D02*
X002042Y011052D01*
X002121Y011130D02*
X002615Y011130D01*
X002536Y011209D02*
X002199Y011209D01*
X001078Y012543D02*
X000986Y012543D01*
X001220Y014471D02*
X001259Y014510D01*
X001259Y014904D01*
X001495Y015140D01*
X001613Y014904D02*
X001534Y014864D01*
X001534Y014825D01*
X001613Y014904D02*
X002952Y014904D01*
X002991Y014943D01*
X003011Y015376D01*
X002204Y015376D02*
X001968Y015534D01*
X001574Y015534D01*
X002080Y015455D02*
X002204Y015376D01*
X001023Y015376D02*
X000983Y015219D01*
X000983Y014825D01*
X001023Y015376D02*
X000905Y015415D01*
X001505Y006813D02*
X001565Y006813D01*
X001899Y006813D02*
X001958Y006813D01*
X002293Y006813D02*
X002352Y006813D01*
X002346Y006420D02*
X002299Y006420D01*
X001951Y006028D02*
X001906Y006028D01*
X001556Y005635D02*
X001514Y005635D01*
X001404Y005086D02*
X000790Y005086D01*
X000790Y005007D02*
X001326Y005007D01*
X001247Y004929D02*
X000790Y004929D01*
X000790Y004850D02*
X001169Y004850D01*
X001090Y004772D02*
X000790Y004772D01*
X000790Y004693D02*
X001012Y004693D01*
X000933Y004615D02*
X000790Y004615D01*
X000790Y004536D02*
X000891Y004536D01*
X000876Y004458D02*
X000790Y004458D01*
X000790Y004379D02*
X000876Y004379D01*
X000876Y004301D02*
X000790Y004301D01*
X000790Y004222D02*
X000876Y004222D01*
X000876Y004144D02*
X000790Y004144D01*
X000790Y004065D02*
X000876Y004065D01*
X000876Y003987D02*
X000790Y003987D01*
X000790Y003908D02*
X000876Y003908D01*
X000876Y003830D02*
X000790Y003830D01*
X000790Y003751D02*
X000876Y003751D01*
X000876Y003673D02*
X000790Y003673D01*
X000790Y003594D02*
X000876Y003594D01*
X000876Y003516D02*
X000790Y003516D01*
X000790Y003437D02*
X000876Y003437D01*
X000876Y003359D02*
X000790Y003359D01*
X000790Y003280D02*
X000876Y003280D01*
X000876Y003202D02*
X000790Y003202D01*
X000790Y003123D02*
X000876Y003123D01*
X000876Y003045D02*
X000790Y003045D01*
X000790Y002966D02*
X000876Y002966D01*
X000876Y002888D02*
X000790Y002888D01*
X000790Y002809D02*
X000881Y002809D01*
X000914Y002731D02*
X000790Y002731D01*
X000790Y002652D02*
X000988Y002652D01*
X001066Y002574D02*
X000790Y002574D01*
X000790Y002495D02*
X001145Y002495D01*
X001223Y002417D02*
X000790Y002417D01*
X000790Y002338D02*
X001302Y002338D01*
X001380Y002260D02*
X000790Y002260D01*
X000790Y002181D02*
X001459Y002181D01*
X001485Y002109D02*
X001390Y002148D01*
X001287Y002148D01*
X001191Y002109D01*
X001119Y002036D01*
X001079Y001940D01*
X001079Y001837D01*
X001119Y001742D01*
X001169Y001692D01*
X001119Y001642D01*
X001079Y001547D01*
X001079Y001444D01*
X001119Y001348D01*
X001169Y001298D01*
X001119Y001248D01*
X001079Y001153D01*
X001079Y001050D01*
X001119Y000955D01*
X001169Y000905D01*
X001119Y000855D01*
X001079Y000759D01*
X001079Y000656D01*
X001119Y000561D01*
X001191Y000488D01*
X001287Y000449D01*
X001390Y000449D01*
X001485Y000488D01*
X001535Y000538D01*
X001585Y000488D01*
X001680Y000449D01*
X001783Y000449D01*
X001879Y000488D01*
X001929Y000538D01*
X001979Y000488D01*
X002074Y000449D01*
X002177Y000449D01*
X002272Y000488D01*
X002322Y000538D01*
X002373Y000488D01*
X002468Y000449D01*
X002571Y000449D01*
X002666Y000488D01*
X002739Y000561D01*
X002778Y000656D01*
X002778Y000759D01*
X002739Y000855D01*
X002666Y000927D01*
X002571Y000967D01*
X002468Y000967D01*
X002373Y000927D01*
X002322Y000877D01*
X002295Y000905D01*
X002345Y000955D01*
X002385Y001050D01*
X002385Y001153D01*
X002345Y001248D01*
X002272Y001321D01*
X002177Y001361D01*
X002074Y001361D01*
X001979Y001321D01*
X001929Y001271D01*
X001901Y001298D01*
X001951Y001348D01*
X001991Y001444D01*
X001991Y001547D01*
X001951Y001642D01*
X001879Y001715D01*
X001783Y001754D01*
X001680Y001754D01*
X001585Y001715D01*
X001535Y001665D01*
X001508Y001692D01*
X001558Y001742D01*
X001597Y001837D01*
X001597Y001940D01*
X001558Y002036D01*
X001485Y002109D01*
X001491Y002103D02*
X001537Y002103D01*
X001563Y002024D02*
X001616Y002024D01*
X001595Y001946D02*
X001694Y001946D01*
X001773Y001867D02*
X001597Y001867D01*
X001577Y001789D02*
X001851Y001789D01*
X001883Y001710D02*
X001930Y001710D01*
X001956Y001632D02*
X002008Y001632D01*
X001988Y001553D02*
X002087Y001553D01*
X002165Y001475D02*
X001991Y001475D01*
X001971Y001396D02*
X002244Y001396D01*
X002276Y001318D02*
X002322Y001318D01*
X002349Y001239D02*
X002401Y001239D01*
X002382Y001161D02*
X002479Y001161D01*
X002558Y001082D02*
X002385Y001082D01*
X002365Y001004D02*
X002636Y001004D01*
X002668Y000925D02*
X002715Y000925D01*
X002742Y000847D02*
X002793Y000847D01*
X002775Y000768D02*
X002872Y000768D01*
X002950Y000690D02*
X002778Y000690D01*
X002760Y000611D02*
X003029Y000611D01*
X003107Y000533D02*
X002710Y000533D01*
X002584Y000454D02*
X003186Y000454D01*
X002455Y000454D02*
X002190Y000454D01*
X002061Y000454D02*
X001796Y000454D01*
X001923Y000533D02*
X001935Y000533D01*
X001668Y000454D02*
X001402Y000454D01*
X001274Y000454D02*
X000790Y000454D01*
X000790Y000533D02*
X001147Y000533D01*
X001098Y000611D02*
X000790Y000611D01*
X000790Y000690D02*
X001079Y000690D01*
X001083Y000768D02*
X000790Y000768D01*
X000790Y000847D02*
X001115Y000847D01*
X001148Y000925D02*
X000790Y000925D01*
X000790Y001004D02*
X001098Y001004D01*
X001079Y001082D02*
X000790Y001082D01*
X000790Y001161D02*
X001082Y001161D01*
X001115Y001239D02*
X000790Y001239D01*
X000790Y001318D02*
X001150Y001318D01*
X001099Y001396D02*
X000790Y001396D01*
X000790Y001475D02*
X001079Y001475D01*
X001082Y001553D02*
X000790Y001553D01*
X000790Y001632D02*
X001114Y001632D01*
X001151Y001710D02*
X000790Y001710D01*
X000790Y001789D02*
X001099Y001789D01*
X001079Y001867D02*
X000790Y001867D01*
X000790Y001946D02*
X001081Y001946D01*
X001114Y002024D02*
X000790Y002024D01*
X000790Y002103D02*
X001185Y002103D01*
X001526Y001710D02*
X001580Y001710D01*
X001921Y001318D02*
X001975Y001318D01*
X002315Y000925D02*
X002370Y000925D01*
X002328Y000533D02*
X002317Y000533D01*
X001541Y000533D02*
X001529Y000533D01*
D21*
X001200Y007030D03*
X001771Y008723D03*
X002125Y007975D03*
X002755Y008132D03*
X002952Y008408D03*
X002794Y008880D03*
X003385Y010022D03*
X003621Y009707D03*
X003936Y010140D03*
X004330Y010888D03*
X004645Y010888D03*
X004684Y010258D03*
X004605Y009805D03*
X004566Y009431D03*
X005353Y010573D03*
X005511Y010297D03*
X005513Y010857D03*
X005513Y011309D03*
X004825Y011819D03*
X004825Y012219D03*
X004825Y012619D03*
X004825Y013019D03*
X004425Y013019D03*
X004425Y012619D03*
X004425Y012219D03*
X004425Y011819D03*
X004025Y011819D03*
X004025Y012219D03*
X004025Y012619D03*
X004025Y013019D03*
X003625Y013019D03*
X003625Y012619D03*
X003625Y012219D03*
X003625Y011819D03*
X002873Y013644D03*
X002676Y014471D03*
X002361Y013998D03*
X001731Y013998D03*
X001534Y014825D03*
X001495Y015140D03*
X001574Y015534D03*
X000983Y014825D03*
X001141Y013959D03*
X001220Y012345D03*
X001220Y011636D03*
X000905Y011597D03*
X000905Y009589D03*
X001200Y008841D03*
X002361Y010809D03*
X002637Y011479D03*
X002361Y011833D03*
X002086Y012502D03*
X003542Y015534D03*
X004408Y014234D03*
X005078Y014805D03*
X005550Y015140D03*
X005550Y015534D03*
X005432Y013526D03*
X006515Y011853D03*
X006712Y009904D03*
X006338Y008486D03*
X005767Y009648D03*
X005511Y009451D03*
X007479Y007423D03*
X007676Y006833D03*
X003503Y007345D03*
X003227Y007660D03*
D22*
X003897Y007660D01*
X003897Y007857D01*
X004251Y008211D01*
X005275Y008211D01*
X005373Y008309D01*
X006160Y008309D01*
X006338Y008486D01*
X005767Y009648D02*
X005767Y010809D01*
X005826Y010888D01*
X006235Y010888D01*
X006515Y011853D02*
X005373Y011853D01*
X005097Y011577D01*
X005097Y011242D01*
X005058Y011203D01*
X004999Y011203D01*
X004684Y010258D02*
X004684Y010219D01*
X004389Y009923D01*
X003523Y009923D01*
X003385Y010022D01*
X002834Y010022D01*
X002794Y009983D01*
X002794Y008880D01*
X002873Y007345D02*
X003503Y007345D01*
X005117Y008565D02*
X005373Y008309D01*
X001200Y008841D02*
X001200Y011203D01*
X000905Y011597D01*
M02*
