%
M48
M72
T01C0.0080
T02C0.0083
T03C0.0118
T04C0.0400
%
T01
X1200Y7030
X1771Y8723
X2125Y7975
X2755Y8132
X2952Y8408
X2794Y8880
X3385Y10022
X3621Y9707
X3936Y10140
X4330Y10888
X4645Y10888
X4684Y10258
X4605Y9805
X4566Y9431
X5353Y10573
X5511Y10297
X5513Y10857
X5513Y11309
X4825Y11819
X4825Y12219
X4825Y12619
X4825Y13019
X4425Y13019
X4425Y12619
X4425Y12219
X4425Y11819
X4025Y11819
X4025Y12219
X4025Y12619
X4025Y13019
X3625Y13019
X3625Y12619
X3625Y12219
X3625Y11819
X2873Y13644
X2676Y14471
X2361Y13998
X1731Y13998
X1534Y14825
X1495Y15140
X1574Y15534
X983Y14825
X1141Y13959
X1220Y12345
X1220Y11636
X905Y11597
X905Y9589
X1200Y8841
X2361Y10809
X2637Y11479
X2361Y11833
X2086Y12502
X3542Y15534
X4408Y14234
X5078Y14805
X5550Y15140
X5550Y15534
X5432Y13526
X6515Y11853
X6712Y9904
X6338Y8486
X5767Y9648
X5511Y9451
X7479Y7423
X7676Y6833
X3503Y7345
X3227Y7660
T02
X6807Y8071
X7122Y8071
T03
X1338Y708
X1338Y1101
X1338Y1495
X1338Y1889
X1732Y1495
X1732Y1101
X1732Y708
X2126Y708
X2126Y1101
X2519Y708
X1338Y5432
X1338Y5826
X1338Y6220
X1338Y6613
X1732Y6613
X1732Y6220
X1732Y5826
X2126Y6220
X2126Y6613
X2519Y6613
X6063Y6613
X6456Y6613
X6456Y6220
X6850Y6220
X6850Y6613
X7244Y6613
X7244Y6220
X7244Y5826
X7244Y5432
X6850Y5826
X7244Y1889
X7244Y1495
X7244Y1101
X7244Y708
X6850Y708
X6850Y1101
X6850Y1495
X6456Y1101
X6456Y708
X6063Y708
T04
X5763Y7583
X5570Y8796
X4763Y7583
X3570Y8396
X3570Y9196
M30
