G75*
%MOIN*%
%OFA0B0*%
%FSLAX24Y24*%
%IPPOS*%
%LPD*%
%AMOC8*
5,1,8,0,0,1.08239X$1,22.5*
%
%ADD10R,0.0271X0.0275*%
%ADD11R,0.0275X0.0271*%
%ADD12C,0.0140*%
%ADD13R,0.1871X0.1871*%
%ADD14C,0.0147*%
%ADD15R,0.0375X0.0414*%
%ADD16R,0.1084X0.0651*%
%ADD17R,0.0454X0.0336*%
%ADD18C,0.0460*%
%ADD19R,0.0454X0.0257*%
%ADD20R,0.1084X0.1241*%
%ADD21R,0.0296X0.0158*%
%ADD22R,0.0224X0.0134*%
%ADD23R,0.0134X0.0224*%
%ADD24R,0.0296X0.0552*%
%ADD25R,0.0158X0.0217*%
%ADD26R,0.0336X0.0217*%
%ADD27R,0.0326X0.0158*%
%ADD28R,0.0300X0.0619*%
%ADD29R,0.0178X0.0336*%
%ADD30C,0.0303*%
%ADD31R,0.0690X0.0454*%
%ADD32C,0.0800*%
%ADD33C,0.0338*%
%ADD34C,0.0300*%
D10*
X002554Y007045D03*
X002895Y007045D03*
X003529Y007660D03*
X003870Y007660D03*
X003673Y010337D03*
X003673Y010652D03*
X003332Y010652D03*
X003332Y010337D03*
X003089Y010936D03*
X002748Y010936D03*
X002453Y011164D03*
X002112Y011164D03*
X001862Y010888D03*
X001521Y010888D03*
X001521Y011951D03*
X001233Y011951D03*
X000892Y011951D03*
X001862Y011951D03*
X003064Y013997D03*
X003405Y013997D03*
X003889Y013936D03*
X004230Y013936D03*
X004829Y015534D03*
X005170Y015534D03*
X006019Y012162D03*
X006360Y012162D03*
X006237Y010899D03*
X006578Y010899D03*
X006905Y010900D03*
X007246Y010900D03*
X007191Y011459D03*
X007532Y011459D03*
X007167Y009371D03*
X007059Y008801D03*
X006826Y009371D03*
X006718Y008801D03*
X006718Y007345D03*
X007059Y007345D03*
X004700Y010563D03*
X004359Y010563D03*
X002498Y008710D03*
X002157Y008710D03*
X002342Y014812D03*
X002683Y014812D03*
X002781Y015534D03*
X003122Y015534D03*
X001233Y015534D03*
X000892Y015534D03*
D11*
X002985Y014808D03*
X002985Y014467D03*
X004448Y014576D03*
X004448Y014917D03*
X004715Y014269D03*
X004735Y014576D03*
X004735Y014917D03*
X004715Y013928D03*
X005785Y011859D03*
X005785Y011518D03*
X006158Y011513D03*
X006158Y011854D03*
X006329Y013013D03*
X006329Y013354D03*
X006245Y014143D03*
X006245Y014484D03*
X005848Y013632D03*
X005848Y013291D03*
X007558Y011118D03*
X007558Y010777D03*
X007578Y010291D03*
X007578Y009950D03*
X001416Y007948D03*
X001416Y007607D03*
X001062Y010048D03*
X001062Y010389D03*
D12*
X002926Y011555D02*
X003160Y011555D01*
X003160Y011713D02*
X002926Y011713D01*
X002926Y011870D02*
X003160Y011870D01*
X003160Y012027D02*
X002926Y012027D01*
X002926Y012185D02*
X003160Y012185D01*
X003160Y012342D02*
X002926Y012342D01*
X002926Y012500D02*
X003160Y012500D01*
X003160Y012657D02*
X002926Y012657D01*
X002926Y012815D02*
X003160Y012815D01*
X003160Y012972D02*
X002926Y012972D01*
X002926Y013130D02*
X003160Y013130D01*
X003160Y013287D02*
X002926Y013287D01*
X003358Y013485D02*
X003358Y013719D01*
X003516Y013719D02*
X003516Y013485D01*
X003673Y013485D02*
X003673Y013719D01*
X003831Y013719D02*
X003831Y013485D01*
X003988Y013485D02*
X003988Y013719D01*
X004146Y013719D02*
X004146Y013485D01*
X004303Y013485D02*
X004303Y013719D01*
X004460Y013719D02*
X004460Y013485D01*
X004618Y013485D02*
X004618Y013719D01*
X004775Y013719D02*
X004775Y013485D01*
X004933Y013485D02*
X004933Y013719D01*
X005090Y013719D02*
X005090Y013485D01*
X005288Y013287D02*
X005522Y013287D01*
X005522Y013130D02*
X005288Y013130D01*
X005288Y012972D02*
X005522Y012972D01*
X005522Y012815D02*
X005288Y012815D01*
X005288Y012657D02*
X005522Y012657D01*
X005522Y012500D02*
X005288Y012500D01*
X005288Y012342D02*
X005522Y012342D01*
X005522Y012185D02*
X005288Y012185D01*
X005288Y012027D02*
X005522Y012027D01*
X005522Y011870D02*
X005288Y011870D01*
X005288Y011713D02*
X005522Y011713D01*
X005522Y011555D02*
X005288Y011555D01*
X005090Y011357D02*
X005090Y011123D01*
X004933Y011123D02*
X004933Y011357D01*
X004775Y011357D02*
X004775Y011123D01*
X004618Y011123D02*
X004618Y011357D01*
X004460Y011357D02*
X004460Y011123D01*
X004303Y011123D02*
X004303Y011357D01*
X004146Y011357D02*
X004146Y011123D01*
X003988Y011123D02*
X003988Y011357D01*
X003831Y011357D02*
X003831Y011123D01*
X003673Y011123D02*
X003673Y011357D01*
X003516Y011357D02*
X003516Y011123D01*
X003358Y011123D02*
X003358Y011357D01*
D13*
X004224Y012421D03*
D14*
X005783Y012480D03*
X005783Y012677D03*
X006022Y012677D03*
X006022Y012480D03*
X006206Y012579D03*
D15*
X005884Y014154D03*
X005884Y014705D03*
X005451Y014705D03*
X005451Y014154D03*
D16*
X007217Y014583D03*
X007217Y012575D03*
D17*
X003385Y014325D03*
X003385Y014837D03*
D18*
X003570Y009196D03*
X003570Y008396D03*
X005570Y008796D03*
D19*
X004064Y014460D03*
X004064Y014893D03*
D20*
X002162Y009825D03*
D21*
X002910Y009825D03*
X002910Y010022D03*
X002910Y010219D03*
X002910Y010415D03*
X002910Y009628D03*
X002910Y009431D03*
X002910Y009234D03*
X001414Y009234D03*
X001414Y009431D03*
X001414Y009628D03*
X001414Y009825D03*
X001414Y010022D03*
X001414Y010219D03*
X001414Y010415D03*
D22*
X001738Y008233D03*
X001738Y007997D03*
X001738Y007761D03*
X002443Y007761D03*
X002443Y007997D03*
X002443Y008233D03*
D23*
X002209Y008349D03*
X001973Y008349D03*
X001973Y007644D03*
X002209Y007644D03*
D24*
X001667Y012396D03*
X001293Y013247D03*
X000919Y012396D03*
D25*
X000899Y014253D03*
X001068Y014253D03*
X001450Y014254D03*
X001619Y014254D03*
X002001Y014254D03*
X002170Y014254D03*
D26*
X002086Y014530D03*
X001534Y014530D03*
X000984Y014529D03*
D27*
X006551Y010558D03*
X006551Y010361D03*
X006551Y010164D03*
X007268Y010160D03*
X007268Y010361D03*
X007268Y010558D03*
D28*
X006910Y010361D03*
D29*
X006965Y008484D03*
X007221Y008484D03*
X007221Y007657D03*
X006965Y007657D03*
X006709Y007657D03*
X006709Y008484D03*
D30*
X006807Y008071D03*
X007122Y008071D03*
D31*
X006965Y008071D03*
D32*
X005763Y007583D03*
X004763Y007583D03*
D33*
X001338Y000708D03*
X001338Y001101D03*
X001338Y001495D03*
X001338Y001889D03*
X001732Y001495D03*
X001732Y001101D03*
X001732Y000708D03*
X002126Y000708D03*
X002126Y001101D03*
X002519Y000708D03*
X001338Y005432D03*
X001338Y005826D03*
X001338Y006220D03*
X001338Y006613D03*
X001732Y006613D03*
X001732Y006220D03*
X001732Y005826D03*
X002126Y006220D03*
X002126Y006613D03*
X002519Y006613D03*
X006063Y006613D03*
X006456Y006613D03*
X006456Y006220D03*
X006850Y006220D03*
X006850Y006613D03*
X007244Y006613D03*
X007244Y006220D03*
X007244Y005826D03*
X007244Y005432D03*
X006850Y005826D03*
X007244Y001889D03*
X007244Y001495D03*
X007244Y001101D03*
X007244Y000708D03*
X006850Y000708D03*
X006850Y001101D03*
X006850Y001495D03*
X006456Y001101D03*
X006456Y000708D03*
X006063Y000708D03*
D34*
X007676Y006833D03*
X007479Y007423D03*
X006338Y008486D03*
X005767Y009648D03*
X005511Y009451D03*
X005511Y010297D03*
X005353Y010573D03*
X005513Y010857D03*
X005513Y011309D03*
X004825Y011819D03*
X004825Y012219D03*
X004825Y012619D03*
X004825Y013019D03*
X004425Y013019D03*
X004425Y012619D03*
X004425Y012219D03*
X004425Y011819D03*
X004025Y011819D03*
X004025Y012219D03*
X004025Y012619D03*
X004025Y013019D03*
X003625Y013019D03*
X003625Y012619D03*
X003625Y012219D03*
X003625Y011819D03*
X004330Y010888D03*
X004645Y010888D03*
X004684Y010258D03*
X004605Y009805D03*
X004566Y009431D03*
X003936Y010140D03*
X003621Y009707D03*
X003385Y010022D03*
X002794Y008880D03*
X002952Y008408D03*
X002755Y008132D03*
X003227Y007660D03*
X003503Y007345D03*
X002125Y007975D03*
X001771Y008723D03*
X001200Y008841D03*
X000905Y009589D03*
X000905Y011597D03*
X001220Y011636D03*
X001220Y012345D03*
X001141Y013959D03*
X000983Y014825D03*
X001495Y015140D03*
X001534Y014825D03*
X001574Y015534D03*
X001731Y013998D03*
X002361Y013998D03*
X002676Y014471D03*
X002873Y013644D03*
X002086Y012502D03*
X002361Y011833D03*
X002637Y011479D03*
X002361Y010809D03*
X001200Y007030D03*
X004408Y014234D03*
X005078Y014805D03*
X005550Y015140D03*
X005550Y015534D03*
X005432Y013526D03*
X006515Y011853D03*
X006712Y009904D03*
X003542Y015534D03*
M02*
