G75*
%MOIN*%
%OFA0B0*%
%FSLAX24Y24*%
%IPPOS*%
%LPD*%
%AMOC8*
5,1,8,0,0,1.08239X$1,22.5*
%
%ADD10R,0.0211X0.0215*%
%ADD11R,0.0215X0.0211*%
%ADD12C,0.0080*%
%ADD13R,0.1811X0.1811*%
%ADD14C,0.0087*%
%ADD15R,0.0315X0.0354*%
%ADD16R,0.1024X0.0591*%
%ADD17R,0.0394X0.0276*%
%ADD18R,0.0394X0.0197*%
%ADD19R,0.1024X0.1181*%
%ADD20R,0.0236X0.0098*%
%ADD21R,0.0126X0.0217*%
%ADD22R,0.0217X0.0126*%
%ADD23R,0.0236X0.0492*%
%ADD24R,0.0098X0.0157*%
%ADD25R,0.0276X0.0157*%
%ADD26R,0.0266X0.0098*%
%ADD27R,0.0240X0.0559*%
%ADD28R,0.0118X0.0276*%
%ADD29C,0.0243*%
%ADD30R,0.0630X0.0394*%
%ADD31C,0.0740*%
%ADD32C,0.0060*%
%ADD33C,0.0278*%
%ADD34C,0.0240*%
%ADD35C,0.0100*%
%ADD36C,0.0500*%
%ADD37C,0.0300*%
%ADD38C,0.0160*%
D10*
X002554Y007045D03*
X002895Y007045D03*
X003529Y007660D03*
X003870Y007660D03*
X003673Y010337D03*
X003673Y010652D03*
X003332Y010652D03*
X003332Y010337D03*
X003089Y010936D03*
X002748Y010936D03*
X002453Y011164D03*
X002112Y011164D03*
X001862Y010888D03*
X001521Y010888D03*
X001521Y011951D03*
X001233Y011951D03*
X000892Y011951D03*
X001862Y011951D03*
X003064Y013997D03*
X003405Y013997D03*
X003889Y013936D03*
X004230Y013936D03*
X004829Y015534D03*
X005170Y015534D03*
X006019Y012162D03*
X006360Y012162D03*
X006237Y010899D03*
X006578Y010899D03*
X006905Y010900D03*
X007246Y010900D03*
X007191Y011459D03*
X007532Y011459D03*
X007167Y009371D03*
X007059Y008801D03*
X006826Y009371D03*
X006718Y008801D03*
X006718Y007345D03*
X007059Y007345D03*
X004700Y010563D03*
X004359Y010563D03*
X002498Y008710D03*
X002157Y008710D03*
X002342Y014812D03*
X002683Y014812D03*
X002781Y015534D03*
X003122Y015534D03*
X001233Y015534D03*
X000892Y015534D03*
D11*
X002985Y014808D03*
X002985Y014467D03*
X004448Y014576D03*
X004448Y014917D03*
X004715Y014269D03*
X004735Y014576D03*
X004735Y014917D03*
X004715Y013928D03*
X005785Y011859D03*
X005785Y011518D03*
X006158Y011513D03*
X006158Y011854D03*
X006329Y013013D03*
X006329Y013354D03*
X006245Y014143D03*
X006245Y014484D03*
X005848Y013632D03*
X005848Y013291D03*
X007558Y011118D03*
X007558Y010777D03*
X007578Y010291D03*
X007578Y009950D03*
X001416Y007948D03*
X001416Y007607D03*
X001062Y010048D03*
X001062Y010389D03*
D12*
X000806Y002049D02*
X000967Y001889D01*
X001338Y001889D01*
X000806Y002049D02*
X000806Y009136D01*
X001101Y009431D01*
X001413Y009431D01*
X001453Y009234D02*
X001141Y009234D01*
X000964Y009057D01*
X000964Y006734D01*
X001085Y006613D01*
X001338Y006613D01*
X001200Y007030D02*
X002578Y007030D01*
X002554Y007045D01*
X002392Y007731D02*
X002841Y007731D01*
X002841Y007908D01*
X002832Y007904D01*
X002821Y007893D01*
X002765Y007837D01*
X002626Y007837D01*
X002603Y007814D01*
X002378Y007814D01*
X002392Y007800D01*
X002392Y007731D01*
X002392Y007755D02*
X002841Y007755D01*
X002841Y007833D02*
X002622Y007833D01*
X002698Y007997D02*
X002755Y008053D01*
X002755Y008132D01*
X002698Y007997D02*
X002445Y007997D01*
X002378Y008180D02*
X002392Y008193D01*
X002392Y008482D01*
X002653Y008482D01*
X002724Y008553D01*
X002724Y008650D01*
X002747Y008640D01*
X002842Y008640D01*
X002930Y008677D01*
X002998Y008744D01*
X003018Y008794D01*
X003018Y008085D01*
X002995Y008085D01*
X002995Y008180D01*
X002958Y008268D01*
X002891Y008336D01*
X002803Y008372D01*
X002707Y008372D01*
X002619Y008336D01*
X002551Y008268D01*
X002515Y008180D01*
X002515Y008180D01*
X002378Y008180D01*
X002401Y008211D02*
X002423Y008233D01*
X002383Y008233D01*
X002392Y008226D02*
X002534Y008226D01*
X002445Y008233D02*
X002401Y008211D01*
X002392Y008304D02*
X002587Y008304D01*
X002392Y008383D02*
X003018Y008383D01*
X003018Y008461D02*
X002392Y008461D01*
X002209Y008683D02*
X002157Y008710D01*
X001790Y008483D02*
X001790Y008193D01*
X001860Y008123D01*
X002085Y008123D01*
X002091Y008128D01*
X002096Y008123D01*
X002230Y008123D01*
X002217Y008110D01*
X002217Y007884D01*
X002230Y007871D01*
X002096Y007871D01*
X002091Y007865D01*
X002085Y007871D01*
X002047Y007871D01*
X001990Y007928D01*
X001910Y007928D01*
X001894Y007944D01*
X001578Y007944D01*
X001508Y007873D01*
X001508Y007833D01*
X001350Y007833D01*
X001350Y008651D01*
X001403Y008705D01*
X001440Y008793D01*
X001440Y008809D01*
X001547Y008809D01*
X001531Y008770D01*
X001531Y008675D01*
X001567Y008587D01*
X001635Y008519D01*
X001723Y008483D01*
X001790Y008483D01*
X001790Y008461D02*
X001350Y008461D01*
X001350Y008383D02*
X001790Y008383D01*
X001790Y008304D02*
X001350Y008304D01*
X001350Y008226D02*
X001790Y008226D01*
X001836Y008147D02*
X001350Y008147D01*
X001350Y008069D02*
X002217Y008069D01*
X002217Y007990D02*
X001350Y007990D01*
X001416Y007948D02*
X001470Y007988D01*
X001736Y007997D01*
X001753Y007778D02*
X001736Y007761D01*
X001546Y007912D02*
X001350Y007912D01*
X001350Y007833D02*
X001508Y007833D01*
X001452Y007603D02*
X001416Y007607D01*
X001350Y008540D02*
X001614Y008540D01*
X001554Y008618D02*
X001350Y008618D01*
X001395Y008697D02*
X001531Y008697D01*
X001533Y008775D02*
X001432Y008775D01*
X001625Y009109D02*
X001652Y009135D01*
X001652Y010514D01*
X001581Y010585D01*
X001575Y010585D01*
X001575Y010661D01*
X001677Y010661D01*
X001747Y010731D01*
X001747Y011045D01*
X001677Y011116D01*
X001671Y011116D01*
X001671Y011132D01*
X001833Y011132D01*
X002187Y011486D01*
X002275Y011574D01*
X002275Y011609D01*
X002314Y011593D01*
X002409Y011593D01*
X002428Y011601D01*
X002397Y011526D01*
X002397Y011465D01*
X002323Y011391D01*
X002298Y011391D01*
X002228Y011321D01*
X002228Y011006D01*
X002298Y010936D01*
X002522Y010936D01*
X002522Y010778D01*
X002593Y010708D01*
X002605Y010708D01*
X002605Y010629D01*
X002693Y010541D01*
X002732Y010502D01*
X001652Y010502D01*
X001652Y010424D02*
X003107Y010424D01*
X003107Y010388D02*
X003091Y010379D01*
X003087Y010379D01*
X003077Y010388D01*
X002742Y010388D01*
X002672Y010318D01*
X002672Y009529D01*
X002742Y009459D01*
X003018Y009459D01*
X003018Y008966D01*
X002998Y009016D01*
X002930Y009084D01*
X002842Y009120D01*
X002747Y009120D01*
X002719Y009109D01*
X002523Y009109D01*
X002464Y009112D01*
X002461Y009109D01*
X001625Y009109D01*
X001652Y009168D02*
X003018Y009168D01*
X003018Y009246D02*
X001652Y009246D01*
X001652Y009325D02*
X003018Y009325D01*
X003018Y009403D02*
X001652Y009403D01*
X001652Y009482D02*
X002719Y009482D01*
X002672Y009560D02*
X001652Y009560D01*
X001652Y009639D02*
X002672Y009639D01*
X002672Y009717D02*
X001652Y009717D01*
X001652Y009796D02*
X002672Y009796D01*
X002672Y009874D02*
X001652Y009874D01*
X001652Y009953D02*
X002672Y009953D01*
X002672Y010031D02*
X001652Y010031D01*
X001652Y010110D02*
X002672Y010110D01*
X002672Y010188D02*
X001652Y010188D01*
X001652Y010267D02*
X002672Y010267D01*
X002699Y010345D02*
X001652Y010345D01*
X001586Y010581D02*
X002653Y010581D01*
X002605Y010659D02*
X001575Y010659D01*
X001521Y010888D02*
X001456Y010888D01*
X001416Y010888D01*
X001416Y010809D01*
X001414Y010415D01*
X001414Y010219D02*
X001298Y010219D01*
X001062Y010389D01*
X001062Y010048D02*
X001062Y010022D01*
X001414Y010022D01*
X001414Y009628D02*
X000944Y009628D01*
X000905Y009589D01*
X001671Y011130D02*
X002228Y011130D01*
X002228Y011052D02*
X001741Y011052D01*
X001747Y010973D02*
X002261Y010973D01*
X002228Y011209D02*
X001910Y011209D01*
X001988Y011287D02*
X002228Y011287D01*
X002272Y011366D02*
X002067Y011366D01*
X002145Y011444D02*
X002376Y011444D01*
X002397Y011523D02*
X002224Y011523D01*
X002275Y011601D02*
X002294Y011601D01*
X002361Y011833D02*
X002361Y011951D01*
X002440Y012030D01*
X003041Y012030D01*
X003043Y012027D01*
X002926Y012027D02*
X003160Y012027D01*
X003041Y011872D02*
X003043Y011870D01*
X002926Y011870D02*
X003160Y011870D01*
X003041Y011872D02*
X002834Y011872D01*
X002637Y011715D01*
X002637Y011479D01*
X002453Y011295D01*
X002453Y011164D01*
X002522Y010895D02*
X001747Y010895D01*
X001747Y010816D02*
X002522Y010816D01*
X002563Y010738D02*
X001747Y010738D01*
X001709Y011432D02*
X001582Y011432D01*
X001597Y011447D01*
X001684Y011535D01*
X001684Y011731D01*
X001747Y011794D01*
X001747Y012030D01*
X001835Y012030D01*
X001905Y012101D01*
X001905Y012692D01*
X001835Y012763D01*
X001499Y012763D01*
X001429Y012692D01*
X001429Y012467D01*
X001423Y012481D01*
X001355Y012548D01*
X001267Y012585D01*
X001172Y012585D01*
X001157Y012579D01*
X001157Y012692D01*
X001087Y012763D01*
X000790Y012763D01*
X000790Y013586D01*
X000842Y013533D01*
X000882Y013494D01*
X001006Y013494D01*
X001354Y013494D01*
X002511Y012337D01*
X002102Y012337D01*
X002014Y012249D01*
X001975Y012210D01*
X001975Y011698D01*
X001709Y011432D01*
X001721Y011444D02*
X001594Y011444D01*
X001672Y011523D02*
X001799Y011523D01*
X001878Y011601D02*
X001684Y011601D01*
X001684Y011680D02*
X001956Y011680D01*
X001975Y011758D02*
X001711Y011758D01*
X001747Y011837D02*
X001975Y011837D01*
X001975Y011915D02*
X001747Y011915D01*
X001747Y011994D02*
X001975Y011994D01*
X001975Y012072D02*
X001876Y012072D01*
X001905Y012151D02*
X001975Y012151D01*
X001994Y012229D02*
X001905Y012229D01*
X001905Y012308D02*
X002073Y012308D01*
X001905Y012386D02*
X002462Y012386D01*
X002384Y012465D02*
X001905Y012465D01*
X001905Y012543D02*
X002305Y012543D01*
X002227Y012622D02*
X001905Y012622D01*
X001897Y012700D02*
X002148Y012700D01*
X002070Y012779D02*
X000790Y012779D01*
X000790Y012857D02*
X001991Y012857D01*
X001913Y012936D02*
X000790Y012936D01*
X000790Y013014D02*
X001834Y013014D01*
X001756Y013093D02*
X000790Y013093D01*
X000790Y013171D02*
X001677Y013171D01*
X001599Y013250D02*
X000790Y013250D01*
X000790Y013328D02*
X001520Y013328D01*
X001442Y013407D02*
X000790Y013407D01*
X000790Y013485D02*
X001363Y013485D01*
X001306Y013794D02*
X001055Y013794D01*
X001055Y014111D01*
X001068Y014125D01*
X001068Y014330D01*
X001171Y014330D01*
X001241Y014400D01*
X001241Y014657D01*
X001193Y014705D01*
X001223Y014777D01*
X001223Y014873D01*
X001187Y014961D01*
X001119Y015029D01*
X001031Y015065D01*
X000936Y015065D01*
X000847Y015029D01*
X000790Y014971D01*
X000790Y015200D01*
X000842Y015147D01*
X001255Y015147D01*
X001255Y015092D01*
X001292Y015004D01*
X001333Y014963D01*
X001331Y014961D01*
X001294Y014873D01*
X001294Y014777D01*
X001324Y014706D01*
X001277Y014658D01*
X001277Y014401D01*
X001288Y014390D01*
X001281Y014383D01*
X001281Y014126D01*
X001306Y014101D01*
X001306Y013794D01*
X001306Y013799D02*
X001055Y013799D01*
X001055Y013878D02*
X001306Y013878D01*
X001306Y013956D02*
X001055Y013956D01*
X001055Y014035D02*
X001306Y014035D01*
X001293Y014113D02*
X001057Y014113D01*
X001068Y014192D02*
X001281Y014192D01*
X001281Y014270D02*
X001068Y014270D01*
X000984Y014529D02*
X000984Y014667D01*
X000983Y014825D01*
X000911Y015055D02*
X000790Y015055D01*
X000790Y014977D02*
X000795Y014977D01*
X000790Y015134D02*
X001255Y015134D01*
X001271Y015055D02*
X001055Y015055D01*
X001171Y014977D02*
X001319Y014977D01*
X001305Y014898D02*
X001213Y014898D01*
X001223Y014820D02*
X001294Y014820D01*
X001309Y014741D02*
X001208Y014741D01*
X001236Y014663D02*
X001281Y014663D01*
X001277Y014584D02*
X001241Y014584D01*
X001241Y014506D02*
X001277Y014506D01*
X001277Y014427D02*
X001241Y014427D01*
X001281Y014349D02*
X001190Y014349D01*
X001450Y014254D02*
X001456Y014248D01*
X001534Y014530D02*
X001534Y014825D01*
X001697Y015002D02*
X001738Y014961D01*
X001774Y014873D01*
X001774Y014777D01*
X001745Y014706D01*
X001792Y014658D01*
X001792Y014401D01*
X001722Y014331D01*
X001619Y014331D01*
X001619Y014126D01*
X001606Y014112D01*
X001606Y013864D01*
X001857Y013612D01*
X001857Y014101D01*
X001832Y014126D01*
X001832Y014383D01*
X001839Y014390D01*
X001828Y014401D01*
X001828Y014658D01*
X001898Y014729D01*
X001936Y014729D01*
X001936Y015147D01*
X001735Y015147D01*
X001735Y015092D01*
X001699Y015004D01*
X001697Y015002D01*
X001722Y014977D02*
X001936Y014977D01*
X001936Y015055D02*
X001720Y015055D01*
X001735Y015134D02*
X001936Y015134D01*
X001936Y014898D02*
X001764Y014898D01*
X001774Y014820D02*
X001936Y014820D01*
X001936Y014741D02*
X001759Y014741D01*
X001788Y014663D02*
X001832Y014663D01*
X001828Y014584D02*
X001792Y014584D01*
X001792Y014506D02*
X001828Y014506D01*
X001828Y014427D02*
X001792Y014427D01*
X001832Y014349D02*
X001740Y014349D01*
X001832Y014270D02*
X001619Y014270D01*
X001619Y014192D02*
X001832Y014192D01*
X001844Y014113D02*
X001606Y014113D01*
X001606Y014035D02*
X001857Y014035D01*
X001857Y013956D02*
X001606Y013956D01*
X001606Y013878D02*
X001857Y013878D01*
X001857Y013799D02*
X001670Y013799D01*
X001749Y013721D02*
X001857Y013721D01*
X001857Y013642D02*
X001827Y013642D01*
X002157Y013642D02*
X002447Y013642D01*
X002447Y013564D02*
X002157Y013564D01*
X002157Y013549D02*
X002157Y014112D01*
X002170Y014126D01*
X002170Y014331D01*
X002273Y014331D01*
X002343Y014401D01*
X002343Y014658D01*
X002273Y014729D01*
X002236Y014729D01*
X002236Y014990D01*
X002478Y014990D01*
X002457Y014969D01*
X002457Y014655D01*
X002489Y014623D01*
X002473Y014607D01*
X002436Y014518D01*
X002436Y014423D01*
X002473Y014335D01*
X002519Y014289D01*
X002447Y014218D01*
X002447Y013258D01*
X002157Y013549D01*
X002220Y013485D02*
X002447Y013485D01*
X002447Y013407D02*
X002299Y013407D01*
X002377Y013328D02*
X002447Y013328D01*
X002447Y013721D02*
X002157Y013721D01*
X002157Y013799D02*
X002447Y013799D01*
X002447Y013878D02*
X002157Y013878D01*
X002157Y013956D02*
X002447Y013956D01*
X002447Y014035D02*
X002157Y014035D01*
X002158Y014113D02*
X002447Y014113D01*
X002447Y014192D02*
X002170Y014192D01*
X002170Y014270D02*
X002500Y014270D01*
X002467Y014349D02*
X002291Y014349D01*
X002343Y014427D02*
X002436Y014427D01*
X002436Y014506D02*
X002343Y014506D01*
X002343Y014584D02*
X002463Y014584D01*
X002457Y014663D02*
X002339Y014663D01*
X002236Y014741D02*
X002457Y014741D01*
X002457Y014820D02*
X002236Y014820D01*
X002236Y014898D02*
X002457Y014898D01*
X002464Y014977D02*
X002236Y014977D01*
X002001Y014254D02*
X002007Y014248D01*
X001574Y015534D02*
X001233Y015534D01*
X000899Y014253D02*
X000905Y014248D01*
X000812Y013564D02*
X000790Y013564D01*
X001149Y012700D02*
X001436Y012700D01*
X001429Y012622D02*
X001157Y012622D01*
X001220Y012345D02*
X000892Y012345D01*
X000892Y012069D01*
X000892Y011951D01*
X000905Y011938D01*
X000905Y011597D01*
X001082Y011759D02*
X001117Y011794D01*
X001117Y012061D01*
X001157Y012101D01*
X001157Y012111D01*
X001172Y012105D01*
X001267Y012105D01*
X001310Y012123D01*
X001296Y012108D01*
X001296Y011794D01*
X001366Y011724D01*
X001384Y011724D01*
X001384Y011659D01*
X001197Y011471D01*
X001112Y011471D01*
X001145Y011549D01*
X001145Y011644D01*
X001108Y011733D01*
X001082Y011759D01*
X001083Y011758D02*
X001332Y011758D01*
X001296Y011837D02*
X001117Y011837D01*
X001117Y011915D02*
X001296Y011915D01*
X001296Y011994D02*
X001117Y011994D01*
X001128Y012072D02*
X001296Y012072D01*
X001384Y011680D02*
X001130Y011680D01*
X001145Y011601D02*
X001327Y011601D01*
X001248Y011523D02*
X001134Y011523D01*
X000892Y012345D02*
X000919Y012396D01*
X000840Y012542D01*
X001361Y012543D02*
X001429Y012543D01*
X001667Y012396D02*
X001521Y012212D01*
X001521Y011951D01*
X001534Y011938D01*
X002162Y009825D02*
X002437Y009589D01*
X002558Y009471D01*
X002598Y009431D01*
X002910Y009431D01*
X002917Y009089D02*
X003018Y009089D01*
X003018Y009011D02*
X003000Y009011D01*
X003011Y008775D02*
X003018Y008775D01*
X003018Y008697D02*
X002950Y008697D01*
X003018Y008618D02*
X002724Y008618D01*
X002711Y008540D02*
X003018Y008540D01*
X003018Y008304D02*
X002922Y008304D01*
X002976Y008226D02*
X003018Y008226D01*
X003018Y008147D02*
X002995Y008147D01*
X002445Y007761D02*
X002418Y007761D01*
X002217Y007912D02*
X002007Y007912D01*
X001968Y007716D02*
X001973Y007643D01*
X002949Y007109D02*
X005314Y007109D01*
X005770Y006653D01*
X005689Y006960D02*
X005474Y007175D01*
X005380Y007269D01*
X003731Y007269D01*
X003743Y007297D01*
X003743Y007392D01*
X003727Y007432D01*
X004026Y007432D01*
X004096Y007502D01*
X004096Y007510D01*
X004195Y007510D01*
X004234Y007549D01*
X004322Y007637D01*
X004322Y009327D01*
X004342Y009346D01*
X004363Y009295D01*
X004430Y009228D01*
X004518Y009191D01*
X004614Y009191D01*
X004702Y009228D01*
X004718Y009244D01*
X004799Y009163D01*
X004928Y009035D01*
X004928Y008227D01*
X005016Y008140D01*
X005332Y007823D01*
X005273Y007680D01*
X005273Y007485D01*
X005348Y007305D01*
X005485Y007167D01*
X005665Y007093D01*
X005860Y007093D01*
X006040Y007167D01*
X006068Y007195D01*
X006493Y007195D01*
X006493Y007188D01*
X006559Y007121D01*
X006559Y007069D01*
X006581Y007046D01*
X006668Y006960D01*
X005689Y006960D01*
X005679Y006970D02*
X006658Y006970D01*
X006580Y007048D02*
X005601Y007048D01*
X005584Y007127D02*
X005522Y007127D01*
X005448Y007205D02*
X005444Y007205D01*
X005369Y007284D02*
X003737Y007284D01*
X003743Y007362D02*
X005324Y007362D01*
X005291Y007441D02*
X004034Y007441D01*
X004204Y007519D02*
X005273Y007519D01*
X005273Y007598D02*
X004283Y007598D01*
X004322Y007676D02*
X005273Y007676D01*
X005304Y007755D02*
X004322Y007755D01*
X004322Y007833D02*
X005322Y007833D01*
X005244Y007912D02*
X004322Y007912D01*
X004322Y007990D02*
X005165Y007990D01*
X005087Y008069D02*
X004322Y008069D01*
X004322Y008147D02*
X005008Y008147D01*
X004930Y008226D02*
X004322Y008226D01*
X004322Y008304D02*
X004928Y008304D01*
X004928Y008383D02*
X004322Y008383D01*
X004322Y008461D02*
X004928Y008461D01*
X004928Y008540D02*
X004322Y008540D01*
X004322Y008618D02*
X004928Y008618D01*
X004928Y008697D02*
X004322Y008697D01*
X004322Y008775D02*
X004928Y008775D01*
X004928Y008854D02*
X004322Y008854D01*
X004322Y008932D02*
X004928Y008932D01*
X004928Y009011D02*
X004322Y009011D01*
X004322Y009089D02*
X004873Y009089D01*
X004795Y009168D02*
X004322Y009168D01*
X004322Y009246D02*
X004412Y009246D01*
X004350Y009325D02*
X004322Y009325D01*
X003874Y009896D02*
X004003Y010025D01*
X004003Y010373D01*
X003890Y010486D01*
X003829Y010424D01*
X003558Y010424D01*
X003558Y010188D01*
X004003Y010188D01*
X004003Y010110D02*
X003608Y010110D01*
X003625Y010070D02*
X003588Y010158D01*
X003558Y010188D01*
X003558Y010267D02*
X004003Y010267D01*
X004003Y010345D02*
X003558Y010345D01*
X003558Y010424D02*
X003952Y010424D01*
X004003Y010031D02*
X003625Y010031D01*
X003625Y010070D02*
X003625Y009974D01*
X003614Y009947D01*
X003669Y009947D01*
X003757Y009910D01*
X003811Y009857D01*
X003834Y009857D01*
X003874Y009896D01*
X003874Y009896D01*
X003852Y009874D02*
X003793Y009874D01*
X003930Y009953D02*
X003616Y009953D01*
X003385Y010022D02*
X003385Y010350D01*
X003332Y010337D01*
X003135Y010219D01*
X002910Y010219D01*
X003107Y010388D02*
X003107Y010494D01*
X003107Y010494D01*
X003107Y010495D01*
X003107Y010502D01*
X002732Y010502D01*
X002973Y010802D02*
X002973Y011052D01*
X003093Y011171D01*
X003181Y011259D01*
X003181Y011395D01*
X003227Y011395D01*
X003321Y011489D01*
X003321Y011621D01*
X003308Y011634D01*
X003321Y011646D01*
X003321Y011779D01*
X003308Y011791D01*
X003321Y011804D01*
X003321Y011936D01*
X003308Y011949D01*
X003321Y011961D01*
X003321Y012094D01*
X003308Y012106D01*
X003321Y012119D01*
X003321Y012251D01*
X003308Y012264D01*
X003321Y012276D01*
X003321Y012409D01*
X003308Y012421D01*
X003321Y012434D01*
X003321Y012566D01*
X003308Y012579D01*
X003321Y012591D01*
X003321Y012724D01*
X003308Y012736D01*
X003321Y012749D01*
X003321Y012881D01*
X003308Y012894D01*
X003321Y012906D01*
X003321Y013039D01*
X003308Y013051D01*
X003321Y013064D01*
X003321Y013196D01*
X003308Y013209D01*
X003321Y013221D01*
X003321Y013325D01*
X003424Y013325D01*
X003516Y013416D01*
X003607Y013325D01*
X003739Y013325D01*
X003752Y013337D01*
X003764Y013325D01*
X003897Y013325D01*
X003909Y013337D01*
X003922Y013325D01*
X004054Y013325D01*
X004067Y013337D01*
X004079Y013325D01*
X004212Y013325D01*
X004224Y013337D01*
X004237Y013325D01*
X004369Y013325D01*
X004382Y013337D01*
X004394Y013325D01*
X004527Y013325D01*
X004539Y013337D01*
X004552Y013325D01*
X004684Y013325D01*
X004697Y013337D01*
X004709Y013325D01*
X004842Y013325D01*
X004854Y013337D01*
X004867Y013325D01*
X004999Y013325D01*
X005012Y013337D01*
X005024Y013325D01*
X005128Y013325D01*
X005128Y013221D01*
X005140Y013209D01*
X005128Y013196D01*
X005128Y013064D01*
X005222Y012970D01*
X005654Y012970D01*
X005656Y012972D01*
X005750Y013066D01*
X006005Y013066D01*
X006075Y013136D01*
X006075Y013447D01*
X006005Y013517D01*
X005691Y013517D01*
X005672Y013498D01*
X005672Y013574D01*
X005636Y013662D01*
X005617Y013681D01*
X005892Y013681D01*
X005931Y013720D01*
X006025Y013814D01*
X006025Y013857D01*
X006091Y013857D01*
X006152Y013918D01*
X006402Y013918D01*
X006472Y013988D01*
X006472Y014298D01*
X006402Y014369D01*
X006161Y014369D01*
X006161Y014381D01*
X006113Y014429D01*
X006161Y014478D01*
X006161Y014932D01*
X006091Y015002D01*
X005752Y015002D01*
X005754Y015004D01*
X005790Y015092D01*
X005790Y015188D01*
X005754Y015276D01*
X005693Y015337D01*
X005754Y015398D01*
X005790Y015486D01*
X005790Y015581D01*
X005763Y015648D01*
X006536Y015648D01*
X006548Y013176D01*
X006486Y013238D01*
X006172Y013238D01*
X006101Y013168D01*
X006101Y012858D01*
X006172Y012787D01*
X006179Y012787D01*
X006179Y012749D01*
X006136Y012749D01*
X006036Y012649D01*
X006036Y012644D01*
X005954Y012644D01*
X005947Y012636D01*
X005947Y012745D01*
X005851Y012840D01*
X005716Y012840D01*
X005693Y012817D01*
X005222Y012817D01*
X005128Y012724D01*
X005128Y012591D01*
X005140Y012579D01*
X005128Y012566D01*
X005128Y012434D01*
X005140Y012421D01*
X005128Y012409D01*
X005128Y012276D01*
X005140Y012264D01*
X005128Y012251D01*
X005128Y012119D01*
X005140Y012106D01*
X005128Y012094D01*
X005128Y011961D01*
X005140Y011949D01*
X005128Y011936D01*
X005128Y011804D01*
X005140Y011791D01*
X005128Y011779D01*
X005128Y011646D01*
X005222Y011553D01*
X005589Y011553D01*
X005670Y011634D01*
X005931Y011634D01*
X005931Y011402D01*
X005764Y011235D01*
X005250Y011235D01*
X005250Y011424D01*
X005157Y011518D01*
X005024Y011518D01*
X005012Y011505D01*
X004999Y011518D01*
X004867Y011518D01*
X004854Y011505D01*
X004842Y011518D01*
X004709Y011518D01*
X004697Y011505D01*
X004684Y011518D01*
X004552Y011518D01*
X004539Y011505D01*
X004527Y011518D01*
X004394Y011518D01*
X004382Y011505D01*
X004369Y011518D01*
X004237Y011518D01*
X004143Y011424D01*
X004143Y011056D01*
X004237Y010963D01*
X004369Y010963D01*
X004382Y010975D01*
X004394Y010963D01*
X004416Y010963D01*
X004405Y010936D01*
X004405Y010840D01*
X004426Y010790D01*
X004338Y010790D01*
X004040Y011074D01*
X003997Y011117D01*
X003995Y011117D01*
X003993Y011118D01*
X003933Y011117D01*
X003841Y011117D01*
X003833Y011124D01*
X003833Y011424D01*
X003739Y011518D01*
X003607Y011518D01*
X003594Y011505D01*
X003582Y011518D01*
X003449Y011518D01*
X003356Y011424D01*
X003356Y011056D01*
X003392Y011020D01*
X003392Y010944D01*
X003457Y010879D01*
X003177Y010879D01*
X003107Y010809D01*
X003107Y010802D01*
X002973Y010802D01*
X002973Y010816D02*
X003114Y010816D01*
X002973Y010895D02*
X003442Y010895D01*
X003392Y010973D02*
X002973Y010973D01*
X002973Y011052D02*
X003360Y011052D01*
X003356Y011130D02*
X003052Y011130D01*
X003130Y011209D02*
X003356Y011209D01*
X003358Y011123D02*
X003358Y011357D01*
X003356Y011366D02*
X003181Y011366D01*
X003181Y011287D02*
X003356Y011287D01*
X003358Y011240D02*
X003358Y011502D01*
X003625Y011819D01*
X003813Y011444D02*
X004163Y011444D01*
X004143Y011366D02*
X003833Y011366D01*
X003833Y011287D02*
X004143Y011287D01*
X004146Y011357D02*
X004146Y011123D01*
X004143Y011130D02*
X003833Y011130D01*
X003833Y011209D02*
X004143Y011209D01*
X004146Y011240D02*
X004146Y010994D01*
X004330Y010888D01*
X004310Y010816D02*
X004415Y010816D01*
X004405Y010895D02*
X004228Y010895D01*
X004226Y010973D02*
X004146Y010973D01*
X004148Y011052D02*
X004063Y011052D01*
X003988Y011123D02*
X003988Y011357D01*
X003831Y011357D02*
X003831Y011123D01*
X003673Y011123D02*
X003673Y011357D01*
X003516Y011357D02*
X003516Y011123D01*
X003376Y011444D02*
X003276Y011444D01*
X003321Y011523D02*
X005931Y011523D01*
X005931Y011601D02*
X005638Y011601D01*
X005785Y011518D02*
X005576Y011349D01*
X005513Y011309D01*
X005522Y011555D02*
X005288Y011555D01*
X005173Y011601D02*
X003321Y011601D01*
X003321Y011680D02*
X005128Y011680D01*
X005128Y011758D02*
X003321Y011758D01*
X003321Y011837D02*
X005128Y011837D01*
X005128Y011915D02*
X003321Y011915D01*
X003321Y011994D02*
X005128Y011994D01*
X005128Y012072D02*
X003321Y012072D01*
X003321Y012151D02*
X005128Y012151D01*
X005128Y012229D02*
X003321Y012229D01*
X003321Y012308D02*
X005128Y012308D01*
X005128Y012386D02*
X003321Y012386D01*
X003321Y012465D02*
X005128Y012465D01*
X005128Y012543D02*
X003321Y012543D01*
X003321Y012622D02*
X005128Y012622D01*
X005128Y012700D02*
X003321Y012700D01*
X003321Y012779D02*
X005183Y012779D01*
X005078Y012815D02*
X004825Y013019D01*
X004921Y012972D01*
X005405Y012972D01*
X005288Y012972D02*
X005522Y012972D01*
X005405Y012972D02*
X006021Y012972D01*
X006022Y012971D01*
X006022Y012677D01*
X006087Y012700D02*
X005947Y012700D01*
X005913Y012779D02*
X006179Y012779D01*
X006102Y012857D02*
X003321Y012857D01*
X003321Y012936D02*
X006101Y012936D01*
X006101Y013014D02*
X005698Y013014D01*
X005590Y013132D02*
X005587Y013130D01*
X005405Y013130D01*
X005288Y013130D02*
X005522Y013130D01*
X005590Y013132D02*
X005590Y013252D01*
X005629Y013291D01*
X005409Y013291D01*
X005405Y013287D01*
X005288Y013287D02*
X005522Y013287D01*
X005432Y013314D02*
X005405Y013287D01*
X005432Y013314D02*
X005432Y013526D01*
X005644Y013642D02*
X006546Y013642D01*
X006546Y013564D02*
X005672Y013564D01*
X005629Y013291D02*
X005848Y013291D01*
X006032Y013093D02*
X006101Y013093D01*
X006104Y013171D02*
X006075Y013171D01*
X006075Y013250D02*
X006548Y013250D01*
X006548Y013328D02*
X006075Y013328D01*
X006075Y013407D02*
X006547Y013407D01*
X006547Y013485D02*
X006037Y013485D01*
X005932Y013721D02*
X006546Y013721D01*
X006545Y013799D02*
X006010Y013799D01*
X006112Y013878D02*
X006545Y013878D01*
X006544Y013956D02*
X006441Y013956D01*
X006472Y014035D02*
X006544Y014035D01*
X006544Y014113D02*
X006472Y014113D01*
X006472Y014192D02*
X006543Y014192D01*
X006543Y014270D02*
X006472Y014270D01*
X006422Y014349D02*
X006542Y014349D01*
X006542Y014427D02*
X006115Y014427D01*
X006161Y014506D02*
X006542Y014506D01*
X006541Y014584D02*
X006161Y014584D01*
X006161Y014663D02*
X006541Y014663D01*
X006540Y014741D02*
X006161Y014741D01*
X006161Y014820D02*
X006540Y014820D01*
X006540Y014898D02*
X006161Y014898D01*
X006117Y014977D02*
X006539Y014977D01*
X006539Y015055D02*
X005775Y015055D01*
X005790Y015134D02*
X006538Y015134D01*
X006538Y015212D02*
X005780Y015212D01*
X005739Y015291D02*
X006538Y015291D01*
X006537Y015369D02*
X005725Y015369D01*
X005774Y015448D02*
X006537Y015448D01*
X006536Y015526D02*
X005790Y015526D01*
X005781Y015605D02*
X006536Y015605D01*
X006245Y014143D02*
X006027Y014149D01*
X005884Y014154D01*
X005865Y014094D01*
X005865Y013880D01*
X005826Y013841D01*
X005117Y013841D01*
X005090Y013814D01*
X005090Y013602D01*
X005090Y013485D02*
X005090Y013719D01*
X004933Y013719D02*
X004933Y013485D01*
X005002Y013328D02*
X005021Y013328D01*
X005128Y013250D02*
X003321Y013250D01*
X003321Y013171D02*
X005128Y013171D01*
X005128Y013093D02*
X003321Y013093D01*
X003321Y013014D02*
X005177Y013014D01*
X005078Y012815D02*
X005405Y012815D01*
X005288Y012815D02*
X005522Y012815D01*
X005522Y012657D02*
X005288Y012657D01*
X005405Y012657D02*
X005764Y012657D01*
X005783Y012677D01*
X005764Y012500D02*
X005405Y012500D01*
X005288Y012500D02*
X005522Y012500D01*
X005522Y012342D02*
X005288Y012342D01*
X005405Y012342D02*
X005661Y012342D01*
X005841Y012162D01*
X006019Y012162D01*
X006019Y012477D01*
X006022Y012480D01*
X006179Y012406D02*
X006179Y012385D01*
X006244Y012320D01*
X006244Y012005D01*
X006174Y011935D01*
X006012Y011935D01*
X006012Y011739D01*
X006302Y011739D01*
X006275Y011805D01*
X006275Y011900D01*
X006311Y011989D01*
X006379Y012056D01*
X006467Y012093D01*
X006554Y012093D01*
X006553Y012209D01*
X006452Y012209D01*
X006316Y012265D01*
X006212Y012369D01*
X006195Y012409D01*
X006181Y012409D01*
X006179Y012406D01*
X006179Y012386D02*
X006205Y012386D01*
X006244Y012308D02*
X006273Y012308D01*
X006244Y012229D02*
X006403Y012229D01*
X006360Y012162D02*
X006158Y011882D01*
X006158Y011854D01*
X006275Y011837D02*
X006012Y011837D01*
X006012Y011915D02*
X006281Y011915D01*
X006316Y011994D02*
X006233Y011994D01*
X006244Y012072D02*
X006417Y012072D01*
X006554Y012151D02*
X006244Y012151D01*
X006294Y011758D02*
X006012Y011758D01*
X005931Y011444D02*
X005230Y011444D01*
X005250Y011366D02*
X005894Y011366D01*
X005816Y011287D02*
X005250Y011287D01*
X005090Y011357D02*
X005090Y011123D01*
X004933Y011123D02*
X004933Y011357D01*
X004775Y011357D02*
X004775Y011123D01*
X004618Y011123D02*
X004618Y011357D01*
X004618Y011240D02*
X004605Y011227D01*
X004605Y010927D01*
X004645Y010888D01*
X004680Y010569D02*
X004684Y010258D01*
X004700Y010563D02*
X004680Y010569D01*
X004384Y010973D02*
X004380Y010973D01*
X004303Y011123D02*
X004303Y011357D01*
X004460Y011357D02*
X004460Y011123D01*
X004224Y012421D02*
X004027Y012619D01*
X004025Y012619D01*
X003625Y012619D02*
X003625Y013019D01*
X003516Y013128D01*
X003516Y013602D01*
X003516Y013485D02*
X003516Y013719D01*
X003516Y013789D02*
X003523Y013796D01*
X003523Y014067D01*
X003290Y014067D01*
X003290Y013878D01*
X003292Y013880D01*
X003424Y013880D01*
X003516Y013789D01*
X003523Y013799D02*
X003505Y013799D01*
X003523Y013878D02*
X003427Y013878D01*
X003503Y013880D02*
X003405Y013978D01*
X003405Y013997D01*
X003290Y014035D02*
X003523Y014035D01*
X003523Y013956D02*
X003290Y013956D01*
X003294Y014234D02*
X003385Y014325D01*
X003341Y014282D01*
X003503Y013880D02*
X003503Y013615D01*
X003516Y013602D01*
X003506Y013407D02*
X003525Y013407D01*
X003604Y013328D02*
X003428Y013328D01*
X003358Y013485D02*
X003358Y013719D01*
X003064Y013835D02*
X002873Y013644D01*
X003033Y013484D01*
X003033Y013287D01*
X003043Y013287D01*
X002926Y013287D02*
X003160Y013287D01*
X003160Y013130D02*
X002926Y013130D01*
X002926Y012972D02*
X003160Y012972D01*
X003160Y012815D02*
X002926Y012815D01*
X002926Y012657D02*
X003160Y012657D01*
X003160Y012500D02*
X002926Y012500D01*
X002926Y012342D02*
X003160Y012342D01*
X003041Y012187D02*
X003043Y012185D01*
X002926Y012185D02*
X003160Y012185D01*
X003160Y011713D02*
X002926Y011713D01*
X002926Y011555D02*
X003160Y011555D01*
X003332Y010652D02*
X003332Y010337D01*
X002910Y009628D02*
X002910Y009628D01*
X003529Y007660D02*
X003542Y007581D01*
X003542Y007384D01*
X003503Y007345D01*
X005228Y009159D02*
X005034Y009353D01*
X005278Y009596D01*
X005366Y009684D01*
X005366Y009911D01*
X006192Y009911D01*
X006246Y009906D01*
X006253Y009911D01*
X006262Y009911D01*
X006300Y009950D01*
X006361Y009999D01*
X006365Y009999D01*
X006369Y009995D01*
X006734Y009995D01*
X006804Y010065D01*
X006804Y010460D01*
X006734Y010530D01*
X006369Y010530D01*
X006349Y010511D01*
X006340Y010510D01*
X006340Y010671D01*
X006392Y010671D01*
X006462Y010741D01*
X006462Y011056D01*
X006392Y011126D01*
X006081Y011126D01*
X006011Y011056D01*
X006011Y010931D01*
X005850Y010931D01*
X005845Y010935D01*
X005888Y010935D01*
X005976Y011023D01*
X006241Y011288D01*
X006316Y011288D01*
X006386Y011358D01*
X006386Y011646D01*
X006463Y011614D01*
X006463Y011554D01*
X006857Y011161D01*
X006945Y011073D01*
X007036Y011073D01*
X007020Y011057D01*
X007020Y010743D01*
X007061Y010703D01*
X007015Y010657D01*
X007015Y010459D01*
X007085Y010389D01*
X007450Y010389D01*
X007521Y010459D01*
X007521Y010657D01*
X007453Y010725D01*
X007471Y010743D01*
X007471Y010892D01*
X007644Y010892D01*
X007644Y010175D01*
X007521Y010175D01*
X007521Y010259D01*
X007450Y010330D01*
X007085Y010330D01*
X007015Y010259D01*
X007015Y010061D01*
X007085Y009991D01*
X007118Y009991D01*
X007118Y009856D01*
X007152Y009822D01*
X007176Y009798D01*
X007174Y009798D01*
X007163Y009806D01*
X007113Y009798D01*
X005956Y009798D01*
X005903Y009851D01*
X005815Y009888D01*
X005719Y009888D01*
X005631Y009851D01*
X005563Y009784D01*
X005527Y009696D01*
X005527Y009691D01*
X005463Y009691D01*
X005375Y009654D01*
X005307Y009587D01*
X005271Y009499D01*
X005271Y009403D01*
X005084Y009403D01*
X005062Y009325D02*
X005303Y009325D01*
X005307Y009315D02*
X005375Y009248D01*
X005443Y009219D01*
X005320Y009169D01*
X005228Y009076D01*
X005228Y009159D01*
X005219Y009168D02*
X005319Y009168D01*
X005379Y009246D02*
X005141Y009246D01*
X005228Y009089D02*
X005241Y009089D01*
X005307Y009315D02*
X005271Y009403D01*
X005271Y009482D02*
X005163Y009482D01*
X005241Y009560D02*
X005296Y009560D01*
X005320Y009639D02*
X005359Y009639D01*
X005366Y009717D02*
X005536Y009717D01*
X005575Y009796D02*
X005366Y009796D01*
X005366Y009874D02*
X005686Y009874D01*
X005848Y009874D02*
X007118Y009874D01*
X007118Y009953D02*
X006304Y009953D01*
X006180Y010297D02*
X005511Y010297D01*
X005543Y010723D02*
X005489Y010777D01*
X005401Y010813D01*
X005306Y010813D01*
X005228Y010781D01*
X005228Y010935D01*
X005831Y010935D01*
X005789Y010931D01*
X005735Y010931D01*
X005729Y010924D01*
X005720Y010923D01*
X005685Y010881D01*
X005647Y010843D01*
X005647Y010834D01*
X005557Y010723D01*
X005543Y010723D01*
X005528Y010738D02*
X005569Y010738D01*
X005633Y010816D02*
X005228Y010816D01*
X005228Y010895D02*
X005696Y010895D01*
X005926Y010973D02*
X006011Y010973D01*
X006005Y011052D02*
X006011Y011052D01*
X006083Y011130D02*
X006887Y011130D01*
X006809Y011209D02*
X006162Y011209D01*
X006240Y011287D02*
X006730Y011287D01*
X006652Y011366D02*
X006386Y011366D01*
X006386Y011444D02*
X006573Y011444D01*
X006495Y011523D02*
X006386Y011523D01*
X006386Y011601D02*
X006463Y011601D01*
X006462Y011052D02*
X007020Y011052D01*
X007020Y010973D02*
X006462Y010973D01*
X006462Y010895D02*
X007020Y010895D01*
X007020Y010816D02*
X006462Y010816D01*
X006458Y010738D02*
X007026Y010738D01*
X007017Y010659D02*
X006340Y010659D01*
X006340Y010581D02*
X007015Y010581D01*
X007015Y010502D02*
X006762Y010502D01*
X006831Y010538D02*
X006849Y010538D01*
X006849Y010553D01*
X006551Y010558D01*
X006551Y010734D01*
X006551Y010748D01*
X006578Y010899D01*
X006551Y010734D01*
X006551Y010361D02*
X006176Y010341D01*
X006180Y010297D01*
X006180Y010778D01*
X006237Y010899D01*
X006804Y010424D02*
X007050Y010424D01*
X007022Y010267D02*
X006804Y010267D01*
X006804Y010345D02*
X007644Y010345D01*
X007580Y010341D02*
X007578Y010291D01*
X007558Y010777D01*
X007644Y010816D02*
X007471Y010816D01*
X007466Y010738D02*
X007644Y010738D01*
X007644Y010659D02*
X007518Y010659D01*
X007521Y010581D02*
X007644Y010581D01*
X007644Y010502D02*
X007521Y010502D01*
X007485Y010424D02*
X007644Y010424D01*
X007580Y010341D02*
X007268Y010361D01*
X007268Y010558D02*
X007268Y010760D01*
X007246Y010900D01*
X007015Y010188D02*
X006804Y010188D01*
X006804Y010110D02*
X007015Y010110D01*
X007045Y010031D02*
X006770Y010031D01*
X007145Y009526D02*
X007167Y009371D01*
X007497Y009548D01*
X007578Y009609D01*
X007578Y009950D01*
X007521Y010188D02*
X007644Y010188D01*
X007644Y010267D02*
X007513Y010267D01*
X007635Y009449D02*
X007644Y009449D01*
X007644Y007268D01*
X007631Y007259D01*
X006944Y007259D01*
X006944Y007502D01*
X006888Y007558D01*
X006888Y007845D01*
X006818Y007915D01*
X006600Y007915D01*
X006530Y007845D01*
X006530Y007539D01*
X006493Y007502D01*
X006493Y007495D01*
X006253Y007495D01*
X006253Y007680D01*
X006178Y007860D01*
X006040Y007998D01*
X005860Y008073D01*
X005665Y008073D01*
X005553Y008026D01*
X005228Y008352D01*
X005228Y008515D01*
X005320Y008423D01*
X005482Y008356D01*
X005657Y008356D01*
X005819Y008423D01*
X005943Y008547D01*
X006010Y008708D01*
X006010Y008883D01*
X005943Y009045D01*
X005819Y009169D01*
X005718Y009211D01*
X006603Y009211D01*
X006671Y009143D01*
X006981Y009143D01*
X006996Y009158D01*
X007012Y009143D01*
X007322Y009143D01*
X007392Y009213D01*
X007392Y009310D01*
X007527Y009382D01*
X007541Y009380D01*
X007584Y009413D01*
X007631Y009438D01*
X007635Y009449D01*
X007644Y009449D02*
X007644Y009449D01*
X007644Y009403D02*
X007571Y009403D01*
X007644Y009325D02*
X007420Y009325D01*
X007392Y009246D02*
X007644Y009246D01*
X007644Y009168D02*
X007347Y009168D01*
X007644Y009089D02*
X005899Y009089D01*
X005957Y009011D02*
X006545Y009011D01*
X006563Y009029D02*
X006493Y008959D01*
X006493Y008671D01*
X006474Y008690D01*
X006385Y008726D01*
X006290Y008726D01*
X006202Y008690D01*
X006134Y008622D01*
X006098Y008534D01*
X006098Y008439D01*
X006134Y008351D01*
X006202Y008283D01*
X006290Y008246D01*
X006385Y008246D01*
X006474Y008283D01*
X006517Y008326D01*
X006530Y008326D01*
X006530Y008297D01*
X006600Y008226D01*
X006818Y008226D01*
X006888Y008297D01*
X006888Y008589D01*
X006944Y008644D01*
X006944Y008959D01*
X006874Y009029D01*
X006563Y009029D01*
X006493Y008932D02*
X005989Y008932D01*
X006010Y008854D02*
X006493Y008854D01*
X006493Y008775D02*
X006010Y008775D01*
X006005Y008697D02*
X006218Y008697D01*
X006132Y008618D02*
X005972Y008618D01*
X005936Y008540D02*
X006100Y008540D01*
X006098Y008461D02*
X005857Y008461D01*
X005722Y008383D02*
X006121Y008383D01*
X006181Y008304D02*
X005276Y008304D01*
X005228Y008383D02*
X005418Y008383D01*
X005354Y008226D02*
X007644Y008226D01*
X007644Y008304D02*
X006888Y008304D01*
X006888Y008383D02*
X007644Y008383D01*
X007644Y008461D02*
X006888Y008461D01*
X006888Y008540D02*
X007644Y008540D01*
X007644Y008618D02*
X006918Y008618D01*
X006944Y008697D02*
X007644Y008697D01*
X007644Y008775D02*
X006944Y008775D01*
X006944Y008854D02*
X007644Y008854D01*
X007644Y008932D02*
X006944Y008932D01*
X006892Y009011D02*
X007644Y009011D01*
X007644Y008147D02*
X005433Y008147D01*
X005511Y008069D02*
X005655Y008069D01*
X005871Y008069D02*
X007644Y008069D01*
X007644Y007990D02*
X006049Y007990D01*
X006127Y007912D02*
X006597Y007912D01*
X006530Y007833D02*
X006190Y007833D01*
X006222Y007755D02*
X006530Y007755D01*
X006530Y007676D02*
X006253Y007676D01*
X006253Y007598D02*
X006530Y007598D01*
X006510Y007519D02*
X006253Y007519D01*
X006554Y007127D02*
X005942Y007127D01*
X006495Y008304D02*
X006530Y008304D01*
X006707Y008486D02*
X006709Y008484D01*
X006718Y008494D01*
X006718Y008801D01*
X006493Y008697D02*
X006458Y008697D01*
X006338Y008486D02*
X006707Y008486D01*
X006822Y007912D02*
X007644Y007912D01*
X007644Y007833D02*
X006888Y007833D01*
X006888Y007755D02*
X007644Y007755D01*
X007644Y007676D02*
X006888Y007676D01*
X006888Y007598D02*
X007644Y007598D01*
X007644Y007519D02*
X006927Y007519D01*
X006944Y007441D02*
X007644Y007441D01*
X007644Y007362D02*
X006944Y007362D01*
X006944Y007284D02*
X007644Y007284D01*
X007796Y007008D02*
X007797Y004996D01*
X007591Y005255D01*
X007591Y006872D01*
X007504Y006959D01*
X007661Y006959D01*
X007708Y006949D01*
X007722Y006959D01*
X007738Y006959D01*
X007772Y006992D01*
X007796Y007008D01*
X007796Y006970D02*
X007749Y006970D01*
X007796Y006891D02*
X007572Y006891D01*
X007591Y006813D02*
X007796Y006813D01*
X007796Y006734D02*
X007591Y006734D01*
X007591Y006656D02*
X007796Y006656D01*
X007796Y006577D02*
X007591Y006577D01*
X007591Y006499D02*
X007796Y006499D01*
X007796Y006420D02*
X007591Y006420D01*
X007591Y006342D02*
X007797Y006342D01*
X007797Y006263D02*
X007591Y006263D01*
X007591Y006185D02*
X007797Y006185D01*
X007797Y006106D02*
X007591Y006106D01*
X007591Y006028D02*
X007797Y006028D01*
X007797Y005949D02*
X007591Y005949D01*
X007591Y005871D02*
X007797Y005871D01*
X007797Y005792D02*
X007591Y005792D01*
X007591Y005714D02*
X007797Y005714D01*
X007797Y005635D02*
X007591Y005635D01*
X007591Y005557D02*
X007797Y005557D01*
X007797Y005478D02*
X007591Y005478D01*
X007591Y005400D02*
X007797Y005400D01*
X007797Y005321D02*
X007591Y005321D01*
X007600Y005243D02*
X007797Y005243D01*
X007797Y005164D02*
X007663Y005164D01*
X007726Y005086D02*
X007797Y005086D01*
X007789Y005007D02*
X007797Y005007D01*
X007716Y004842D02*
X007244Y005432D01*
X007716Y004842D02*
X007716Y002227D01*
X007496Y002007D01*
X006718Y007345D02*
X006709Y007354D01*
X007221Y008484D02*
X007221Y008640D01*
X007059Y008801D01*
X006826Y009371D02*
X005611Y009371D01*
X005511Y009451D01*
X005820Y009168D02*
X006646Y009168D01*
X007558Y011118D02*
X007558Y011334D01*
X007532Y011459D01*
X006525Y012579D02*
X006340Y012579D01*
X005783Y012480D02*
X005764Y012500D01*
X005578Y012185D02*
X005785Y011979D01*
X005785Y011859D01*
X005785Y011520D02*
X005785Y011518D01*
X005578Y012185D02*
X005405Y012185D01*
X005288Y012185D02*
X005522Y012185D01*
X005522Y012027D02*
X005288Y012027D01*
X005288Y011870D02*
X005522Y011870D01*
X005522Y011713D02*
X005288Y011713D01*
X004863Y013328D02*
X004845Y013328D01*
X004775Y013485D02*
X004775Y013719D01*
X004775Y013602D02*
X004775Y013907D01*
X004715Y013928D01*
X004783Y014154D02*
X004558Y014154D01*
X004488Y014083D01*
X004488Y013880D01*
X004394Y013880D01*
X004382Y013867D01*
X004369Y013880D01*
X004237Y013880D01*
X004224Y013867D01*
X004212Y013880D01*
X004115Y013880D01*
X004115Y014093D01*
X004050Y014158D01*
X004108Y014241D01*
X004311Y014241D01*
X004381Y014311D01*
X004381Y014350D01*
X004605Y014350D01*
X004606Y014351D01*
X004783Y014351D01*
X004783Y014154D01*
X004783Y014192D02*
X004074Y014192D01*
X004095Y014113D02*
X004518Y014113D01*
X004488Y014035D02*
X004115Y014035D01*
X004115Y013956D02*
X004488Y013956D01*
X004392Y013878D02*
X004371Y013878D01*
X004234Y013878D02*
X004214Y013878D01*
X004146Y013719D02*
X004146Y013485D01*
X004215Y013328D02*
X004233Y013328D01*
X004372Y013328D02*
X004391Y013328D01*
X004530Y013328D02*
X004548Y013328D01*
X004618Y013485D02*
X004618Y013719D01*
X004460Y013719D02*
X004460Y013485D01*
X004303Y013485D02*
X004303Y013719D01*
X004076Y013328D02*
X004058Y013328D01*
X003988Y013485D02*
X003988Y013719D01*
X003831Y013877D02*
X003889Y013936D01*
X003889Y014206D01*
X004064Y014460D01*
X004340Y014270D02*
X004783Y014270D01*
X004783Y014349D02*
X004381Y014349D01*
X004381Y014801D02*
X004381Y014990D01*
X005231Y014990D01*
X005173Y014932D01*
X005173Y014726D01*
X004963Y014726D01*
X004963Y014732D01*
X004892Y014802D01*
X004578Y014802D01*
X004577Y014801D01*
X004381Y014801D01*
X004381Y014820D02*
X005173Y014820D01*
X005173Y014898D02*
X004381Y014898D01*
X004448Y014917D02*
X004735Y014877D01*
X004735Y014917D01*
X004789Y014878D01*
X004953Y014741D02*
X005173Y014741D01*
X005218Y014977D02*
X004381Y014977D01*
X004829Y015481D02*
X004829Y015534D01*
X005170Y015534D02*
X005550Y015534D01*
X005451Y014705D02*
X005381Y014576D01*
X004706Y013328D02*
X004687Y013328D01*
X003919Y013328D02*
X003900Y013328D01*
X003831Y013485D02*
X003831Y013719D01*
X003831Y013602D02*
X003831Y013877D01*
X003673Y013719D02*
X003673Y013485D01*
X003743Y013328D02*
X003761Y013328D01*
X003064Y013835D02*
X003064Y013997D01*
X003021Y014471D02*
X002985Y014467D01*
X003021Y014471D02*
X002676Y014471D01*
X002683Y014477D01*
X002683Y014812D01*
X002985Y014808D02*
X003059Y014837D01*
X003385Y014837D01*
X003542Y015534D02*
X003122Y015534D01*
X002794Y015599D02*
X002781Y015534D01*
X005228Y008461D02*
X005282Y008461D01*
D13*
X004224Y012421D03*
D14*
X005783Y012480D03*
X005783Y012677D03*
X006022Y012677D03*
X006022Y012480D03*
X006206Y012579D03*
D15*
X005884Y014154D03*
X005884Y014705D03*
X005451Y014705D03*
X005451Y014154D03*
D16*
X007217Y014583D03*
X007217Y012575D03*
D17*
X003385Y014325D03*
X003385Y014837D03*
D18*
X004064Y014893D03*
X004064Y014460D03*
D19*
X002162Y009825D03*
D20*
X002910Y009825D03*
X002910Y010022D03*
X002910Y010219D03*
X002910Y010415D03*
X002910Y009628D03*
X002910Y009431D03*
X002910Y009234D03*
X001414Y009234D03*
X001414Y009431D03*
X001414Y009628D03*
X001414Y009825D03*
X001414Y010022D03*
X001414Y010219D03*
X001414Y010415D03*
D21*
X001973Y008351D03*
X002209Y008351D03*
X002209Y007643D03*
X001973Y007643D03*
D22*
X001736Y007761D03*
X001736Y007997D03*
X001736Y008233D03*
X002445Y008233D03*
X002445Y007997D03*
X002445Y007761D03*
D23*
X001667Y012396D03*
X001293Y013247D03*
X000919Y012396D03*
D24*
X000899Y014253D03*
X001068Y014253D03*
X001450Y014254D03*
X001619Y014254D03*
X002001Y014254D03*
X002170Y014254D03*
D25*
X002086Y014530D03*
X001534Y014530D03*
X000984Y014529D03*
D26*
X006551Y010558D03*
X006551Y010361D03*
X006551Y010164D03*
X007268Y010160D03*
X007268Y010361D03*
X007268Y010558D03*
D27*
X006910Y010361D03*
D28*
X006965Y008484D03*
X007221Y008484D03*
X007221Y007657D03*
X006965Y007657D03*
X006709Y007657D03*
X006709Y008484D03*
D29*
X006807Y008071D03*
X007122Y008071D03*
D30*
X006965Y008071D03*
D31*
X005763Y007583D03*
X004763Y007583D03*
D32*
X005078Y008290D02*
X005078Y009097D01*
X004861Y009313D01*
X004861Y009392D01*
X005216Y009746D01*
X005216Y010002D01*
X005255Y010061D01*
X006200Y010061D01*
X006303Y010145D01*
X006551Y010164D01*
X006712Y009904D02*
X006672Y009864D01*
X005570Y009864D01*
X005216Y009490D01*
X005216Y009353D01*
X005412Y009215D01*
X005964Y009215D01*
X006141Y009077D01*
X006968Y009077D01*
X007059Y008985D01*
X007059Y008801D01*
X007145Y009526D02*
X007125Y009648D01*
X005767Y009648D01*
X005629Y010573D02*
X005353Y010573D01*
X005513Y010857D02*
X005558Y010876D01*
X005629Y010947D01*
X005924Y010947D01*
X006220Y011242D01*
X006475Y011242D01*
X006578Y011140D01*
X006578Y010899D01*
X006237Y010899D02*
X006119Y010781D01*
X005797Y010781D01*
X005629Y010573D01*
X005826Y011085D02*
X005088Y011085D01*
X005090Y011240D01*
X005078Y011168D01*
X005078Y009786D01*
X004723Y009431D01*
X004566Y009431D01*
X004527Y009727D02*
X004605Y009805D01*
X004933Y009818D01*
X004933Y011240D01*
X004359Y010563D02*
X003935Y010967D01*
X003779Y010967D01*
X003673Y011072D01*
X003673Y011240D01*
X003542Y011213D02*
X003542Y011006D01*
X003673Y010875D01*
X003673Y010652D01*
X003936Y010652D01*
X004153Y010435D01*
X004153Y009963D01*
X003936Y009746D01*
X003897Y009707D01*
X003621Y009707D01*
X003346Y009707D01*
X003188Y009825D01*
X002910Y009825D01*
X002910Y009628D02*
X003109Y009628D01*
X003168Y009569D01*
X003168Y007935D01*
X003897Y007935D01*
X003975Y008014D01*
X003975Y009431D01*
X004330Y009786D01*
X004330Y010553D01*
X004359Y010563D01*
X004527Y009727D02*
X004172Y009392D01*
X004172Y007699D01*
X004133Y007660D01*
X003870Y007660D01*
X003227Y007660D02*
X003227Y007463D01*
X003188Y007423D01*
X002046Y007423D01*
X001968Y007463D01*
X001968Y007716D01*
X001973Y007733D02*
X001928Y007778D01*
X001753Y007778D01*
X001736Y007761D02*
X001452Y007603D01*
X001217Y007603D01*
X001200Y007620D01*
X001200Y008841D01*
X001357Y008959D01*
X002519Y008959D01*
X002716Y008959D01*
X002794Y008880D01*
X002519Y008959D02*
X002498Y008940D01*
X002498Y008710D01*
X002209Y008683D02*
X002209Y008351D01*
X002164Y008132D02*
X002265Y008132D01*
X002445Y008233D01*
X002125Y007975D02*
X002418Y007761D01*
X002209Y007694D02*
X002243Y007581D01*
X002952Y007581D01*
X002991Y007620D01*
X002991Y007896D01*
X003031Y007935D01*
X003168Y007935D01*
X002949Y007109D02*
X002895Y007045D01*
X003031Y006810D02*
X001141Y006810D01*
X001141Y004960D01*
X003031Y006810D01*
X003030Y006809D02*
X001141Y006809D01*
X001141Y006751D02*
X002970Y006751D01*
X002910Y006692D02*
X001141Y006692D01*
X001141Y006634D02*
X002851Y006634D01*
X002791Y006575D02*
X001141Y006575D01*
X001141Y006517D02*
X002731Y006517D01*
X002671Y006458D02*
X001141Y006458D01*
X001141Y006400D02*
X002612Y006400D01*
X002552Y006341D02*
X001141Y006341D01*
X001141Y006283D02*
X002492Y006283D01*
X002432Y006224D02*
X001141Y006224D01*
X001141Y006166D02*
X002373Y006166D01*
X002313Y006107D02*
X001141Y006107D01*
X001141Y006049D02*
X002253Y006049D01*
X002194Y005990D02*
X001141Y005990D01*
X001141Y005932D02*
X002134Y005932D01*
X002074Y005873D02*
X001141Y005873D01*
X001141Y005815D02*
X002014Y005815D01*
X001955Y005756D02*
X001141Y005756D01*
X001141Y005698D02*
X001895Y005698D01*
X001835Y005639D02*
X001141Y005639D01*
X001141Y005581D02*
X001775Y005581D01*
X001716Y005522D02*
X001141Y005522D01*
X001141Y005464D02*
X001656Y005464D01*
X001596Y005405D02*
X001141Y005405D01*
X001141Y005347D02*
X001536Y005347D01*
X001477Y005288D02*
X001141Y005288D01*
X001141Y005230D02*
X001417Y005230D01*
X001357Y005171D02*
X001141Y005171D01*
X001141Y005113D02*
X001297Y005113D01*
X001238Y005054D02*
X001141Y005054D01*
X001141Y004996D02*
X001178Y004996D01*
X001973Y007643D02*
X001973Y007733D01*
X002125Y007975D02*
X002125Y008093D01*
X002164Y008132D01*
X001973Y008351D02*
X001973Y008521D01*
X001771Y008723D01*
X001453Y009234D02*
X001414Y009234D01*
X001413Y009431D02*
X001414Y009431D01*
X001414Y009825D02*
X000944Y009825D01*
X000826Y009943D01*
X000826Y011282D01*
X000865Y011321D01*
X001259Y011321D01*
X001534Y011597D01*
X001534Y011938D01*
X001574Y011282D02*
X001771Y011282D01*
X002125Y011636D01*
X002125Y012148D01*
X002164Y012187D01*
X003041Y012187D01*
X003043Y012342D02*
X002718Y012342D01*
X001416Y013644D01*
X000944Y013644D01*
X000905Y013683D01*
X000905Y014248D01*
X000905Y015297D02*
X001495Y015297D01*
X001495Y015140D01*
X001495Y015297D02*
X002794Y015297D01*
X004723Y015297D01*
X004829Y015403D01*
X004829Y015534D01*
X004735Y014576D02*
X004999Y014576D01*
X004933Y014510D01*
X004933Y013602D01*
X004999Y014576D02*
X005381Y014576D01*
X005550Y015140D02*
X002125Y015140D01*
X002086Y015101D01*
X002086Y014530D01*
X002007Y014248D02*
X002007Y013486D01*
X002836Y012657D01*
X003043Y012657D01*
X003043Y012500D02*
X002757Y012500D01*
X001456Y013801D01*
X001456Y014248D01*
X000905Y015297D02*
X000892Y015310D01*
X000892Y015534D01*
X002597Y014156D02*
X002597Y013211D01*
X002678Y013130D01*
X003043Y013130D01*
X002597Y014156D02*
X002676Y014234D01*
X003294Y014234D01*
X003673Y014601D02*
X003673Y013602D01*
X003673Y014601D02*
X003964Y014893D01*
X004064Y014893D01*
X004381Y014576D01*
X004448Y014576D01*
X006158Y011854D02*
X005785Y011520D01*
X006158Y011418D02*
X005826Y011085D01*
X006158Y011418D02*
X006158Y011513D01*
X006515Y011853D02*
X006594Y011853D01*
X006613Y011813D01*
X006613Y011616D01*
X007007Y011223D01*
X007361Y011223D01*
X007420Y011164D01*
X007545Y011164D01*
X007558Y011118D01*
X007794Y011557D02*
X007676Y011675D01*
X007283Y011675D01*
X007191Y011584D01*
X007191Y011459D01*
X007794Y011557D02*
X007794Y007187D01*
X007676Y007109D01*
X006731Y007109D01*
X006709Y007131D01*
X006709Y007354D01*
X006709Y007657D01*
X006718Y007345D02*
X006001Y007345D01*
X005763Y007583D01*
X005763Y007604D01*
X005078Y008290D01*
X005551Y006810D02*
X007441Y006810D01*
X007441Y004960D01*
X005551Y006810D01*
X005552Y006809D02*
X007441Y006809D01*
X007441Y006751D02*
X005612Y006751D01*
X005671Y006692D02*
X007441Y006692D01*
X007441Y006634D02*
X005731Y006634D01*
X005770Y006653D02*
X006063Y006613D01*
X005910Y006458D02*
X007441Y006458D01*
X007441Y006400D02*
X005970Y006400D01*
X006030Y006341D02*
X007441Y006341D01*
X007441Y006283D02*
X006090Y006283D01*
X006149Y006224D02*
X007441Y006224D01*
X007441Y006166D02*
X006209Y006166D01*
X006269Y006107D02*
X007441Y006107D01*
X007441Y006049D02*
X006329Y006049D01*
X006388Y005990D02*
X007441Y005990D01*
X007441Y005932D02*
X006448Y005932D01*
X006508Y005873D02*
X007441Y005873D01*
X007441Y005815D02*
X006568Y005815D01*
X006627Y005756D02*
X007441Y005756D01*
X007441Y005698D02*
X006687Y005698D01*
X006747Y005639D02*
X007441Y005639D01*
X007441Y005581D02*
X006807Y005581D01*
X006866Y005522D02*
X007441Y005522D01*
X007441Y005464D02*
X006926Y005464D01*
X006986Y005405D02*
X007441Y005405D01*
X007441Y005347D02*
X007046Y005347D01*
X007105Y005288D02*
X007441Y005288D01*
X007441Y005230D02*
X007165Y005230D01*
X007225Y005171D02*
X007441Y005171D01*
X007441Y005113D02*
X007285Y005113D01*
X007344Y005054D02*
X007441Y005054D01*
X007441Y004996D02*
X007404Y004996D01*
X007441Y006517D02*
X005851Y006517D01*
X005791Y006575D02*
X007441Y006575D01*
X007302Y009884D02*
X007571Y009884D01*
X007578Y009950D01*
X007302Y009884D02*
X007268Y009919D01*
X007268Y010160D01*
X006525Y012579D02*
X006329Y012775D01*
X006329Y013013D01*
X003542Y011213D02*
X003516Y011240D01*
X003358Y011240D02*
X003358Y011047D01*
X003089Y010936D01*
X002748Y011039D02*
X003031Y011321D01*
X003031Y011542D01*
X003043Y011555D01*
X002748Y011039D02*
X002748Y010936D01*
X002755Y010929D01*
X002755Y010691D01*
X002794Y010652D01*
X003332Y010652D01*
X002209Y007694D02*
X002209Y007643D01*
X001521Y010888D02*
X001521Y011229D01*
X001574Y011282D01*
X002794Y015297D02*
X002794Y015599D01*
X001141Y002361D02*
X001141Y000511D01*
X002992Y000511D01*
X001141Y002361D01*
X001141Y002305D02*
X001198Y002305D01*
X001141Y002246D02*
X001257Y002246D01*
X001315Y002188D02*
X001141Y002188D01*
X001141Y002129D02*
X001374Y002129D01*
X001432Y002071D02*
X001141Y002071D01*
X001141Y002012D02*
X001491Y002012D01*
X001549Y001954D02*
X001141Y001954D01*
X001141Y001895D02*
X001608Y001895D01*
X001666Y001837D02*
X001141Y001837D01*
X001141Y001778D02*
X001725Y001778D01*
X001783Y001720D02*
X001141Y001720D01*
X001141Y001661D02*
X001842Y001661D01*
X001900Y001603D02*
X001141Y001603D01*
X001141Y001544D02*
X001959Y001544D01*
X002017Y001486D02*
X001141Y001486D01*
X001141Y001427D02*
X002076Y001427D01*
X002134Y001369D02*
X001141Y001369D01*
X001141Y001310D02*
X002193Y001310D01*
X002251Y001252D02*
X001141Y001252D01*
X001141Y001193D02*
X002310Y001193D01*
X002368Y001135D02*
X001141Y001135D01*
X001141Y001076D02*
X002427Y001076D01*
X002485Y001018D02*
X001141Y001018D01*
X001141Y000959D02*
X002544Y000959D01*
X002602Y000901D02*
X001141Y000901D01*
X001141Y000842D02*
X002661Y000842D01*
X002719Y000784D02*
X001141Y000784D01*
X001141Y000725D02*
X002778Y000725D01*
X002836Y000667D02*
X001141Y000667D01*
X001141Y000608D02*
X002895Y000608D01*
X002953Y000550D02*
X001141Y000550D01*
X005590Y000511D02*
X007441Y002401D01*
X007441Y000511D01*
X005590Y000511D01*
X005628Y000550D02*
X007441Y000550D01*
X007441Y000608D02*
X005685Y000608D01*
X005742Y000667D02*
X007441Y000667D01*
X007441Y000725D02*
X005800Y000725D01*
X005857Y000784D02*
X007441Y000784D01*
X007441Y000842D02*
X005914Y000842D01*
X005972Y000901D02*
X007441Y000901D01*
X007441Y000959D02*
X006029Y000959D01*
X006086Y001018D02*
X007441Y001018D01*
X007441Y001076D02*
X006143Y001076D01*
X006201Y001135D02*
X007441Y001135D01*
X007441Y001193D02*
X006258Y001193D01*
X006315Y001252D02*
X007441Y001252D01*
X007441Y001310D02*
X006373Y001310D01*
X006430Y001369D02*
X007441Y001369D01*
X007441Y001427D02*
X006487Y001427D01*
X006544Y001486D02*
X007441Y001486D01*
X007441Y001544D02*
X006602Y001544D01*
X006659Y001603D02*
X007441Y001603D01*
X007441Y001661D02*
X006716Y001661D01*
X006774Y001720D02*
X007441Y001720D01*
X007441Y001778D02*
X006831Y001778D01*
X006888Y001837D02*
X007441Y001837D01*
X007441Y001895D02*
X006945Y001895D01*
X007003Y001954D02*
X007441Y001954D01*
X007441Y002012D02*
X007060Y002012D01*
X007117Y002071D02*
X007441Y002071D01*
X007441Y002129D02*
X007175Y002129D01*
X007232Y002188D02*
X007441Y002188D01*
X007441Y002246D02*
X007289Y002246D01*
X007346Y002305D02*
X007441Y002305D01*
X007441Y002363D02*
X007404Y002363D01*
X007496Y002007D02*
X007244Y001889D01*
D33*
X007244Y001889D03*
X007244Y001495D03*
X007244Y001101D03*
X007244Y000708D03*
X006850Y000708D03*
X006850Y001101D03*
X006850Y001495D03*
X006456Y001101D03*
X006456Y000708D03*
X006063Y000708D03*
X007244Y005432D03*
X007244Y005826D03*
X007244Y006220D03*
X007244Y006613D03*
X006850Y006613D03*
X006850Y006220D03*
X006850Y005826D03*
X006456Y006220D03*
X006456Y006613D03*
X006063Y006613D03*
X002519Y006613D03*
X002126Y006613D03*
X002126Y006220D03*
X001732Y006220D03*
X001732Y006613D03*
X001732Y005826D03*
X001338Y005826D03*
X001338Y006220D03*
X001338Y006613D03*
X001338Y005432D03*
X001338Y001889D03*
X001338Y001495D03*
X001338Y001101D03*
X001338Y000708D03*
X001732Y000708D03*
X001732Y001101D03*
X001732Y001495D03*
X002126Y001101D03*
X002126Y000708D03*
X002519Y000708D03*
D34*
X001200Y007030D03*
X001771Y008723D03*
X002125Y007975D03*
X002755Y008132D03*
X002952Y008408D03*
X002794Y008880D03*
X003385Y010022D03*
X003621Y009707D03*
X003936Y010140D03*
X004330Y010888D03*
X004645Y010888D03*
X004684Y010258D03*
X004605Y009805D03*
X004566Y009431D03*
X005353Y010573D03*
X005511Y010297D03*
X005513Y010857D03*
X005513Y011309D03*
X004825Y011819D03*
X004825Y012219D03*
X004825Y012619D03*
X004825Y013019D03*
X004425Y013019D03*
X004425Y012619D03*
X004425Y012219D03*
X004425Y011819D03*
X004025Y011819D03*
X004025Y012219D03*
X004025Y012619D03*
X004025Y013019D03*
X003625Y013019D03*
X003625Y012619D03*
X003625Y012219D03*
X003625Y011819D03*
X002873Y013644D03*
X002676Y014471D03*
X002361Y013998D03*
X001731Y013998D03*
X001534Y014825D03*
X001495Y015140D03*
X001574Y015534D03*
X000983Y014825D03*
X001141Y013959D03*
X001220Y012345D03*
X001220Y011636D03*
X000905Y011597D03*
X000905Y009589D03*
X001200Y008841D03*
X002361Y010809D03*
X002637Y011479D03*
X002361Y011833D03*
X002086Y012502D03*
X003542Y015534D03*
X004408Y014234D03*
X005078Y014805D03*
X005550Y015140D03*
X005550Y015534D03*
X005432Y013526D03*
X006515Y011853D03*
X006712Y009904D03*
X006338Y008486D03*
X005767Y009648D03*
X005511Y009451D03*
X007479Y007423D03*
X007676Y006833D03*
X003503Y007345D03*
X003227Y007660D03*
D35*
X006206Y012579D02*
X006340Y012579D01*
D36*
X006525Y012579D02*
X007371Y012579D01*
D37*
X007217Y012575D01*
D38*
X007244Y006613D02*
X006850Y006613D01*
X006850Y006220D01*
X006850Y005826D01*
X006850Y006220D02*
X006456Y006220D01*
X006456Y006613D02*
X006850Y006613D01*
X007244Y006613D02*
X007244Y006220D01*
X007244Y005826D01*
X007244Y005432D01*
X006456Y006613D02*
X006063Y006613D01*
X007244Y001889D02*
X007244Y001495D01*
X006850Y001495D01*
X006850Y001101D02*
X007244Y001101D01*
X007244Y001495D01*
X007244Y001101D02*
X007244Y000708D01*
X006850Y000708D02*
X006850Y001101D01*
X006456Y001101D01*
X006456Y000708D02*
X006850Y000708D01*
X006456Y000708D02*
X006063Y000708D01*
X002519Y000708D02*
X002126Y000708D01*
X002126Y001101D01*
X001732Y001101D01*
X001732Y001495D01*
X001338Y001495D01*
X001338Y001889D01*
X001338Y001495D02*
X001338Y001101D01*
X001338Y000708D02*
X001732Y000708D01*
X001732Y001101D01*
X001338Y005432D02*
X001338Y005826D01*
X001338Y006220D01*
X001338Y006613D01*
X001732Y006613D01*
X001732Y006220D01*
X001732Y005826D01*
X001732Y006613D02*
X002126Y006613D01*
X002126Y006220D01*
X002126Y006613D02*
X002519Y006613D01*
M02*
