%
M48
M72
T01C0.0080
T02C0.0083
T03C0.0400
T04C0.0787
%
T01
X983Y7975
X2558Y9904
X2991Y10455
X3346Y9746
X3660Y10297
X3503Y11282
X3227Y11597
X2952Y12305
X2794Y12817
X3385Y13959
X3621Y13644
X3936Y14077
X4330Y14825
X4645Y14825
X4684Y14195
X4605Y13742
X4566Y13368
X4369Y12738
X4723Y11400
X4172Y10101
X4487Y9392
X4094Y7620
X3149Y8486
X1771Y12266
X1279Y12778
X944Y13329
X905Y15534
X1220Y15573
X1220Y16282
X1141Y17896
X983Y18762
X1495Y19077
X1574Y19471
X1534Y18762
X1731Y17935
X2086Y16439
X2361Y15770
X2637Y15416
X2361Y14746
X2873Y17581
X2676Y18408
X2361Y17935
X3542Y19471
X4408Y18171
X4425Y16956
X4425Y16556
X4425Y16156
X4425Y15756
X4825Y15756
X4825Y16156
X4825Y16556
X4825Y16956
X5432Y17463
X5078Y18742
X5550Y19077
X5550Y19471
X6515Y15790
X6712Y13841
X6338Y12423
X6001Y11282
X6731Y10770
X7479Y11360
X5767Y13585
X5511Y13388
X5511Y14234
X5353Y14510
X5513Y14794
X5513Y15246
X4025Y15756
X4025Y16156
X4025Y16556
X4025Y16956
X3625Y16956
X3625Y16556
X3625Y16156
X3625Y15756
T02
X6807Y12008
X7122Y12008
T03
X5570Y12733
X3570Y13133
X3570Y12333
T04
X1338Y927
X1338Y9786
X7243Y9786
X7243Y927
M30
