G75*
%MOIN*%
%OFA0B0*%
%FSLAX24Y24*%
%IPPOS*%
%LPD*%
%AMOC8*
5,1,8,0,0,1.08239X$1,22.5*
%
%ADD10C,0.0847*%
%ADD11R,0.0271X0.0275*%
%ADD12R,0.0275X0.0271*%
%ADD13C,0.0140*%
%ADD14R,0.1871X0.1871*%
%ADD15C,0.0147*%
%ADD16R,0.0375X0.0414*%
%ADD17R,0.1084X0.0651*%
%ADD18R,0.0454X0.0336*%
%ADD19C,0.0460*%
%ADD20R,0.0454X0.0257*%
%ADD21R,0.1084X0.1241*%
%ADD22R,0.0296X0.0158*%
%ADD23R,0.0224X0.0134*%
%ADD24R,0.0134X0.0224*%
%ADD25R,0.0296X0.0552*%
%ADD26R,0.0158X0.0217*%
%ADD27R,0.0336X0.0217*%
%ADD28R,0.0326X0.0158*%
%ADD29R,0.0300X0.0619*%
%ADD30R,0.0178X0.0336*%
%ADD31C,0.0303*%
%ADD32R,0.0690X0.0454*%
%ADD33C,0.0237*%
%ADD34R,0.0690X0.1044*%
D10*
X001338Y000927D03*
X001338Y009786D03*
X007243Y009786D03*
X007243Y000927D03*
D11*
X007059Y011282D03*
X006718Y011282D03*
X006718Y012738D03*
X006826Y013308D03*
X007059Y012738D03*
X007167Y013308D03*
X007246Y014837D03*
X007191Y015396D03*
X007532Y015396D03*
X006905Y014837D03*
X006578Y014836D03*
X006237Y014836D03*
X006360Y016099D03*
X006019Y016099D03*
X005170Y019471D03*
X004829Y019471D03*
X004230Y017873D03*
X003889Y017873D03*
X003405Y017934D03*
X003064Y017934D03*
X002683Y018749D03*
X002781Y019471D03*
X003122Y019471D03*
X002342Y018749D03*
X001233Y019471D03*
X000892Y019471D03*
X000892Y015888D03*
X001233Y015888D03*
X001521Y015888D03*
X001862Y015888D03*
X002112Y015101D03*
X001862Y014825D03*
X001521Y014825D03*
X002453Y015101D03*
X002748Y014873D03*
X003089Y014873D03*
X003332Y014589D03*
X003332Y014274D03*
X003673Y014274D03*
X003673Y014589D03*
X004359Y014500D03*
X004700Y014500D03*
X003870Y011597D03*
X003529Y011597D03*
X001823Y008211D03*
X001482Y008211D03*
D12*
X001062Y013985D03*
X001062Y014326D03*
X002985Y018404D03*
X002985Y018745D03*
X004448Y018854D03*
X004448Y018513D03*
X004715Y018206D03*
X004735Y018513D03*
X004735Y018854D03*
X004715Y017865D03*
X005785Y015796D03*
X005785Y015455D03*
X006158Y015450D03*
X006158Y015791D03*
X006329Y016950D03*
X006329Y017291D03*
X006245Y018080D03*
X006245Y018421D03*
X005848Y017569D03*
X005848Y017228D03*
X007558Y015055D03*
X007558Y014714D03*
X007578Y014228D03*
X007578Y013887D03*
X007125Y009011D03*
X007125Y008670D03*
D13*
X005090Y015060D02*
X005090Y015294D01*
X004933Y015294D02*
X004933Y015060D01*
X004775Y015060D02*
X004775Y015294D01*
X004618Y015294D02*
X004618Y015060D01*
X004460Y015060D02*
X004460Y015294D01*
X004303Y015294D02*
X004303Y015060D01*
X004146Y015060D02*
X004146Y015294D01*
X003988Y015294D02*
X003988Y015060D01*
X003831Y015060D02*
X003831Y015294D01*
X003673Y015294D02*
X003673Y015060D01*
X003516Y015060D02*
X003516Y015294D01*
X003358Y015294D02*
X003358Y015060D01*
X003160Y015492D02*
X002926Y015492D01*
X002926Y015650D02*
X003160Y015650D01*
X003160Y015807D02*
X002926Y015807D01*
X002926Y015964D02*
X003160Y015964D01*
X003160Y016122D02*
X002926Y016122D01*
X002926Y016279D02*
X003160Y016279D01*
X003160Y016437D02*
X002926Y016437D01*
X002926Y016594D02*
X003160Y016594D01*
X003160Y016752D02*
X002926Y016752D01*
X002926Y016909D02*
X003160Y016909D01*
X003160Y017067D02*
X002926Y017067D01*
X002926Y017224D02*
X003160Y017224D01*
X003358Y017422D02*
X003358Y017656D01*
X003516Y017656D02*
X003516Y017422D01*
X003673Y017422D02*
X003673Y017656D01*
X003831Y017656D02*
X003831Y017422D01*
X003988Y017422D02*
X003988Y017656D01*
X004146Y017656D02*
X004146Y017422D01*
X004303Y017422D02*
X004303Y017656D01*
X004460Y017656D02*
X004460Y017422D01*
X004618Y017422D02*
X004618Y017656D01*
X004775Y017656D02*
X004775Y017422D01*
X004933Y017422D02*
X004933Y017656D01*
X005090Y017656D02*
X005090Y017422D01*
X005288Y017224D02*
X005522Y017224D01*
X005522Y017067D02*
X005288Y017067D01*
X005288Y016909D02*
X005522Y016909D01*
X005522Y016752D02*
X005288Y016752D01*
X005288Y016594D02*
X005522Y016594D01*
X005522Y016437D02*
X005288Y016437D01*
X005288Y016279D02*
X005522Y016279D01*
X005522Y016122D02*
X005288Y016122D01*
X005288Y015964D02*
X005522Y015964D01*
X005522Y015807D02*
X005288Y015807D01*
X005288Y015650D02*
X005522Y015650D01*
X005522Y015492D02*
X005288Y015492D01*
D14*
X004224Y016358D03*
D15*
X005783Y016417D03*
X005783Y016614D03*
X006022Y016614D03*
X006022Y016417D03*
X006206Y016516D03*
D16*
X005884Y018091D03*
X005884Y018642D03*
X005451Y018642D03*
X005451Y018091D03*
D17*
X007217Y018520D03*
X007217Y016512D03*
D18*
X003385Y018262D03*
X003385Y018774D03*
D19*
X003570Y013133D03*
X003570Y012333D03*
X005570Y012733D03*
D20*
X004064Y018397D03*
X004064Y018830D03*
D21*
X002162Y013762D03*
D22*
X002910Y013762D03*
X002910Y013959D03*
X002910Y014156D03*
X002910Y014352D03*
X002910Y013565D03*
X002910Y013368D03*
X002910Y013171D03*
X001414Y013171D03*
X001414Y013368D03*
X001414Y013565D03*
X001414Y013762D03*
X001414Y013959D03*
X001414Y014156D03*
X001414Y014352D03*
D23*
X002560Y009431D03*
X002560Y009195D03*
X002560Y008959D03*
X003265Y008959D03*
X003265Y009195D03*
X003265Y009431D03*
D24*
X003031Y009547D03*
X002794Y009547D03*
X002794Y008843D03*
X003031Y008843D03*
D25*
X001667Y016333D03*
X001293Y017184D03*
X000919Y016333D03*
D26*
X000899Y018190D03*
X001068Y018190D03*
X001450Y018191D03*
X001619Y018191D03*
X002001Y018191D03*
X002170Y018191D03*
D27*
X002086Y018467D03*
X001534Y018467D03*
X000984Y018466D03*
D28*
X006551Y014495D03*
X006551Y014298D03*
X006551Y014101D03*
X007268Y014097D03*
X007268Y014298D03*
X007268Y014495D03*
D29*
X006910Y014298D03*
D30*
X006965Y012421D03*
X007221Y012421D03*
X007221Y011594D03*
X006965Y011594D03*
X006709Y011594D03*
X006709Y012421D03*
D31*
X006807Y012008D03*
X007122Y012008D03*
D32*
X006965Y012008D03*
D33*
X006121Y009786D02*
X005963Y009786D01*
X005963Y009786D01*
X006121Y009786D01*
X006121Y009786D01*
X006121Y009392D02*
X005963Y009392D01*
X005963Y009392D01*
X006121Y009392D01*
X006121Y009392D01*
X006121Y008998D02*
X005963Y008998D01*
X005963Y008998D01*
X006121Y008998D01*
X006121Y008998D01*
X004980Y008998D02*
X004822Y008998D01*
X004822Y008998D01*
X004980Y008998D01*
X004980Y008998D01*
X004980Y009392D02*
X004822Y009392D01*
X004822Y009392D01*
X004980Y009392D01*
X004980Y009392D01*
X004980Y009786D02*
X004822Y009786D01*
X004822Y009786D01*
X004980Y009786D01*
X004980Y009786D01*
D34*
X005471Y009392D03*
M02*
