G75*
%MOIN*%
%OFA0B0*%
%FSLAX24Y24*%
%IPPOS*%
%LPD*%
%AMOC8*
5,1,8,0,0,1.08239X$1,22.5*
%
%ADD10C,0.0310*%
%ADD11R,0.0472X0.0551*%
%ADD12R,0.0315X0.0669*%
%ADD13C,0.0243*%
%ADD14R,0.1102X0.1181*%
%ADD15R,0.0748X0.0935*%
%ADD16R,0.0748X0.0463*%
%ADD17R,0.0827X0.0581*%
%ADD18R,0.0543X0.0177*%
%ADD19R,0.0787X0.0787*%
%ADD20C,0.0080*%
%ADD21C,0.0240*%
%ADD22C,0.0060*%
%ADD23C,0.0120*%
D10*
X004070Y012483D03*
X004070Y012983D03*
X004570Y012983D03*
X004570Y012483D03*
X005070Y012483D03*
X005070Y012983D03*
D11*
X004999Y019313D03*
X004192Y019313D03*
X003011Y019313D03*
X002204Y019313D03*
X001023Y019313D03*
X006180Y019313D03*
D12*
X002813Y011473D03*
X001474Y011473D03*
D13*
X006807Y012008D03*
X007122Y012008D03*
D14*
X006259Y008408D03*
X004290Y008408D03*
X002322Y008408D03*
D15*
X007283Y013167D03*
X007283Y015460D03*
D16*
X007283Y014643D03*
X007283Y013984D03*
D17*
X006377Y013344D03*
X006377Y015283D03*
D18*
X006235Y014825D03*
X006235Y014569D03*
X006235Y014313D03*
X006235Y014057D03*
X006235Y013801D03*
D19*
X005905Y011341D03*
X004723Y011341D03*
D20*
X000594Y010629D02*
X000594Y000380D01*
X001003Y000380D01*
X000979Y000390D01*
X000800Y000568D01*
X000704Y000801D01*
X000704Y001053D01*
X000800Y001286D01*
X000979Y001465D01*
X001212Y001561D01*
X001464Y001561D01*
X001697Y001465D01*
X001875Y001286D01*
X001971Y001053D01*
X001971Y000801D01*
X001875Y000568D01*
X001697Y000390D01*
X001672Y000380D01*
X006909Y000380D01*
X006884Y000390D01*
X006706Y000568D01*
X006609Y000801D01*
X006609Y001053D01*
X006706Y001286D01*
X006884Y001465D01*
X007117Y001561D01*
X007369Y001561D01*
X007602Y001465D01*
X007780Y001286D01*
X007877Y001053D01*
X007877Y000801D01*
X007780Y000568D01*
X007602Y000390D01*
X007578Y000380D01*
X007997Y000380D01*
X007989Y016006D01*
X007747Y016006D01*
X007777Y015977D01*
X007777Y014943D01*
X007767Y014933D01*
X007777Y014924D01*
X007777Y014362D01*
X007728Y014313D01*
X007777Y014265D01*
X007777Y013702D01*
X007767Y013693D01*
X007777Y013684D01*
X007777Y012649D01*
X007706Y012579D01*
X006859Y012579D01*
X006788Y012649D01*
X006788Y012933D01*
X005963Y012933D01*
X006010Y012820D01*
X006010Y012645D01*
X005943Y012484D01*
X005855Y012396D01*
X006098Y012396D01*
X006098Y012471D01*
X006134Y012559D01*
X006202Y012627D01*
X006290Y012663D01*
X006385Y012663D01*
X006474Y012627D01*
X006541Y012559D01*
X006578Y012471D01*
X006578Y012376D01*
X006541Y012288D01*
X006474Y012220D01*
X006385Y012183D01*
X006310Y012183D01*
X006223Y012096D01*
X005435Y012096D01*
X005425Y012086D01*
X005337Y011998D01*
X004313Y011998D01*
X004047Y011731D01*
X004047Y011535D01*
X003959Y011447D01*
X003677Y011447D01*
X003706Y011418D01*
X003743Y011329D01*
X003743Y011234D01*
X003706Y011146D01*
X003639Y011078D01*
X003551Y011042D01*
X003455Y011042D01*
X003367Y011078D01*
X003314Y011132D01*
X003090Y011132D01*
X003090Y011089D01*
X003020Y011018D01*
X002605Y011018D01*
X002535Y011089D01*
X002535Y011834D01*
X002511Y011810D01*
X002511Y010871D01*
X002541Y010841D01*
X003447Y010841D01*
X003723Y010566D01*
X003781Y010507D01*
X003796Y010501D01*
X003864Y010433D01*
X003900Y010345D01*
X006938Y010345D01*
X006884Y010323D02*
X006706Y010145D01*
X006609Y009912D01*
X006609Y009660D01*
X006706Y009427D01*
X006884Y009248D01*
X007117Y009152D01*
X007369Y009152D01*
X007602Y009248D01*
X007780Y009427D01*
X007877Y009660D01*
X007877Y009912D01*
X007780Y010145D01*
X007602Y010323D01*
X007369Y010419D01*
X007117Y010419D01*
X006884Y010323D01*
X006828Y010267D02*
X004346Y010267D01*
X004376Y010237D02*
X004308Y010304D01*
X004220Y010341D01*
X004125Y010341D01*
X004036Y010304D01*
X003969Y010237D01*
X003932Y010148D01*
X003932Y010053D01*
X003969Y009965D01*
X004022Y009911D01*
X004022Y009769D01*
X003913Y009660D01*
X003141Y009660D01*
X003141Y010266D01*
X003195Y010319D01*
X003231Y010407D01*
X003231Y010503D01*
X003215Y010541D01*
X003323Y010541D01*
X003449Y010415D01*
X003420Y010345D01*
X003205Y010345D01*
X003231Y010424D02*
X003440Y010424D01*
X003420Y010345D02*
X003420Y010250D01*
X003457Y010162D01*
X003525Y010094D01*
X003613Y010057D01*
X003708Y010057D01*
X003796Y010094D01*
X003864Y010162D01*
X003900Y010250D01*
X003900Y010345D01*
X003900Y010267D02*
X003999Y010267D01*
X003949Y010188D02*
X003875Y010188D01*
X003932Y010110D02*
X003812Y010110D01*
X003941Y010031D02*
X003141Y010031D01*
X003141Y009953D02*
X003981Y009953D01*
X004022Y009874D02*
X003141Y009874D01*
X003141Y009796D02*
X004022Y009796D01*
X003970Y009717D02*
X003141Y009717D01*
X003141Y009360D02*
X004038Y009360D01*
X004125Y009448D01*
X004322Y009645D01*
X004322Y009911D01*
X004376Y009965D01*
X004412Y010053D01*
X004412Y010148D01*
X004376Y010237D01*
X004396Y010188D02*
X006749Y010188D01*
X006691Y010110D02*
X004412Y010110D01*
X004403Y010031D02*
X006659Y010031D01*
X006626Y009953D02*
X004364Y009953D01*
X004322Y009874D02*
X006609Y009874D01*
X006609Y009796D02*
X004322Y009796D01*
X004322Y009717D02*
X006609Y009717D01*
X006618Y009639D02*
X004316Y009639D01*
X004238Y009560D02*
X006651Y009560D01*
X006683Y009482D02*
X004159Y009482D01*
X004081Y009403D02*
X006730Y009403D01*
X006808Y009325D02*
X003141Y009325D01*
X003141Y009360D02*
X003141Y008726D01*
X003196Y008726D01*
X003285Y008690D01*
X003352Y008622D01*
X003389Y008534D01*
X003389Y008439D01*
X003352Y008351D01*
X003285Y008283D01*
X003196Y008246D01*
X003101Y008246D01*
X003013Y008283D01*
X002993Y008303D01*
X002993Y007767D01*
X002923Y007697D01*
X001721Y007697D01*
X001651Y007767D01*
X001651Y009048D01*
X001721Y009118D01*
X002103Y009118D01*
X002103Y009990D01*
X001575Y010551D01*
X000673Y010551D01*
X000594Y010629D01*
X000594Y010629D01*
X000594Y010581D02*
X000643Y010581D01*
X000594Y010502D02*
X001620Y010502D01*
X001694Y010424D02*
X000594Y010424D01*
X000594Y010345D02*
X001032Y010345D01*
X000979Y010323D02*
X000800Y010145D01*
X000704Y009912D01*
X000704Y009660D01*
X000800Y009427D01*
X000979Y009248D01*
X001212Y009152D01*
X001464Y009152D01*
X001697Y009248D01*
X001875Y009427D01*
X001971Y009660D01*
X001971Y009912D01*
X001875Y010145D01*
X001697Y010323D01*
X001464Y010419D01*
X001212Y010419D01*
X000979Y010323D01*
X000922Y010267D02*
X000594Y010267D01*
X000594Y010188D02*
X000844Y010188D01*
X000786Y010110D02*
X000594Y010110D01*
X000594Y010031D02*
X000753Y010031D01*
X000721Y009953D02*
X000594Y009953D01*
X000594Y009874D02*
X000704Y009874D01*
X000704Y009796D02*
X000594Y009796D01*
X000594Y009717D02*
X000704Y009717D01*
X000713Y009639D02*
X000594Y009639D01*
X000594Y009560D02*
X000745Y009560D01*
X000778Y009482D02*
X000594Y009482D01*
X000594Y009403D02*
X000824Y009403D01*
X000903Y009325D02*
X000594Y009325D01*
X000594Y009246D02*
X000984Y009246D01*
X001174Y009168D02*
X000594Y009168D01*
X000594Y009089D02*
X001692Y009089D01*
X001651Y009011D02*
X000594Y009011D01*
X000594Y008932D02*
X001651Y008932D01*
X001651Y008854D02*
X000594Y008854D01*
X000594Y008775D02*
X001651Y008775D01*
X001651Y008697D02*
X000594Y008697D01*
X000594Y008618D02*
X001651Y008618D01*
X001651Y008540D02*
X000594Y008540D01*
X000594Y008461D02*
X001651Y008461D01*
X001651Y008383D02*
X000594Y008383D01*
X000594Y008304D02*
X001651Y008304D01*
X001651Y008226D02*
X000594Y008226D01*
X000594Y008147D02*
X000816Y008147D01*
X000847Y008178D02*
X000780Y008111D01*
X000743Y008022D01*
X000743Y007927D01*
X000780Y007839D01*
X000803Y007815D01*
X000803Y007349D01*
X000909Y007243D01*
X000921Y007231D01*
X000921Y007231D01*
X001027Y007125D01*
X006215Y007125D01*
X006321Y007231D01*
X006439Y007349D01*
X006439Y007697D01*
X006860Y007697D01*
X006930Y007767D01*
X006930Y009048D01*
X006860Y009118D01*
X005658Y009118D01*
X005588Y009048D01*
X005588Y007767D01*
X005658Y007697D01*
X006079Y007697D01*
X006079Y007498D01*
X006066Y007485D01*
X004297Y007485D01*
X004334Y007573D01*
X004334Y007606D01*
X004352Y007624D01*
X004352Y007697D01*
X004891Y007697D01*
X004962Y007767D01*
X004962Y009048D01*
X004891Y009118D01*
X003690Y009118D01*
X003619Y009048D01*
X003619Y007767D01*
X003690Y007697D01*
X003866Y007697D01*
X003854Y007668D01*
X003854Y007573D01*
X003890Y007485D01*
X001176Y007485D01*
X001163Y007498D01*
X001163Y007815D01*
X001187Y007839D01*
X001223Y007927D01*
X001223Y008022D01*
X001187Y008111D01*
X001119Y008178D01*
X001031Y008215D01*
X000936Y008215D01*
X000847Y008178D01*
X000762Y008069D02*
X000594Y008069D01*
X000594Y007990D02*
X000743Y007990D01*
X000750Y007912D02*
X000594Y007912D01*
X000594Y007833D02*
X000786Y007833D01*
X000803Y007755D02*
X000594Y007755D01*
X000594Y007676D02*
X000803Y007676D01*
X000803Y007598D02*
X000594Y007598D01*
X000594Y007519D02*
X000803Y007519D01*
X000803Y007441D02*
X000594Y007441D01*
X000594Y007362D02*
X000803Y007362D01*
X000869Y007284D02*
X000594Y007284D01*
X000594Y007205D02*
X000947Y007205D01*
X000909Y007243D02*
X000909Y007243D01*
X001026Y007127D02*
X000594Y007127D01*
X000594Y007048D02*
X007994Y007048D01*
X007994Y006970D02*
X000594Y006970D01*
X000594Y006891D02*
X007994Y006891D01*
X007994Y006813D02*
X000594Y006813D01*
X000594Y006734D02*
X007994Y006734D01*
X007994Y006656D02*
X000594Y006656D01*
X000594Y006577D02*
X007994Y006577D01*
X007994Y006499D02*
X000594Y006499D01*
X000594Y006420D02*
X007994Y006420D01*
X007994Y006342D02*
X000594Y006342D01*
X000594Y006263D02*
X007994Y006263D01*
X007994Y006185D02*
X000594Y006185D01*
X000594Y006106D02*
X003990Y006106D01*
X003807Y006077D02*
X003371Y005855D01*
X003024Y005509D01*
X002802Y005072D01*
X002726Y004589D01*
X002802Y004105D01*
X003024Y003669D01*
X003371Y003323D01*
X003807Y003101D01*
X004290Y003024D01*
X004290Y003024D01*
X004774Y003101D01*
X005210Y003323D01*
X005210Y003323D01*
X005556Y003669D01*
X005779Y004105D01*
X005855Y004589D01*
X005779Y005072D01*
X005779Y005072D01*
X005556Y005509D01*
X005210Y005855D01*
X004774Y006077D01*
X004774Y006077D01*
X004290Y006154D01*
X003807Y006077D01*
X003710Y006028D02*
X000594Y006028D01*
X000594Y005949D02*
X003556Y005949D01*
X003402Y005871D02*
X000594Y005871D01*
X000594Y005792D02*
X003308Y005792D01*
X003371Y005855D02*
X003371Y005855D01*
X003229Y005714D02*
X000594Y005714D01*
X000594Y005635D02*
X003151Y005635D01*
X003072Y005557D02*
X000594Y005557D01*
X000594Y005478D02*
X003009Y005478D01*
X002969Y005400D02*
X000594Y005400D01*
X000594Y005321D02*
X002929Y005321D01*
X002889Y005243D02*
X000594Y005243D01*
X000594Y005164D02*
X002849Y005164D01*
X002809Y005086D02*
X000594Y005086D01*
X000594Y005007D02*
X002792Y005007D01*
X002802Y005072D02*
X002802Y005072D01*
X002779Y004929D02*
X000594Y004929D01*
X000594Y004850D02*
X002767Y004850D01*
X002755Y004772D02*
X000594Y004772D01*
X000594Y004693D02*
X002742Y004693D01*
X002730Y004615D02*
X000594Y004615D01*
X000594Y004536D02*
X002734Y004536D01*
X002726Y004589D02*
X002726Y004589D01*
X002746Y004458D02*
X000594Y004458D01*
X000594Y004379D02*
X002759Y004379D01*
X002771Y004301D02*
X000594Y004301D01*
X000594Y004222D02*
X002784Y004222D01*
X002796Y004144D02*
X000594Y004144D01*
X000594Y004065D02*
X002823Y004065D01*
X002802Y004105D02*
X002802Y004105D01*
X002863Y003987D02*
X000594Y003987D01*
X000594Y003908D02*
X002903Y003908D01*
X002943Y003830D02*
X000594Y003830D01*
X000594Y003751D02*
X002983Y003751D01*
X003023Y003673D02*
X000594Y003673D01*
X000594Y003594D02*
X003099Y003594D01*
X003024Y003669D02*
X003024Y003669D01*
X003178Y003516D02*
X000594Y003516D01*
X000594Y003437D02*
X003256Y003437D01*
X003335Y003359D02*
X000594Y003359D01*
X000594Y003280D02*
X003455Y003280D01*
X003371Y003323D02*
X003371Y003323D01*
X003609Y003202D02*
X000594Y003202D01*
X000594Y003123D02*
X003763Y003123D01*
X003807Y003101D02*
X003807Y003101D01*
X004161Y003045D02*
X000594Y003045D01*
X000594Y002966D02*
X007996Y002966D01*
X007996Y002888D02*
X000594Y002888D01*
X000594Y002809D02*
X007996Y002809D01*
X007996Y002731D02*
X000594Y002731D01*
X000594Y002652D02*
X007996Y002652D01*
X007996Y002574D02*
X000594Y002574D01*
X000594Y002495D02*
X007996Y002495D01*
X007996Y002417D02*
X000594Y002417D01*
X000594Y002338D02*
X007996Y002338D01*
X007996Y002260D02*
X000594Y002260D01*
X000594Y002181D02*
X007996Y002181D01*
X007996Y002103D02*
X000594Y002103D01*
X000594Y002024D02*
X007996Y002024D01*
X007996Y001946D02*
X000594Y001946D01*
X000594Y001867D02*
X007996Y001867D01*
X007996Y001789D02*
X000594Y001789D01*
X000594Y001710D02*
X007996Y001710D01*
X007996Y001632D02*
X000594Y001632D01*
X000594Y001553D02*
X001192Y001553D01*
X001003Y001475D02*
X000594Y001475D01*
X000594Y001396D02*
X000910Y001396D01*
X000832Y001318D02*
X000594Y001318D01*
X000594Y001239D02*
X000781Y001239D01*
X000748Y001161D02*
X000594Y001161D01*
X000594Y001082D02*
X000716Y001082D01*
X000704Y001004D02*
X000594Y001004D01*
X000594Y000925D02*
X000704Y000925D01*
X000704Y000847D02*
X000594Y000847D01*
X000594Y000768D02*
X000718Y000768D01*
X000750Y000690D02*
X000594Y000690D01*
X000594Y000611D02*
X000783Y000611D01*
X000836Y000533D02*
X000594Y000533D01*
X000594Y000454D02*
X000915Y000454D01*
X001483Y001553D02*
X007098Y001553D01*
X006908Y001475D02*
X001673Y001475D01*
X001765Y001396D02*
X006816Y001396D01*
X006737Y001318D02*
X001844Y001318D01*
X001894Y001239D02*
X006686Y001239D01*
X006654Y001161D02*
X001927Y001161D01*
X001960Y001082D02*
X006621Y001082D01*
X006609Y001004D02*
X001971Y001004D01*
X001971Y000925D02*
X006609Y000925D01*
X006609Y000847D02*
X001971Y000847D01*
X001958Y000768D02*
X006623Y000768D01*
X006656Y000690D02*
X001925Y000690D01*
X001892Y000611D02*
X006688Y000611D01*
X006742Y000533D02*
X001839Y000533D01*
X001760Y000454D02*
X006820Y000454D01*
X007389Y001553D02*
X007997Y001553D01*
X007997Y001475D02*
X007578Y001475D01*
X007671Y001396D02*
X007997Y001396D01*
X007997Y001318D02*
X007749Y001318D01*
X007800Y001239D02*
X007997Y001239D01*
X007997Y001161D02*
X007833Y001161D01*
X007865Y001082D02*
X007997Y001082D01*
X007997Y001004D02*
X007877Y001004D01*
X007877Y000925D02*
X007997Y000925D01*
X007997Y000847D02*
X007877Y000847D01*
X007863Y000768D02*
X007997Y000768D01*
X007997Y000690D02*
X007831Y000690D01*
X007798Y000611D02*
X007997Y000611D01*
X007997Y000533D02*
X007744Y000533D01*
X007666Y000454D02*
X007997Y000454D01*
X007996Y003045D02*
X004420Y003045D01*
X004774Y003101D02*
X004774Y003101D01*
X004818Y003123D02*
X007996Y003123D01*
X007996Y003202D02*
X004972Y003202D01*
X005126Y003280D02*
X007996Y003280D01*
X007996Y003359D02*
X005246Y003359D01*
X005324Y003437D02*
X007996Y003437D01*
X007996Y003516D02*
X005403Y003516D01*
X005481Y003594D02*
X007996Y003594D01*
X007995Y003673D02*
X005558Y003673D01*
X005556Y003669D02*
X005556Y003669D01*
X005598Y003751D02*
X007995Y003751D01*
X007995Y003830D02*
X005638Y003830D01*
X005678Y003908D02*
X007995Y003908D01*
X007995Y003987D02*
X005718Y003987D01*
X005758Y004065D02*
X007995Y004065D01*
X007995Y004144D02*
X005785Y004144D01*
X005779Y004105D02*
X005779Y004105D01*
X005797Y004222D02*
X007995Y004222D01*
X007995Y004301D02*
X005810Y004301D01*
X005822Y004379D02*
X007995Y004379D01*
X007995Y004458D02*
X005834Y004458D01*
X005847Y004536D02*
X007995Y004536D01*
X007995Y004615D02*
X005851Y004615D01*
X005839Y004693D02*
X007995Y004693D01*
X007995Y004772D02*
X005826Y004772D01*
X005814Y004850D02*
X007995Y004850D01*
X007995Y004929D02*
X005801Y004929D01*
X005789Y005007D02*
X007995Y005007D01*
X007995Y005086D02*
X005772Y005086D01*
X005732Y005164D02*
X007995Y005164D01*
X007995Y005243D02*
X005692Y005243D01*
X005652Y005321D02*
X007995Y005321D01*
X007995Y005400D02*
X005612Y005400D01*
X005572Y005478D02*
X007995Y005478D01*
X007995Y005557D02*
X005508Y005557D01*
X005556Y005509D02*
X005556Y005509D01*
X005430Y005635D02*
X007994Y005635D01*
X007994Y005714D02*
X005351Y005714D01*
X005273Y005792D02*
X007994Y005792D01*
X007994Y005871D02*
X005179Y005871D01*
X005210Y005855D02*
X005210Y005855D01*
X005025Y005949D02*
X007994Y005949D01*
X007994Y006028D02*
X004871Y006028D01*
X004591Y006106D02*
X007994Y006106D01*
X007994Y007127D02*
X006217Y007127D01*
X006295Y007205D02*
X007994Y007205D01*
X007994Y007284D02*
X006374Y007284D01*
X006439Y007362D02*
X007994Y007362D01*
X007994Y007441D02*
X006439Y007441D01*
X006439Y007519D02*
X007994Y007519D01*
X007994Y007598D02*
X006439Y007598D01*
X006439Y007676D02*
X007993Y007676D01*
X007993Y007755D02*
X006917Y007755D01*
X006930Y007833D02*
X007993Y007833D01*
X007993Y007912D02*
X006930Y007912D01*
X006930Y007990D02*
X007993Y007990D01*
X007993Y008069D02*
X006930Y008069D01*
X006930Y008147D02*
X007993Y008147D01*
X007993Y008226D02*
X006930Y008226D01*
X006930Y008304D02*
X007993Y008304D01*
X007993Y008383D02*
X006930Y008383D01*
X006930Y008461D02*
X007993Y008461D01*
X007993Y008540D02*
X006930Y008540D01*
X006930Y008618D02*
X007993Y008618D01*
X007993Y008697D02*
X006930Y008697D01*
X006930Y008775D02*
X007993Y008775D01*
X007993Y008854D02*
X006930Y008854D01*
X006930Y008932D02*
X007993Y008932D01*
X007993Y009011D02*
X006930Y009011D01*
X006889Y009089D02*
X007993Y009089D01*
X007993Y009168D02*
X007407Y009168D01*
X007596Y009246D02*
X007993Y009246D01*
X007993Y009325D02*
X007678Y009325D01*
X007757Y009403D02*
X007993Y009403D01*
X007993Y009482D02*
X007803Y009482D01*
X007836Y009560D02*
X007993Y009560D01*
X007992Y009639D02*
X007868Y009639D01*
X007877Y009717D02*
X007992Y009717D01*
X007992Y009796D02*
X007877Y009796D01*
X007877Y009874D02*
X007992Y009874D01*
X007992Y009953D02*
X007860Y009953D01*
X007827Y010031D02*
X007992Y010031D01*
X007992Y010110D02*
X007795Y010110D01*
X007737Y010188D02*
X007992Y010188D01*
X007992Y010267D02*
X007658Y010267D01*
X007549Y010345D02*
X007992Y010345D01*
X007992Y010424D02*
X003868Y010424D01*
X003794Y010502D02*
X007992Y010502D01*
X007992Y010581D02*
X003708Y010581D01*
X003629Y010659D02*
X007992Y010659D01*
X007992Y010738D02*
X003551Y010738D01*
X003472Y010816D02*
X007992Y010816D01*
X007992Y010895D02*
X006415Y010895D01*
X006418Y010897D02*
X006418Y011784D01*
X006348Y011854D01*
X005461Y011854D01*
X005391Y011784D01*
X005391Y010897D01*
X005461Y010827D01*
X006348Y010827D01*
X006418Y010897D01*
X006418Y010973D02*
X007992Y010973D01*
X007992Y011052D02*
X006418Y011052D01*
X006418Y011130D02*
X007992Y011130D01*
X007992Y011209D02*
X006418Y011209D01*
X006418Y011287D02*
X007992Y011287D01*
X007992Y011366D02*
X006418Y011366D01*
X006418Y011444D02*
X007992Y011444D01*
X007992Y011523D02*
X006418Y011523D01*
X006418Y011601D02*
X007992Y011601D01*
X007991Y011680D02*
X006418Y011680D01*
X006418Y011758D02*
X007991Y011758D01*
X007991Y011837D02*
X006366Y011837D01*
X006277Y012151D02*
X007991Y012151D01*
X007991Y012229D02*
X006483Y012229D01*
X006549Y012308D02*
X007991Y012308D01*
X007991Y012386D02*
X006578Y012386D01*
X006578Y012465D02*
X007991Y012465D01*
X007991Y012543D02*
X006548Y012543D01*
X006479Y012622D02*
X006816Y012622D01*
X006788Y012700D02*
X006010Y012700D01*
X006010Y012779D02*
X006788Y012779D01*
X006788Y012857D02*
X005994Y012857D01*
X006000Y012622D02*
X006196Y012622D01*
X006127Y012543D02*
X005967Y012543D01*
X005924Y012465D02*
X006098Y012465D01*
X005937Y013754D02*
X005917Y013774D01*
X005917Y013849D01*
X006557Y013849D01*
X006627Y013919D01*
X006627Y014872D01*
X006788Y014872D01*
X006788Y014362D01*
X006837Y014313D01*
X006788Y014265D01*
X006788Y013754D01*
X005937Y013754D01*
X005917Y013799D02*
X006788Y013799D01*
X006788Y013878D02*
X006585Y013878D01*
X006627Y013956D02*
X006788Y013956D01*
X006788Y014035D02*
X006627Y014035D01*
X006627Y014113D02*
X006788Y014113D01*
X006788Y014192D02*
X006627Y014192D01*
X006627Y014270D02*
X006794Y014270D01*
X006802Y014349D02*
X006627Y014349D01*
X006627Y014427D02*
X006788Y014427D01*
X006788Y014506D02*
X006627Y014506D01*
X006627Y014584D02*
X006788Y014584D01*
X006788Y014663D02*
X006627Y014663D01*
X006627Y014741D02*
X006788Y014741D01*
X006788Y014820D02*
X006627Y014820D01*
X006325Y015940D02*
X005311Y015940D01*
X004947Y015576D01*
X004947Y015300D01*
X002849Y015300D01*
X002877Y015368D01*
X002877Y015463D01*
X002840Y015552D01*
X002773Y015619D01*
X002685Y015656D01*
X002589Y015656D01*
X002570Y015648D01*
X002601Y015722D01*
X002601Y015818D01*
X002565Y015906D01*
X002497Y015973D01*
X002409Y016010D01*
X002314Y016010D01*
X002225Y015973D01*
X002158Y015906D01*
X002121Y015818D01*
X002121Y015722D01*
X002158Y015634D01*
X002197Y015595D01*
X001611Y015009D01*
X001611Y012445D01*
X001567Y012402D01*
X001531Y012314D01*
X001531Y012218D01*
X001567Y012130D01*
X001635Y012063D01*
X001723Y012026D01*
X001818Y012026D01*
X001907Y012063D01*
X001974Y012130D01*
X002011Y012218D01*
X002011Y012314D01*
X001974Y012402D01*
X001931Y012445D01*
X001931Y014877D01*
X002404Y015350D01*
X002433Y015280D01*
X002477Y015236D01*
X002477Y015205D01*
X002702Y014980D01*
X004460Y014980D01*
X004441Y014961D01*
X004405Y014873D01*
X004405Y014777D01*
X004441Y014689D01*
X004481Y014650D01*
X004477Y014625D01*
X004485Y014614D01*
X004485Y014601D01*
X004524Y014562D01*
X004603Y014457D01*
X004603Y014444D01*
X004619Y014428D01*
X004548Y014399D01*
X004481Y014331D01*
X004444Y014243D01*
X004444Y014147D01*
X004450Y014134D01*
X004327Y014010D01*
X003623Y014010D01*
X003588Y014095D01*
X003521Y014162D01*
X003433Y014199D01*
X003337Y014199D01*
X003249Y014162D01*
X003195Y014109D01*
X002772Y014109D01*
X002732Y014070D01*
X002644Y013982D01*
X002644Y013007D01*
X002591Y012953D01*
X002554Y012865D01*
X002554Y012769D01*
X002591Y012681D01*
X002648Y012624D01*
X002621Y012603D01*
X002610Y012603D01*
X002570Y012563D01*
X002526Y012529D01*
X002524Y012517D01*
X002516Y012509D01*
X002516Y012453D01*
X002509Y012397D01*
X002516Y012388D01*
X002516Y012239D01*
X002299Y012022D01*
X002211Y011934D01*
X002211Y010747D01*
X002329Y010629D01*
X002417Y010541D01*
X002767Y010541D01*
X002751Y010503D01*
X002751Y010407D01*
X002788Y010319D01*
X002841Y010266D01*
X002841Y009118D01*
X002463Y009118D01*
X002463Y010059D01*
X002465Y010130D01*
X002463Y010133D01*
X002463Y010136D01*
X002412Y010187D01*
X001833Y010802D01*
X001833Y010805D01*
X001782Y010856D01*
X001733Y010908D01*
X001729Y010908D01*
X001727Y010911D01*
X001655Y010911D01*
X001584Y010913D01*
X001581Y010911D01*
X000848Y010911D01*
X000848Y013039D01*
X000918Y013089D01*
X000992Y013089D01*
X001057Y013116D01*
X001058Y012878D01*
X001054Y012874D01*
X001055Y012865D01*
X001039Y012826D01*
X001039Y012730D01*
X001075Y012642D01*
X001143Y012574D01*
X001231Y012538D01*
X001326Y012538D01*
X001415Y012574D01*
X001482Y012642D01*
X001519Y012730D01*
X001519Y012826D01*
X001482Y012914D01*
X001415Y012981D01*
X001357Y013005D01*
X001350Y015130D01*
X001357Y015180D01*
X001350Y015190D01*
X001350Y015203D01*
X001313Y015239D01*
X001139Y015472D01*
X001145Y015486D01*
X001145Y015581D01*
X001108Y015670D01*
X001041Y015737D01*
X000952Y015774D01*
X000857Y015774D01*
X000769Y015737D01*
X000701Y015670D01*
X000665Y015581D01*
X000665Y015486D01*
X000701Y015398D01*
X000769Y015330D01*
X000857Y015294D01*
X000897Y015294D01*
X001050Y015090D01*
X001055Y013543D01*
X000992Y013569D01*
X000896Y013569D01*
X000808Y013532D01*
X000740Y013465D01*
X000705Y013380D01*
X000611Y013312D01*
X000594Y013312D01*
X000594Y013312D01*
X000594Y019585D01*
X000666Y019585D01*
X000666Y018988D01*
X000737Y018918D01*
X000799Y018918D01*
X000780Y018898D01*
X000743Y018810D01*
X000743Y018714D01*
X000780Y018626D01*
X000838Y018568D01*
X000799Y018568D01*
X000705Y018474D01*
X000666Y018435D01*
X000666Y016255D01*
X000705Y016215D01*
X000799Y016122D01*
X001040Y016122D01*
X001084Y016078D01*
X001172Y016042D01*
X001267Y016042D01*
X001355Y016078D01*
X001423Y016146D01*
X001460Y016234D01*
X001460Y016329D01*
X001423Y016418D01*
X001355Y016485D01*
X001267Y016522D01*
X001172Y016522D01*
X001084Y016485D01*
X001040Y016442D01*
X000986Y016442D01*
X000986Y018248D01*
X002216Y018248D01*
X002708Y017756D01*
X002670Y017717D01*
X002633Y017629D01*
X002633Y017533D01*
X002670Y017445D01*
X002737Y017377D01*
X002825Y017341D01*
X002921Y017341D01*
X003009Y017377D01*
X003077Y017445D01*
X003113Y017533D01*
X003113Y017629D01*
X003077Y017717D01*
X003033Y017760D01*
X003033Y017883D01*
X002742Y018175D01*
X002812Y018204D01*
X002856Y018248D01*
X005272Y018248D01*
X005272Y017642D01*
X005229Y017599D01*
X005192Y017511D01*
X005192Y017415D01*
X005229Y017327D01*
X005296Y017259D01*
X005384Y017223D01*
X005480Y017223D01*
X005568Y017259D01*
X005636Y017327D01*
X005672Y017415D01*
X005672Y017511D01*
X005636Y017599D01*
X005592Y017642D01*
X005592Y018395D01*
X005513Y018474D01*
X005420Y018568D01*
X002856Y018568D01*
X002812Y018611D01*
X002724Y018648D01*
X002628Y018648D01*
X002540Y018611D01*
X002473Y018544D01*
X002443Y018473D01*
X002443Y018474D01*
X002349Y018568D01*
X001680Y018568D01*
X001738Y018626D01*
X001761Y018681D01*
X003018Y018681D01*
X003102Y018764D01*
X003148Y018807D01*
X003148Y018811D01*
X003151Y018814D01*
X003151Y018877D01*
X003153Y018918D01*
X003297Y018918D01*
X003367Y018988D01*
X003367Y019307D01*
X003406Y019267D01*
X003495Y019231D01*
X003590Y019231D01*
X003678Y019267D01*
X003722Y019311D01*
X003836Y019311D01*
X003836Y018988D01*
X003906Y018918D01*
X004478Y018918D01*
X004548Y018988D01*
X004548Y019585D01*
X004643Y019585D01*
X004643Y018988D01*
X004713Y018918D01*
X005090Y018918D01*
X005090Y018917D01*
X005371Y018917D01*
X005414Y018874D01*
X005502Y018837D01*
X005598Y018837D01*
X005686Y018874D01*
X005754Y018941D01*
X005790Y019029D01*
X005790Y019125D01*
X005754Y019213D01*
X005693Y019274D01*
X005730Y019311D01*
X005824Y019311D01*
X005824Y018988D01*
X005894Y018918D01*
X006466Y018918D01*
X006536Y018988D01*
X006536Y019459D01*
X006554Y016030D01*
X006467Y016030D01*
X006379Y015993D01*
X006325Y015940D01*
X006388Y015997D02*
X002440Y015997D01*
X002282Y015997D02*
X000594Y015997D01*
X000594Y015919D02*
X002170Y015919D01*
X002131Y015840D02*
X000594Y015840D01*
X000594Y015762D02*
X000827Y015762D01*
X000714Y015683D02*
X000594Y015683D01*
X000594Y015605D02*
X000674Y015605D01*
X000665Y015526D02*
X000594Y015526D01*
X000594Y015448D02*
X000680Y015448D01*
X000730Y015369D02*
X000594Y015369D01*
X000594Y015291D02*
X000899Y015291D01*
X000958Y015212D02*
X000594Y015212D01*
X000594Y015134D02*
X001017Y015134D01*
X001050Y015055D02*
X000594Y015055D01*
X000594Y014977D02*
X001050Y014977D01*
X001051Y014898D02*
X000594Y014898D01*
X000594Y014820D02*
X001051Y014820D01*
X001051Y014741D02*
X000594Y014741D01*
X000594Y014663D02*
X001051Y014663D01*
X001052Y014584D02*
X000594Y014584D01*
X000594Y014506D02*
X001052Y014506D01*
X001052Y014427D02*
X000594Y014427D01*
X000594Y014349D02*
X001053Y014349D01*
X001053Y014270D02*
X000594Y014270D01*
X000594Y014192D02*
X001053Y014192D01*
X001053Y014113D02*
X000594Y014113D01*
X000594Y014035D02*
X001054Y014035D01*
X001054Y013956D02*
X000594Y013956D01*
X000594Y013878D02*
X001054Y013878D01*
X001054Y013799D02*
X000594Y013799D01*
X000594Y013721D02*
X001055Y013721D01*
X001055Y013642D02*
X000594Y013642D01*
X000594Y013564D02*
X000883Y013564D01*
X001005Y013564D02*
X001055Y013564D01*
X001057Y013093D02*
X001000Y013093D01*
X001057Y013014D02*
X000848Y013014D01*
X000848Y012936D02*
X001057Y012936D01*
X001052Y012857D02*
X000848Y012857D01*
X000848Y012779D02*
X001039Y012779D01*
X001051Y012700D02*
X000848Y012700D01*
X000848Y012622D02*
X001095Y012622D01*
X001218Y012543D02*
X000848Y012543D01*
X000848Y012465D02*
X001611Y012465D01*
X001611Y012543D02*
X001339Y012543D01*
X001462Y012622D02*
X001611Y012622D01*
X001611Y012700D02*
X001506Y012700D01*
X001519Y012779D02*
X001611Y012779D01*
X001611Y012857D02*
X001506Y012857D01*
X001460Y012936D02*
X001611Y012936D01*
X001611Y013014D02*
X001357Y013014D01*
X001357Y013093D02*
X001611Y013093D01*
X001611Y013171D02*
X001357Y013171D01*
X001356Y013250D02*
X001611Y013250D01*
X001611Y013328D02*
X001356Y013328D01*
X001356Y013407D02*
X001611Y013407D01*
X001611Y013485D02*
X001355Y013485D01*
X001355Y013564D02*
X001611Y013564D01*
X001611Y013642D02*
X001355Y013642D01*
X001355Y013721D02*
X001611Y013721D01*
X001611Y013799D02*
X001354Y013799D01*
X001354Y013878D02*
X001611Y013878D01*
X001611Y013956D02*
X001354Y013956D01*
X001354Y014035D02*
X001611Y014035D01*
X001611Y014113D02*
X001353Y014113D01*
X001353Y014192D02*
X001611Y014192D01*
X001611Y014270D02*
X001353Y014270D01*
X001353Y014349D02*
X001611Y014349D01*
X001611Y014427D02*
X001352Y014427D01*
X001352Y014506D02*
X001611Y014506D01*
X001611Y014584D02*
X001352Y014584D01*
X001351Y014663D02*
X001611Y014663D01*
X001611Y014741D02*
X001351Y014741D01*
X001351Y014820D02*
X001611Y014820D01*
X001611Y014898D02*
X001351Y014898D01*
X001350Y014977D02*
X001611Y014977D01*
X001656Y015055D02*
X001350Y015055D01*
X001350Y015134D02*
X001735Y015134D01*
X001813Y015212D02*
X001340Y015212D01*
X001274Y015291D02*
X001892Y015291D01*
X001970Y015369D02*
X001216Y015369D01*
X001157Y015448D02*
X002049Y015448D01*
X002127Y015526D02*
X001145Y015526D01*
X001135Y015605D02*
X002187Y015605D01*
X002137Y015683D02*
X001095Y015683D01*
X000982Y015762D02*
X002121Y015762D01*
X002344Y015291D02*
X002429Y015291D01*
X002477Y015212D02*
X002266Y015212D01*
X002187Y015134D02*
X002548Y015134D01*
X002627Y015055D02*
X002109Y015055D01*
X002030Y014977D02*
X004457Y014977D01*
X004415Y014898D02*
X001952Y014898D01*
X001931Y014820D02*
X004405Y014820D01*
X004420Y014741D02*
X001931Y014741D01*
X001931Y014663D02*
X004468Y014663D01*
X004502Y014584D02*
X001931Y014584D01*
X001931Y014506D02*
X004566Y014506D01*
X004617Y014427D02*
X001931Y014427D01*
X001931Y014349D02*
X004498Y014349D01*
X004455Y014270D02*
X001931Y014270D01*
X001931Y014192D02*
X003319Y014192D01*
X003450Y014192D02*
X004444Y014192D01*
X004429Y014113D02*
X003570Y014113D01*
X003613Y014035D02*
X004351Y014035D01*
X004605Y013742D02*
X005038Y013368D01*
X005038Y013034D01*
X005070Y012983D01*
X005117Y012502D02*
X005070Y012483D01*
X005391Y011758D02*
X004073Y011758D01*
X004047Y011680D02*
X005391Y011680D01*
X005391Y011601D02*
X004047Y011601D01*
X004035Y011523D02*
X005391Y011523D01*
X005391Y011444D02*
X003680Y011444D01*
X003728Y011366D02*
X005391Y011366D01*
X005391Y011287D02*
X003743Y011287D01*
X003732Y011209D02*
X005391Y011209D01*
X005391Y011130D02*
X003691Y011130D01*
X003574Y011052D02*
X005391Y011052D01*
X005391Y010973D02*
X002511Y010973D01*
X002511Y010895D02*
X005394Y010895D01*
X005443Y011837D02*
X004152Y011837D01*
X004230Y011915D02*
X007991Y011915D01*
X007991Y011994D02*
X004309Y011994D01*
X004366Y012298D02*
X004189Y012298D01*
X004101Y012210D01*
X003747Y011856D01*
X003747Y011747D01*
X003417Y011747D01*
X003387Y011776D01*
X003387Y011899D01*
X003331Y011955D01*
X003482Y011893D01*
X003657Y011893D01*
X003819Y011960D01*
X003943Y012084D01*
X004010Y012245D01*
X004010Y012420D01*
X003943Y012582D01*
X003819Y012706D01*
X003754Y012733D01*
X003819Y012760D01*
X003861Y012802D01*
X003914Y012750D01*
X004015Y012708D01*
X004124Y012708D01*
X004225Y012750D01*
X004303Y012827D01*
X004320Y012868D01*
X004337Y012827D01*
X004414Y012750D01*
X004455Y012733D01*
X004414Y012716D01*
X004337Y012639D01*
X004295Y012537D01*
X004295Y012428D01*
X004337Y012327D01*
X004366Y012298D01*
X004356Y012308D02*
X004010Y012308D01*
X004010Y012386D02*
X004312Y012386D01*
X004295Y012465D02*
X003991Y012465D01*
X003959Y012543D02*
X004297Y012543D01*
X004330Y012622D02*
X003903Y012622D01*
X003825Y012700D02*
X004398Y012700D01*
X004385Y012779D02*
X004254Y012779D01*
X004315Y012857D02*
X004324Y012857D01*
X004570Y012983D02*
X004570Y013247D01*
X004566Y013368D01*
X004763Y014510D02*
X004645Y014668D01*
X004645Y014825D01*
X004885Y014820D02*
X005628Y014820D01*
X005617Y014808D02*
X005617Y014796D01*
X005609Y014787D01*
X005617Y014736D01*
X005617Y014450D01*
X005593Y014460D01*
X005593Y014462D01*
X005593Y014558D01*
X005557Y014646D01*
X005489Y014714D01*
X005401Y014750D01*
X005306Y014750D01*
X005217Y014714D01*
X005174Y014670D01*
X004843Y014670D01*
X004837Y014678D01*
X004848Y014689D01*
X004885Y014777D01*
X004885Y014873D01*
X004848Y014961D01*
X004829Y014980D01*
X005065Y014980D01*
X005075Y014990D01*
X005120Y014990D01*
X005160Y015029D01*
X005247Y015117D01*
X005247Y015452D01*
X005435Y015640D01*
X005860Y015640D01*
X005844Y015623D01*
X005844Y014979D01*
X005815Y014975D01*
X005764Y014975D01*
X005755Y014966D01*
X005743Y014965D01*
X005712Y014924D01*
X005676Y014887D01*
X005676Y014875D01*
X005653Y014845D01*
X005617Y014808D01*
X005616Y014741D02*
X005423Y014741D01*
X005540Y014663D02*
X005617Y014663D01*
X005617Y014584D02*
X005583Y014584D01*
X005593Y014506D02*
X005617Y014506D01*
X005511Y014234D02*
X005511Y013388D01*
X005353Y014510D02*
X004763Y014510D01*
X004870Y014741D02*
X005284Y014741D01*
X005185Y015055D02*
X005844Y015055D01*
X005844Y015134D02*
X005247Y015134D01*
X005247Y015212D02*
X005844Y015212D01*
X005844Y015291D02*
X005247Y015291D01*
X005247Y015369D02*
X005844Y015369D01*
X005844Y015448D02*
X005247Y015448D01*
X005322Y015526D02*
X005844Y015526D01*
X005844Y015605D02*
X005400Y015605D01*
X005290Y015919D02*
X002552Y015919D01*
X002592Y015840D02*
X005211Y015840D01*
X005133Y015762D02*
X002601Y015762D01*
X002585Y015683D02*
X005054Y015683D01*
X004976Y015605D02*
X002787Y015605D01*
X002851Y015526D02*
X004947Y015526D01*
X004947Y015448D02*
X002877Y015448D01*
X002877Y015369D02*
X004947Y015369D01*
X004999Y015140D02*
X002768Y015140D01*
X002637Y015271D01*
X002637Y015416D01*
X002361Y015534D02*
X002361Y015770D01*
X002361Y015534D02*
X001771Y014943D01*
X001771Y012266D01*
X001916Y012072D02*
X002349Y012072D01*
X002427Y012151D02*
X001983Y012151D01*
X002011Y012229D02*
X002506Y012229D01*
X002516Y012308D02*
X002011Y012308D01*
X001981Y012386D02*
X002516Y012386D01*
X002516Y012465D02*
X001931Y012465D01*
X001931Y012543D02*
X002544Y012543D01*
X002645Y012622D02*
X001931Y012622D01*
X001931Y012700D02*
X002583Y012700D01*
X002554Y012779D02*
X001931Y012779D01*
X001931Y012857D02*
X002554Y012857D01*
X002584Y012936D02*
X001931Y012936D01*
X001931Y013014D02*
X002644Y013014D01*
X002644Y013093D02*
X001931Y013093D01*
X001931Y013171D02*
X002644Y013171D01*
X002644Y013250D02*
X001931Y013250D01*
X001931Y013328D02*
X002644Y013328D01*
X002644Y013407D02*
X001931Y013407D01*
X001931Y013485D02*
X002644Y013485D01*
X002644Y013564D02*
X001931Y013564D01*
X001931Y013642D02*
X002644Y013642D01*
X002644Y013721D02*
X001931Y013721D01*
X001931Y013799D02*
X002644Y013799D01*
X002644Y013878D02*
X001931Y013878D01*
X001931Y013956D02*
X002644Y013956D01*
X002697Y014035D02*
X001931Y014035D01*
X001931Y014113D02*
X003200Y014113D01*
X003227Y013644D02*
X003031Y013486D01*
X003031Y012719D01*
X002676Y012443D01*
X002676Y012187D01*
X002535Y011758D02*
X002511Y011758D01*
X002511Y011680D02*
X002535Y011680D01*
X002535Y011601D02*
X002511Y011601D01*
X002511Y011523D02*
X002535Y011523D01*
X002535Y011444D02*
X002511Y011444D01*
X002511Y011366D02*
X002535Y011366D01*
X002535Y011287D02*
X002511Y011287D01*
X002511Y011209D02*
X002535Y011209D01*
X002535Y011130D02*
X002511Y011130D01*
X002511Y011052D02*
X002572Y011052D01*
X002378Y010581D02*
X002041Y010581D01*
X001967Y010659D02*
X002299Y010659D01*
X002221Y010738D02*
X001893Y010738D01*
X001822Y010816D02*
X002211Y010816D01*
X002211Y010895D02*
X001745Y010895D01*
X001768Y010345D02*
X001643Y010345D01*
X001753Y010267D02*
X001842Y010267D01*
X001831Y010188D02*
X001916Y010188D01*
X001889Y010110D02*
X001990Y010110D01*
X001922Y010031D02*
X002064Y010031D01*
X002103Y009953D02*
X001954Y009953D01*
X001971Y009874D02*
X002103Y009874D01*
X002103Y009796D02*
X001971Y009796D01*
X001971Y009717D02*
X002103Y009717D01*
X002103Y009639D02*
X001963Y009639D01*
X001930Y009560D02*
X002103Y009560D01*
X002103Y009482D02*
X001898Y009482D01*
X001851Y009403D02*
X002103Y009403D01*
X002103Y009325D02*
X001773Y009325D01*
X001691Y009246D02*
X002103Y009246D01*
X002103Y009168D02*
X001501Y009168D01*
X001651Y008147D02*
X001150Y008147D01*
X001204Y008069D02*
X001651Y008069D01*
X001651Y007990D02*
X001223Y007990D01*
X001217Y007912D02*
X001651Y007912D01*
X001651Y007833D02*
X001181Y007833D01*
X001163Y007755D02*
X001664Y007755D01*
X001163Y007676D02*
X003857Y007676D01*
X003854Y007598D02*
X001163Y007598D01*
X001163Y007519D02*
X003876Y007519D01*
X003632Y007755D02*
X002980Y007755D01*
X002993Y007833D02*
X003619Y007833D01*
X003619Y007912D02*
X002993Y007912D01*
X002993Y007990D02*
X003619Y007990D01*
X003619Y008069D02*
X002993Y008069D01*
X002993Y008147D02*
X003619Y008147D01*
X003619Y008226D02*
X002993Y008226D01*
X003269Y008697D02*
X003619Y008697D01*
X003619Y008775D02*
X003141Y008775D01*
X003141Y008854D02*
X003619Y008854D01*
X003619Y008932D02*
X003141Y008932D01*
X003141Y009011D02*
X003619Y009011D01*
X003660Y009089D02*
X003141Y009089D01*
X003141Y009168D02*
X007080Y009168D01*
X006890Y009246D02*
X003141Y009246D01*
X003354Y008618D02*
X003619Y008618D01*
X003619Y008540D02*
X003386Y008540D01*
X003389Y008461D02*
X003619Y008461D01*
X003619Y008383D02*
X003365Y008383D01*
X003306Y008304D02*
X003619Y008304D01*
X004172Y008526D02*
X004290Y008408D01*
X004352Y007676D02*
X006079Y007676D01*
X006079Y007598D02*
X004334Y007598D01*
X004311Y007519D02*
X006079Y007519D01*
X005601Y007755D02*
X004949Y007755D01*
X004962Y007833D02*
X005588Y007833D01*
X005588Y007912D02*
X004962Y007912D01*
X004962Y007990D02*
X005588Y007990D01*
X005588Y008069D02*
X004962Y008069D01*
X004962Y008147D02*
X005588Y008147D01*
X005588Y008226D02*
X004962Y008226D01*
X004962Y008304D02*
X005588Y008304D01*
X005588Y008383D02*
X004962Y008383D01*
X004962Y008461D02*
X005588Y008461D01*
X005588Y008540D02*
X004962Y008540D01*
X004962Y008618D02*
X005588Y008618D01*
X005588Y008697D02*
X004962Y008697D01*
X004962Y008775D02*
X005588Y008775D01*
X005588Y008854D02*
X004962Y008854D01*
X004962Y008932D02*
X005588Y008932D01*
X005588Y009011D02*
X004962Y009011D01*
X004921Y009089D02*
X005629Y009089D01*
X005411Y012072D02*
X007991Y012072D01*
X007991Y012622D02*
X007749Y012622D01*
X007777Y012700D02*
X007991Y012700D01*
X007991Y012779D02*
X007777Y012779D01*
X007777Y012857D02*
X007991Y012857D01*
X007991Y012936D02*
X007777Y012936D01*
X007777Y013014D02*
X007991Y013014D01*
X007991Y013093D02*
X007777Y013093D01*
X007777Y013171D02*
X007991Y013171D01*
X007991Y013250D02*
X007777Y013250D01*
X007777Y013328D02*
X007991Y013328D01*
X007991Y013407D02*
X007777Y013407D01*
X007777Y013485D02*
X007991Y013485D01*
X007991Y013564D02*
X007777Y013564D01*
X007777Y013642D02*
X007990Y013642D01*
X007990Y013721D02*
X007777Y013721D01*
X007777Y013799D02*
X007990Y013799D01*
X007990Y013878D02*
X007777Y013878D01*
X007777Y013956D02*
X007990Y013956D01*
X007990Y014035D02*
X007777Y014035D01*
X007777Y014113D02*
X007990Y014113D01*
X007990Y014192D02*
X007777Y014192D01*
X007771Y014270D02*
X007990Y014270D01*
X007990Y014349D02*
X007763Y014349D01*
X007777Y014427D02*
X007990Y014427D01*
X007990Y014506D02*
X007777Y014506D01*
X007777Y014584D02*
X007990Y014584D01*
X007990Y014663D02*
X007777Y014663D01*
X007777Y014741D02*
X007990Y014741D01*
X007990Y014820D02*
X007777Y014820D01*
X007777Y014898D02*
X007990Y014898D01*
X007990Y014977D02*
X007777Y014977D01*
X007777Y015055D02*
X007990Y015055D01*
X007990Y015134D02*
X007777Y015134D01*
X007777Y015212D02*
X007990Y015212D01*
X007990Y015291D02*
X007777Y015291D01*
X007777Y015369D02*
X007990Y015369D01*
X007990Y015448D02*
X007777Y015448D01*
X007777Y015526D02*
X007990Y015526D01*
X007990Y015605D02*
X007777Y015605D01*
X007777Y015683D02*
X007989Y015683D01*
X007989Y015762D02*
X007777Y015762D01*
X007777Y015840D02*
X007989Y015840D01*
X007989Y015919D02*
X007777Y015919D01*
X007757Y015997D02*
X007989Y015997D01*
X006554Y016076D02*
X001349Y016076D01*
X001426Y016154D02*
X006553Y016154D01*
X006553Y016233D02*
X001459Y016233D01*
X001460Y016311D02*
X006553Y016311D01*
X006552Y016390D02*
X001435Y016390D01*
X001373Y016468D02*
X006552Y016468D01*
X006551Y016547D02*
X000986Y016547D01*
X000986Y016625D02*
X006551Y016625D01*
X006551Y016704D02*
X000986Y016704D01*
X000986Y016782D02*
X006550Y016782D01*
X006550Y016861D02*
X000986Y016861D01*
X000986Y016939D02*
X006549Y016939D01*
X006549Y017018D02*
X000986Y017018D01*
X000986Y017096D02*
X006549Y017096D01*
X006548Y017175D02*
X000986Y017175D01*
X000986Y017253D02*
X005311Y017253D01*
X005227Y017332D02*
X000986Y017332D01*
X000986Y017410D02*
X002705Y017410D01*
X002652Y017489D02*
X000986Y017489D01*
X000986Y017567D02*
X002633Y017567D01*
X002640Y017646D02*
X000986Y017646D01*
X000986Y017724D02*
X002677Y017724D01*
X002661Y017803D02*
X000986Y017803D01*
X000986Y017881D02*
X002583Y017881D01*
X002504Y017960D02*
X000986Y017960D01*
X000986Y018038D02*
X002426Y018038D01*
X002347Y018117D02*
X000986Y018117D01*
X000986Y018195D02*
X002269Y018195D01*
X002283Y018408D02*
X001220Y018408D01*
X001259Y018447D01*
X001259Y018841D01*
X001495Y019077D01*
X001574Y019471D02*
X001968Y019471D01*
X002204Y019313D01*
X002080Y019392D01*
X001754Y018666D02*
X006540Y018666D01*
X006541Y018588D02*
X002836Y018588D01*
X002790Y018195D02*
X005272Y018195D01*
X005272Y018117D02*
X002800Y018117D01*
X002878Y018038D02*
X005272Y018038D01*
X005272Y017960D02*
X002957Y017960D01*
X003033Y017881D02*
X005272Y017881D01*
X005272Y017803D02*
X003033Y017803D01*
X003069Y017724D02*
X005272Y017724D01*
X005272Y017646D02*
X003106Y017646D01*
X003113Y017567D02*
X005216Y017567D01*
X005192Y017489D02*
X003095Y017489D01*
X003042Y017410D02*
X005194Y017410D01*
X005432Y017463D02*
X005432Y018329D01*
X005353Y018408D01*
X002676Y018408D01*
X002458Y018509D02*
X002407Y018509D01*
X002517Y018588D02*
X001699Y018588D01*
X001534Y018762D02*
X001534Y018801D01*
X001613Y018841D01*
X002952Y018841D01*
X002991Y018880D01*
X003011Y019313D01*
X003152Y018902D02*
X005386Y018902D01*
X005550Y019077D02*
X005157Y019077D01*
X005157Y019234D01*
X005117Y019234D01*
X004999Y019313D01*
X004643Y019294D02*
X004548Y019294D01*
X004548Y019216D02*
X004643Y019216D01*
X004643Y019137D02*
X004548Y019137D01*
X004548Y019059D02*
X004643Y019059D01*
X004651Y018980D02*
X004540Y018980D01*
X004548Y019373D02*
X004643Y019373D01*
X004643Y019451D02*
X004548Y019451D01*
X004548Y019530D02*
X004643Y019530D01*
X004228Y019392D02*
X004192Y019313D01*
X004015Y019471D01*
X003542Y019471D01*
X003705Y019294D02*
X003836Y019294D01*
X003836Y019216D02*
X003367Y019216D01*
X003367Y019294D02*
X003380Y019294D01*
X003367Y019137D02*
X003836Y019137D01*
X003836Y019059D02*
X003367Y019059D01*
X003359Y018980D02*
X003844Y018980D01*
X003151Y018823D02*
X006540Y018823D01*
X006540Y018745D02*
X003082Y018745D01*
X002283Y018408D02*
X002873Y017817D01*
X002873Y017581D01*
X002732Y014070D02*
X002732Y014070D01*
X003227Y013644D02*
X003503Y013644D01*
X003621Y013644D01*
X003838Y012779D02*
X003885Y012779D01*
X004003Y012229D02*
X004120Y012229D01*
X004042Y012151D02*
X003970Y012151D01*
X003963Y012072D02*
X003931Y012072D01*
X003885Y011994D02*
X003853Y011994D01*
X003806Y011915D02*
X003711Y011915D01*
X003747Y011837D02*
X003387Y011837D01*
X003372Y011915D02*
X003428Y011915D01*
X003405Y011758D02*
X003747Y011758D01*
X003432Y011052D02*
X003053Y011052D01*
X003090Y011130D02*
X003315Y011130D01*
X003227Y011597D02*
X003227Y011833D01*
X002952Y012109D01*
X002952Y012305D01*
X002813Y011473D02*
X002852Y011303D01*
X002873Y011282D01*
X002751Y010502D02*
X002115Y010502D01*
X002189Y010424D02*
X002751Y010424D01*
X002777Y010345D02*
X002263Y010345D01*
X002336Y010267D02*
X002840Y010267D01*
X002841Y010188D02*
X002410Y010188D01*
X002464Y010110D02*
X002841Y010110D01*
X002841Y010031D02*
X002463Y010031D01*
X002463Y009953D02*
X002841Y009953D01*
X002841Y009874D02*
X002463Y009874D01*
X002463Y009796D02*
X002841Y009796D01*
X002841Y009717D02*
X002463Y009717D01*
X002463Y009639D02*
X002841Y009639D01*
X002841Y009560D02*
X002463Y009560D01*
X002463Y009482D02*
X002841Y009482D01*
X002841Y009403D02*
X002463Y009403D01*
X002463Y009325D02*
X002841Y009325D01*
X002841Y009246D02*
X002463Y009246D01*
X002463Y009168D02*
X002841Y009168D01*
X003141Y010110D02*
X003509Y010110D01*
X003446Y010188D02*
X003141Y010188D01*
X003142Y010267D02*
X003420Y010267D01*
X003362Y010502D02*
X003231Y010502D01*
X002211Y010973D02*
X000848Y010973D01*
X000848Y011052D02*
X002211Y011052D01*
X002211Y011130D02*
X000848Y011130D01*
X000848Y011209D02*
X002211Y011209D01*
X002211Y011287D02*
X000848Y011287D01*
X000848Y011366D02*
X002211Y011366D01*
X002211Y011444D02*
X000848Y011444D01*
X000848Y011523D02*
X002211Y011523D01*
X002211Y011601D02*
X000848Y011601D01*
X000848Y011680D02*
X002211Y011680D01*
X002211Y011758D02*
X000848Y011758D01*
X000848Y011837D02*
X002211Y011837D01*
X002211Y011915D02*
X000848Y011915D01*
X000848Y011994D02*
X002270Y011994D01*
X001625Y012072D02*
X000848Y012072D01*
X000848Y012151D02*
X001559Y012151D01*
X001531Y012229D02*
X000848Y012229D01*
X000848Y012308D02*
X001531Y012308D01*
X001561Y012386D02*
X000848Y012386D01*
X000633Y013328D02*
X000594Y013328D01*
X000594Y013407D02*
X000716Y013407D01*
X000761Y013485D02*
X000594Y013485D01*
X000594Y016076D02*
X001090Y016076D01*
X001220Y016282D02*
X000865Y016282D01*
X000826Y016321D01*
X000826Y018368D01*
X000865Y018408D01*
X001220Y018408D01*
X000983Y018762D02*
X000983Y019156D01*
X001023Y019313D01*
X000905Y019352D01*
X000674Y018980D02*
X000594Y018980D01*
X000594Y018902D02*
X000783Y018902D01*
X000749Y018823D02*
X000594Y018823D01*
X000594Y018745D02*
X000743Y018745D01*
X000763Y018666D02*
X000594Y018666D01*
X000594Y018588D02*
X000818Y018588D01*
X000740Y018509D02*
X000594Y018509D01*
X000594Y018431D02*
X000666Y018431D01*
X000666Y018352D02*
X000594Y018352D01*
X000594Y018274D02*
X000666Y018274D01*
X000666Y018195D02*
X000594Y018195D01*
X000594Y018117D02*
X000666Y018117D01*
X000666Y018038D02*
X000594Y018038D01*
X000594Y017960D02*
X000666Y017960D01*
X000666Y017881D02*
X000594Y017881D01*
X000594Y017803D02*
X000666Y017803D01*
X000666Y017724D02*
X000594Y017724D01*
X000594Y017646D02*
X000666Y017646D01*
X000666Y017567D02*
X000594Y017567D01*
X000594Y017489D02*
X000666Y017489D01*
X000666Y017410D02*
X000594Y017410D01*
X000594Y017332D02*
X000666Y017332D01*
X000666Y017253D02*
X000594Y017253D01*
X000594Y017175D02*
X000666Y017175D01*
X000666Y017096D02*
X000594Y017096D01*
X000594Y017018D02*
X000666Y017018D01*
X000666Y016939D02*
X000594Y016939D01*
X000594Y016861D02*
X000666Y016861D01*
X000666Y016782D02*
X000594Y016782D01*
X000594Y016704D02*
X000666Y016704D01*
X000666Y016625D02*
X000594Y016625D01*
X000594Y016547D02*
X000666Y016547D01*
X000666Y016468D02*
X000594Y016468D01*
X000594Y016390D02*
X000666Y016390D01*
X000666Y016311D02*
X000594Y016311D01*
X000594Y016233D02*
X000688Y016233D01*
X000767Y016154D02*
X000594Y016154D01*
X000986Y016468D02*
X001066Y016468D01*
X000666Y019059D02*
X000594Y019059D01*
X000594Y019137D02*
X000666Y019137D01*
X000666Y019216D02*
X000594Y019216D01*
X000594Y019294D02*
X000666Y019294D01*
X000666Y019373D02*
X000594Y019373D01*
X000594Y019451D02*
X000666Y019451D01*
X000666Y019530D02*
X000594Y019530D01*
X004833Y014977D02*
X005826Y014977D01*
X005687Y014898D02*
X004874Y014898D01*
X005553Y017253D02*
X006548Y017253D01*
X006547Y017332D02*
X005638Y017332D01*
X005670Y017410D02*
X006547Y017410D01*
X006547Y017489D02*
X005672Y017489D01*
X005649Y017567D02*
X006546Y017567D01*
X006546Y017646D02*
X005592Y017646D01*
X005592Y017724D02*
X006545Y017724D01*
X006545Y017803D02*
X005592Y017803D01*
X005592Y017881D02*
X006545Y017881D01*
X006544Y017960D02*
X005592Y017960D01*
X005592Y018038D02*
X006544Y018038D01*
X006543Y018117D02*
X005592Y018117D01*
X005592Y018195D02*
X006543Y018195D01*
X006542Y018274D02*
X005592Y018274D01*
X005592Y018352D02*
X006542Y018352D01*
X006542Y018431D02*
X005557Y018431D01*
X005478Y018509D02*
X006541Y018509D01*
X006539Y018902D02*
X005714Y018902D01*
X005770Y018980D02*
X005832Y018980D01*
X005824Y019059D02*
X005790Y019059D01*
X005785Y019137D02*
X005824Y019137D01*
X005824Y019216D02*
X005751Y019216D01*
X005713Y019294D02*
X005824Y019294D01*
X006023Y019471D02*
X006180Y019313D01*
X006194Y019392D01*
X006023Y019471D02*
X005550Y019471D01*
X006536Y019451D02*
X006536Y019451D01*
X006536Y019373D02*
X006537Y019373D01*
X006536Y019294D02*
X006537Y019294D01*
X006536Y019216D02*
X006538Y019216D01*
X006536Y019137D02*
X006538Y019137D01*
X006536Y019059D02*
X006538Y019059D01*
X006528Y018980D02*
X006539Y018980D01*
X004290Y006154D02*
X004290Y006154D01*
D21*
X004094Y007620D03*
X004487Y009392D03*
X004172Y010101D03*
X003660Y010297D03*
X003346Y009746D03*
X002991Y010455D03*
X002558Y009904D03*
X003149Y008486D03*
X003503Y011282D03*
X003227Y011597D03*
X002952Y012305D03*
X002794Y012817D03*
X003385Y013959D03*
X003621Y013644D03*
X003936Y014077D03*
X004330Y014825D03*
X004645Y014825D03*
X004684Y014195D03*
X004605Y013742D03*
X004566Y013368D03*
X004369Y012738D03*
X004723Y011400D03*
X005511Y013388D03*
X005767Y013585D03*
X005511Y014234D03*
X005353Y014510D03*
X005513Y014794D03*
X005513Y015246D03*
X004825Y015756D03*
X004825Y016156D03*
X004825Y016556D03*
X004825Y016956D03*
X004425Y016956D03*
X004425Y016556D03*
X004425Y016156D03*
X004425Y015756D03*
X004025Y015756D03*
X004025Y016156D03*
X004025Y016556D03*
X004025Y016956D03*
X003625Y016956D03*
X003625Y016556D03*
X003625Y016156D03*
X003625Y015756D03*
X002873Y017581D03*
X002676Y018408D03*
X002361Y017935D03*
X002086Y016439D03*
X002361Y015770D03*
X002637Y015416D03*
X002361Y014746D03*
X001771Y012266D03*
X001279Y012778D03*
X000944Y013329D03*
X000905Y015534D03*
X001220Y015573D03*
X001220Y016282D03*
X001141Y017896D03*
X000983Y018762D03*
X001495Y019077D03*
X001574Y019471D03*
X001534Y018762D03*
X001731Y017935D03*
X003542Y019471D03*
X004408Y018171D03*
X005078Y018742D03*
X005550Y019077D03*
X005550Y019471D03*
X005432Y017463D03*
X006515Y015790D03*
X006712Y013841D03*
X006338Y012423D03*
X006001Y011282D03*
X006731Y010770D03*
X007479Y011360D03*
X000983Y007975D03*
D22*
X002479Y010691D02*
X002361Y010809D01*
X002361Y011872D01*
X002676Y012187D01*
X002794Y012817D02*
X002794Y013920D01*
X002834Y013959D01*
X003385Y013959D01*
X003523Y013860D01*
X004389Y013860D01*
X004684Y014156D01*
X004684Y014195D01*
X004999Y015140D02*
X005058Y015140D01*
X005097Y015179D01*
X005097Y015514D01*
X005373Y015790D01*
X006515Y015790D01*
X006235Y014825D02*
X005826Y014825D01*
X005767Y014746D01*
X005767Y013585D01*
X005117Y012502D02*
X005373Y012246D01*
X005275Y012148D01*
X004251Y012148D01*
X003897Y011794D01*
X003897Y011597D01*
X003227Y011597D01*
X003503Y011282D02*
X002873Y011282D01*
X002991Y010455D02*
X002991Y009549D01*
X003031Y009510D01*
X003975Y009510D01*
X004172Y009707D01*
X004172Y010101D01*
X003660Y010297D02*
X003660Y010416D01*
X003385Y010691D01*
X002479Y010691D01*
X002991Y009549D02*
X002991Y008644D01*
X003149Y008486D01*
X001279Y012758D02*
X001208Y012821D01*
X001200Y015140D01*
X000905Y015534D01*
X001279Y012778D02*
X001279Y012758D01*
X005373Y012246D02*
X006160Y012246D01*
X006338Y012423D01*
X005942Y011341D02*
X006001Y011282D01*
X005942Y011341D02*
X005905Y011341D01*
D23*
X006259Y008408D02*
X006259Y007423D01*
X006141Y007305D01*
X001101Y007305D01*
X000983Y007423D01*
X000983Y007975D01*
X002283Y010061D02*
X001653Y010731D01*
X000747Y010731D01*
X000668Y010809D01*
X000668Y013132D01*
X000944Y013329D01*
X002283Y010061D02*
X002283Y008998D01*
X002283Y008408D01*
X002322Y008408D01*
X004094Y007620D02*
X004172Y007699D01*
X004172Y008526D01*
M02*
