G75*
%MOIN*%
%OFA0B0*%
%FSLAX24Y24*%
%IPPOS*%
%LPD*%
%AMOC8*
5,1,8,0,0,1.08239X$1,22.5*
%
%ADD10C,0.0000*%
%ADD11C,0.0000*%
%ADD12C,0.0050*%
D10*
X000353Y000140D02*
X008237Y000140D01*
X008227Y019825D01*
X000353Y019825D01*
X003370Y013133D02*
X003372Y013161D01*
X003378Y013188D01*
X003387Y013214D01*
X003400Y013239D01*
X003417Y013262D01*
X003436Y013282D01*
X003458Y013299D01*
X003482Y013313D01*
X003508Y013323D01*
X003535Y013330D01*
X003563Y013333D01*
X003591Y013332D01*
X003618Y013327D01*
X003645Y013318D01*
X003670Y013306D01*
X003693Y013291D01*
X003714Y013272D01*
X003732Y013251D01*
X003747Y013227D01*
X003758Y013201D01*
X003766Y013175D01*
X003770Y013147D01*
X003770Y013119D01*
X003766Y013091D01*
X003758Y013065D01*
X003747Y013039D01*
X003732Y013015D01*
X003714Y012994D01*
X003693Y012975D01*
X003670Y012960D01*
X003645Y012948D01*
X003618Y012939D01*
X003591Y012934D01*
X003563Y012933D01*
X003535Y012936D01*
X003508Y012943D01*
X003482Y012953D01*
X003458Y012967D01*
X003436Y012984D01*
X003417Y013004D01*
X003400Y013027D01*
X003387Y013052D01*
X003378Y013078D01*
X003372Y013105D01*
X003370Y013133D01*
X003370Y012333D02*
X003372Y012361D01*
X003378Y012388D01*
X003387Y012414D01*
X003400Y012439D01*
X003417Y012462D01*
X003436Y012482D01*
X003458Y012499D01*
X003482Y012513D01*
X003508Y012523D01*
X003535Y012530D01*
X003563Y012533D01*
X003591Y012532D01*
X003618Y012527D01*
X003645Y012518D01*
X003670Y012506D01*
X003693Y012491D01*
X003714Y012472D01*
X003732Y012451D01*
X003747Y012427D01*
X003758Y012401D01*
X003766Y012375D01*
X003770Y012347D01*
X003770Y012319D01*
X003766Y012291D01*
X003758Y012265D01*
X003747Y012239D01*
X003732Y012215D01*
X003714Y012194D01*
X003693Y012175D01*
X003670Y012160D01*
X003645Y012148D01*
X003618Y012139D01*
X003591Y012134D01*
X003563Y012133D01*
X003535Y012136D01*
X003508Y012143D01*
X003482Y012153D01*
X003458Y012167D01*
X003436Y012184D01*
X003417Y012204D01*
X003400Y012227D01*
X003387Y012252D01*
X003378Y012278D01*
X003372Y012305D01*
X003370Y012333D01*
X000944Y009786D02*
X000946Y009825D01*
X000952Y009864D01*
X000962Y009902D01*
X000975Y009939D01*
X000992Y009974D01*
X001012Y010008D01*
X001036Y010039D01*
X001063Y010068D01*
X001092Y010094D01*
X001124Y010117D01*
X001158Y010137D01*
X001194Y010153D01*
X001231Y010165D01*
X001270Y010174D01*
X001309Y010179D01*
X001348Y010180D01*
X001387Y010177D01*
X001426Y010170D01*
X001463Y010159D01*
X001500Y010145D01*
X001535Y010127D01*
X001568Y010106D01*
X001599Y010081D01*
X001627Y010054D01*
X001652Y010024D01*
X001674Y009991D01*
X001693Y009957D01*
X001708Y009921D01*
X001720Y009883D01*
X001728Y009845D01*
X001732Y009806D01*
X001732Y009766D01*
X001728Y009727D01*
X001720Y009689D01*
X001708Y009651D01*
X001693Y009615D01*
X001674Y009581D01*
X001652Y009548D01*
X001627Y009518D01*
X001599Y009491D01*
X001568Y009466D01*
X001535Y009445D01*
X001500Y009427D01*
X001463Y009413D01*
X001426Y009402D01*
X001387Y009395D01*
X001348Y009392D01*
X001309Y009393D01*
X001270Y009398D01*
X001231Y009407D01*
X001194Y009419D01*
X001158Y009435D01*
X001124Y009455D01*
X001092Y009478D01*
X001063Y009504D01*
X001036Y009533D01*
X001012Y009564D01*
X000992Y009598D01*
X000975Y009633D01*
X000962Y009670D01*
X000952Y009708D01*
X000946Y009747D01*
X000944Y009786D01*
X000944Y000927D02*
X000946Y000966D01*
X000952Y001005D01*
X000962Y001043D01*
X000975Y001080D01*
X000992Y001115D01*
X001012Y001149D01*
X001036Y001180D01*
X001063Y001209D01*
X001092Y001235D01*
X001124Y001258D01*
X001158Y001278D01*
X001194Y001294D01*
X001231Y001306D01*
X001270Y001315D01*
X001309Y001320D01*
X001348Y001321D01*
X001387Y001318D01*
X001426Y001311D01*
X001463Y001300D01*
X001500Y001286D01*
X001535Y001268D01*
X001568Y001247D01*
X001599Y001222D01*
X001627Y001195D01*
X001652Y001165D01*
X001674Y001132D01*
X001693Y001098D01*
X001708Y001062D01*
X001720Y001024D01*
X001728Y000986D01*
X001732Y000947D01*
X001732Y000907D01*
X001728Y000868D01*
X001720Y000830D01*
X001708Y000792D01*
X001693Y000756D01*
X001674Y000722D01*
X001652Y000689D01*
X001627Y000659D01*
X001599Y000632D01*
X001568Y000607D01*
X001535Y000586D01*
X001500Y000568D01*
X001463Y000554D01*
X001426Y000543D01*
X001387Y000536D01*
X001348Y000533D01*
X001309Y000534D01*
X001270Y000539D01*
X001231Y000548D01*
X001194Y000560D01*
X001158Y000576D01*
X001124Y000596D01*
X001092Y000619D01*
X001063Y000645D01*
X001036Y000674D01*
X001012Y000705D01*
X000992Y000739D01*
X000975Y000774D01*
X000962Y000811D01*
X000952Y000849D01*
X000946Y000888D01*
X000944Y000927D01*
X005370Y012733D02*
X005372Y012761D01*
X005378Y012788D01*
X005387Y012814D01*
X005400Y012839D01*
X005417Y012862D01*
X005436Y012882D01*
X005458Y012899D01*
X005482Y012913D01*
X005508Y012923D01*
X005535Y012930D01*
X005563Y012933D01*
X005591Y012932D01*
X005618Y012927D01*
X005645Y012918D01*
X005670Y012906D01*
X005693Y012891D01*
X005714Y012872D01*
X005732Y012851D01*
X005747Y012827D01*
X005758Y012801D01*
X005766Y012775D01*
X005770Y012747D01*
X005770Y012719D01*
X005766Y012691D01*
X005758Y012665D01*
X005747Y012639D01*
X005732Y012615D01*
X005714Y012594D01*
X005693Y012575D01*
X005670Y012560D01*
X005645Y012548D01*
X005618Y012539D01*
X005591Y012534D01*
X005563Y012533D01*
X005535Y012536D01*
X005508Y012543D01*
X005482Y012553D01*
X005458Y012567D01*
X005436Y012584D01*
X005417Y012604D01*
X005400Y012627D01*
X005387Y012652D01*
X005378Y012678D01*
X005372Y012705D01*
X005370Y012733D01*
X006849Y009786D02*
X006851Y009825D01*
X006857Y009864D01*
X006867Y009902D01*
X006880Y009939D01*
X006897Y009974D01*
X006917Y010008D01*
X006941Y010039D01*
X006968Y010068D01*
X006997Y010094D01*
X007029Y010117D01*
X007063Y010137D01*
X007099Y010153D01*
X007136Y010165D01*
X007175Y010174D01*
X007214Y010179D01*
X007253Y010180D01*
X007292Y010177D01*
X007331Y010170D01*
X007368Y010159D01*
X007405Y010145D01*
X007440Y010127D01*
X007473Y010106D01*
X007504Y010081D01*
X007532Y010054D01*
X007557Y010024D01*
X007579Y009991D01*
X007598Y009957D01*
X007613Y009921D01*
X007625Y009883D01*
X007633Y009845D01*
X007637Y009806D01*
X007637Y009766D01*
X007633Y009727D01*
X007625Y009689D01*
X007613Y009651D01*
X007598Y009615D01*
X007579Y009581D01*
X007557Y009548D01*
X007532Y009518D01*
X007504Y009491D01*
X007473Y009466D01*
X007440Y009445D01*
X007405Y009427D01*
X007368Y009413D01*
X007331Y009402D01*
X007292Y009395D01*
X007253Y009392D01*
X007214Y009393D01*
X007175Y009398D01*
X007136Y009407D01*
X007099Y009419D01*
X007063Y009435D01*
X007029Y009455D01*
X006997Y009478D01*
X006968Y009504D01*
X006941Y009533D01*
X006917Y009564D01*
X006897Y009598D01*
X006880Y009633D01*
X006867Y009670D01*
X006857Y009708D01*
X006851Y009747D01*
X006849Y009786D01*
X006849Y000927D02*
X006851Y000966D01*
X006857Y001005D01*
X006867Y001043D01*
X006880Y001080D01*
X006897Y001115D01*
X006917Y001149D01*
X006941Y001180D01*
X006968Y001209D01*
X006997Y001235D01*
X007029Y001258D01*
X007063Y001278D01*
X007099Y001294D01*
X007136Y001306D01*
X007175Y001315D01*
X007214Y001320D01*
X007253Y001321D01*
X007292Y001318D01*
X007331Y001311D01*
X007368Y001300D01*
X007405Y001286D01*
X007440Y001268D01*
X007473Y001247D01*
X007504Y001222D01*
X007532Y001195D01*
X007557Y001165D01*
X007579Y001132D01*
X007598Y001098D01*
X007613Y001062D01*
X007625Y001024D01*
X007633Y000986D01*
X007637Y000947D01*
X007637Y000907D01*
X007633Y000868D01*
X007625Y000830D01*
X007613Y000792D01*
X007598Y000756D01*
X007579Y000722D01*
X007557Y000689D01*
X007532Y000659D01*
X007504Y000632D01*
X007473Y000607D01*
X007440Y000586D01*
X007405Y000568D01*
X007368Y000554D01*
X007331Y000543D01*
X007292Y000536D01*
X007253Y000533D01*
X007214Y000534D01*
X007175Y000539D01*
X007136Y000548D01*
X007099Y000560D01*
X007063Y000576D01*
X007029Y000596D01*
X006997Y000619D01*
X006968Y000645D01*
X006941Y000674D01*
X006917Y000705D01*
X006897Y000739D01*
X006880Y000774D01*
X006867Y000811D01*
X006857Y000849D01*
X006851Y000888D01*
X006849Y000927D01*
D11*
X000353Y000140D02*
X000353Y019825D01*
D12*
X002990Y004589D02*
X002992Y004661D01*
X002998Y004732D01*
X003008Y004803D01*
X003021Y004873D01*
X003039Y004943D01*
X003060Y005011D01*
X003086Y005078D01*
X003114Y005144D01*
X003147Y005208D01*
X003183Y005270D01*
X003222Y005330D01*
X003264Y005387D01*
X003310Y005443D01*
X003358Y005495D01*
X003410Y005545D01*
X003464Y005592D01*
X003520Y005636D01*
X003579Y005677D01*
X003640Y005715D01*
X003703Y005749D01*
X003768Y005780D01*
X003834Y005806D01*
X003902Y005830D01*
X003971Y005849D01*
X004041Y005865D01*
X004111Y005877D01*
X004183Y005885D01*
X004254Y005889D01*
X004326Y005889D01*
X004397Y005885D01*
X004469Y005877D01*
X004539Y005865D01*
X004609Y005849D01*
X004678Y005830D01*
X004746Y005806D01*
X004812Y005780D01*
X004877Y005749D01*
X004940Y005715D01*
X005001Y005677D01*
X005060Y005636D01*
X005116Y005592D01*
X005170Y005545D01*
X005222Y005495D01*
X005270Y005443D01*
X005316Y005387D01*
X005358Y005330D01*
X005397Y005270D01*
X005433Y005208D01*
X005466Y005144D01*
X005494Y005078D01*
X005520Y005011D01*
X005541Y004943D01*
X005559Y004873D01*
X005572Y004803D01*
X005582Y004732D01*
X005588Y004661D01*
X005590Y004589D01*
X005588Y004517D01*
X005582Y004446D01*
X005572Y004375D01*
X005559Y004305D01*
X005541Y004235D01*
X005520Y004167D01*
X005494Y004100D01*
X005466Y004034D01*
X005433Y003970D01*
X005397Y003908D01*
X005358Y003848D01*
X005316Y003791D01*
X005270Y003735D01*
X005222Y003683D01*
X005170Y003633D01*
X005116Y003586D01*
X005060Y003542D01*
X005001Y003501D01*
X004940Y003463D01*
X004877Y003429D01*
X004812Y003398D01*
X004746Y003372D01*
X004678Y003348D01*
X004609Y003329D01*
X004539Y003313D01*
X004469Y003301D01*
X004397Y003293D01*
X004326Y003289D01*
X004254Y003289D01*
X004183Y003293D01*
X004111Y003301D01*
X004041Y003313D01*
X003971Y003329D01*
X003902Y003348D01*
X003834Y003372D01*
X003768Y003398D01*
X003703Y003429D01*
X003640Y003463D01*
X003579Y003501D01*
X003520Y003542D01*
X003464Y003586D01*
X003410Y003633D01*
X003358Y003683D01*
X003310Y003735D01*
X003264Y003791D01*
X003222Y003848D01*
X003183Y003908D01*
X003147Y003970D01*
X003114Y004034D01*
X003086Y004100D01*
X003060Y004167D01*
X003039Y004235D01*
X003021Y004305D01*
X003008Y004375D01*
X002998Y004446D01*
X002992Y004517D01*
X002990Y004589D01*
M02*
